<svg width="282" height="282" viewBox="0 0 282 282" fill="none" xmlns="http://www.w3.org/2000/svg">
<path fill-rule="evenodd" clip-rule="evenodd" d="M17.302 94.7306C17.2316 94.7769 17.126 94.8001 17.0086 94.7769C17.126 94.7653 17.2198 94.7422 17.302 94.7306ZM76.3102 31.1282L76.2867 31.1166C76.2984 31.1166 76.2984 31.1282 76.3102 31.1282ZM126.905 266.514C126.87 266.525 126.858 266.548 126.835 266.56V266.456C126.858 266.479 126.881 266.491 126.905 266.514ZM180.092 37.8776C180.596 38.3871 181.207 38.3408 181.864 38.0629C183.084 37.5534 183.764 37.7734 184.48 38.8271C184.75 39.2439 185.114 39.6491 185.571 39.7534C186.58 39.9965 187.355 40.7028 188.282 40.9923C191.016 41.826 193.292 43.5397 195.861 44.6629C197.222 45.2649 198.666 45.5776 199.874 46.8049C200.942 47.8586 202.725 48.4376 204.403 48.727C206.28 49.4333 207.477 51.3438 209.636 51.5638C209.695 51.5754 209.777 51.6449 209.812 51.7028C210.246 52.4091 210.974 52.9417 211.349 53.648C211.713 54.3428 212.206 54.667 212.839 55.0028C213.426 55.327 214.13 55.4659 214.306 56.4733C214.529 57.7932 215.444 58.2217 216.465 57.9206C218.037 57.469 218.389 57.7817 218.072 59.3796C218.014 59.7038 217.849 60.2596 218.225 60.2248C219.445 60.1206 219.762 61.1395 220.36 61.7532C221.123 62.5405 221.956 63.3511 222.226 64.4742C222.379 65.1458 222.848 65.47 223.294 65.9216C224.291 66.9405 225.722 67.4037 226.579 68.5384C226.99 69.0594 227.846 68.8279 228.046 69.43C228.292 70.2057 228.879 70.6573 229.501 70.8889C230.451 71.2594 230.709 72.2436 231.484 72.7415C231.847 72.9615 231.93 73.471 231.988 73.9341C232.082 74.8952 232.986 75.5088 233.15 76.4699C233.209 76.7941 233.654 76.8288 234.03 76.7015C234.323 76.6088 234.593 76.6899 234.511 77.072C234.335 77.8825 235.039 78.1604 235.461 78.5657C236.717 79.7583 237.609 81.2288 238.301 82.7339C238.805 83.8223 239.216 84.8875 240.096 85.7328C240.295 85.9991 240.741 85.9643 240.812 86.4738C240.953 87.6317 241.199 88.7896 242.49 89.3338C242.689 89.4148 242.877 89.6695 242.783 89.878C242.185 91.1285 243.135 91.7306 243.839 92.4021C244.437 92.9695 244.766 93.7916 244.59 94.4284C244.379 95.1579 244.59 95.5747 245.001 95.9916C245.493 96.4894 245.81 97.08 245.916 97.7399C246.021 98.4578 246.455 98.8631 246.948 99.3494C247.875 100.264 248.978 101.214 248.45 102.812C248.391 103.008 248.544 103.309 248.65 103.541C248.908 104.074 248.931 104.618 248.661 105.139C248.333 105.776 248.485 106.216 249.178 106.424C249.87 106.633 249.987 107.096 250.093 107.756C250.222 108.67 249.882 109.678 250.609 110.488C251.36 111.322 251.782 112.318 252.041 113.395C252.052 113.395 252.052 113.406 252.064 113.406C252.017 113.441 251.97 113.464 251.9 113.534C251.677 114.101 251.911 114.61 252.076 115.143C252.569 116.834 253.46 118.408 253.425 120.261C253.402 121.141 253.718 121.975 254.34 122.716C255.854 124.499 256.593 126.502 255.701 128.841C255.619 129.038 255.713 129.292 255.666 129.501C255.373 130.717 256.429 131.689 256.253 132.94C256.159 133.623 256.065 134.329 256.053 135.036C256.018 137.305 256.417 139.528 256.957 141.728C257.051 142.122 257.18 142.527 257.027 142.921C256.687 143.778 256.886 144.588 257.133 145.422C257.485 146.614 257.567 147.784 256.828 148.953C256.276 149.81 256.182 150.806 256.523 151.848C256.828 152.786 257.133 153.782 256.71 154.777C256.276 155.773 256.241 156.804 256.323 157.846C256.394 158.819 256.265 159.768 256.182 160.729C255.971 163.091 255.549 165.43 255.502 167.804C255.537 167.885 255.607 167.931 255.654 168.001C255.549 168.151 255.396 168.302 255.373 168.464C254.915 170.884 253.824 173.13 253.449 175.561C253.39 175.897 253.261 176.175 253.097 176.476C252.357 177.796 252.017 179.29 251.923 180.76C251.865 181.629 251.735 182.405 251.325 183.157C250.773 184.164 250.327 185.207 249.987 186.307C249.588 187.592 249.53 189.051 248.732 190.151C247.57 191.749 247.007 193.636 245.986 195.292C245.775 195.639 245.705 196.01 245.881 196.45C246.326 197.654 245.998 198.742 245.259 199.738C244.954 200.167 244.59 200.537 244.121 200.792C243.639 201.07 243.287 201.44 243.194 201.996C243.076 202.598 242.818 203.096 242.29 203.443C242.079 203.594 241.903 203.814 241.903 204.103C241.938 205.505 240.823 206.28 240.096 207.264C239.732 208.168 239.275 209.013 238.395 209.557C238.266 209.638 238.324 209.985 238.266 210.194C238.195 210.483 238.16 210.97 238.008 211.016C236.893 211.363 236.764 212.463 236.154 213.181C235.18 214.339 234.511 215.694 233.267 216.747C231.718 218.067 230.522 219.816 229.02 221.275C227.213 223.035 225.418 224.783 223.376 226.277C223.001 226.555 222.602 226.809 222.074 226.879C220.49 227.11 218.917 227.377 217.357 227.724C215.444 228.141 213.602 228.905 211.619 229.113C211.572 229.137 211.525 229.16 211.478 229.195C211.514 229.137 211.537 229.067 211.572 228.998C210.962 228.697 210.317 228.859 209.695 228.824C208.92 228.789 208.287 229.31 207.512 229.322C206.022 229.345 205.213 230.086 204.908 231.661C204.051 230.978 203.406 231.001 203.124 232.159C203.077 232.321 202.878 232.448 202.702 232.506C201.2 233.05 200.719 234.451 200.062 235.679C199.768 236.211 199.628 236.883 200.273 237.381H200.32C199.968 238.122 199.98 238.851 200.32 239.581C200.32 239.731 200.332 239.882 200.332 240.032C200.355 240.924 200.684 241.792 200.543 242.707C200.238 243.436 200.179 244.351 199.557 244.849C198.314 245.822 197.07 246.806 195.545 247.408C194.442 247.86 193.456 248.566 192.412 249.168C190.64 250.117 188.704 250.824 187.449 252.514C186.569 252.665 186.017 253.302 185.395 253.846C184.574 253.823 183.741 253.799 183.154 254.517C182.403 255.062 181.441 254.784 180.655 255.189C179.916 255.305 179.118 254.957 178.414 255.421C178.461 255.791 178.273 256.057 178.086 256.324C177.992 256.312 177.898 256.312 177.804 256.324C177.1 256.81 176.372 257.123 175.469 257.111C174.941 257.111 174.237 257.192 173.908 257.632C173.216 258.524 172.301 258.477 171.362 258.466C169.52 258.443 167.573 257.898 166.047 259.462C166.036 259.485 165.989 259.496 165.942 259.496C164.522 259.427 163.22 259.994 161.823 260.029C159.324 260.11 156.895 261.001 154.361 260.77C154.103 260.747 153.868 260.967 153.61 261.002C152.049 261.245 150.454 261.036 148.905 261.43C148.741 261.465 148.553 261.326 148.365 261.279C147.731 261.106 147.074 261.025 146.476 261.256C145.619 261.569 144.763 261.407 143.906 261.499C143.343 261.569 142.839 261.175 142.252 261.256C139.811 261.604 137.348 260.596 134.907 261.43C134.567 261.546 134.203 261.233 133.839 261.14C132.619 260.828 131.422 260.249 130.12 260.816C129.803 260.955 129.451 260.863 129.122 260.77C126.248 260.017 123.303 259.682 120.416 259.079C119.384 258.859 118.293 259.323 117.319 258.732C116.721 258.373 116.064 258.234 115.371 258.223C112.696 258.176 110.185 257.574 107.874 256.208C107.264 255.849 106.583 255.617 105.867 255.467C103.333 254.981 101.068 253.579 98.4636 253.278C98.1351 253.244 97.83 253.047 97.5484 252.873C96.0114 251.912 94.2867 251.542 92.5265 251.356C91.7521 251.287 91.0951 251.148 90.4732 250.604C89.6049 249.84 88.9009 250.013 88.2321 250.974C88.0913 251.183 87.8919 251.252 87.7159 251.379C86.3665 252.329 84.8881 252.005 83.4683 251.727C82.2832 251.495 80.9691 251.322 80.5819 249.828C80.5115 249.504 80.1712 249.307 79.9248 249.087C79.0214 248.288 78.5755 247.257 78.5989 246.123C78.6224 245.22 78.2469 245.011 77.4491 244.826C76.2054 244.571 74.9968 243.946 74.1991 243.043C73.5537 242.325 72.9201 241.711 72.0871 241.294C71.2188 240.878 70.6439 240.229 70.3036 239.372C69.9399 238.434 69.2946 237.971 68.2503 237.925C67.2412 237.89 66.4199 237.358 66.0093 236.478C65.6455 235.702 65.1293 235.366 64.3197 235.215C63.4631 235.065 62.4775 234.822 62.1373 234.011C61.7853 233.143 61.1869 232.552 60.6119 231.881C60.1192 231.325 59.6264 230.758 59.2744 230.098C58.4178 228.534 57.3853 227.157 55.766 226.3C55.59 226.207 55.4492 226.103 55.3788 225.918C54.487 223.718 52.6801 222.386 50.744 221.194C49.911 220.672 49.1718 220.186 48.7846 219.167C48.3739 218.114 47.7403 217.141 47.6113 215.96C47.5643 215.566 47.3766 215.149 47.0481 214.895C45.2529 213.459 45.1003 211.12 43.9269 209.337C43.3168 208.422 42.8474 207.38 41.9557 206.697C41.3104 206.199 41.0522 205.655 41.0992 204.891C41.1578 204.138 40.8762 203.559 40.313 203.015C39.2218 201.961 38.6234 200.618 38.1658 199.182C37.5792 197.353 36.8517 195.546 35.9717 193.844C35.2794 192.513 34.7984 191.019 33.6485 189.931C33.3435 189.641 33.449 189.155 33.4138 188.75C33.3786 188.321 33.5077 187.835 32.9797 187.58C32.9563 187.603 32.9211 187.626 32.8859 187.65C32.3579 187.024 32.7803 186.272 32.616 185.612C32.1936 183.921 31.5013 182.335 31.208 180.563C30.8443 178.363 29.0725 176.465 29.4363 174.01C29.4363 173.975 29.4011 173.952 29.4011 173.906C28.9552 172.4 29.0139 170.814 28.7323 169.286C28.4976 168.047 28.7205 166.785 28.2512 165.546C28.04 165.025 27.2539 164.782 27.5707 163.948C28.0048 162.813 27.8757 161.632 26.984 160.718C26.4325 160.162 26.3856 159.722 26.8432 159.097C27.3125 158.46 27.6176 157.788 27.1248 156.966C26.9371 156.653 27.0192 156.167 27.0192 155.762C27.0309 155.056 26.9957 154.407 26.6437 153.736C25.9984 152.52 25.9515 151.154 26.3621 149.868C26.7259 148.757 26.6085 147.703 26.1157 146.742C25.4587 145.457 25.6582 144.206 25.8107 142.875C25.975 141.392 26.5851 140.038 26.7024 138.486C26.8432 136.471 26.2566 134.364 27.207 132.407C27.3243 132.141 27.1248 131.828 26.9723 131.573C26.7024 131.133 26.4326 130.682 26.1275 130.265C25.9046 129.941 25.9163 129.64 26.3035 129.582C27.8054 129.397 27.7115 128.32 27.688 127.266C27.6646 126.259 27.7467 125.367 28.6032 124.557C29.2369 123.955 29.5537 123.051 29.3424 122.009C29.1782 121.234 29.1782 120.33 29.624 119.601C30.3515 118.362 30.8091 116.973 30.7739 115.641C30.7387 114.391 31.2902 113.684 31.912 112.793C32.4166 112.075 33.1675 111.45 33.1675 110.396C33.1675 108.647 34.1179 107.096 34.3174 105.371C34.3643 104.931 34.6811 104.363 35.0331 104.178C35.8896 103.738 36.0656 103.009 36.2885 102.233C36.6406 100.959 36.8987 99.6276 37.4619 98.4582C38.248 96.8256 39.6091 95.5172 40.3131 93.8151C40.4539 93.4909 40.8059 93.352 40.9936 93.1088C41.5686 92.3331 42.7301 92.1362 42.9766 91.1057C43.3286 89.7626 43.7392 88.5468 44.7366 87.4236C45.3702 86.7057 45.687 85.6752 46.5552 85.0731C46.6374 85.0152 46.6843 84.8878 46.7078 84.772C46.919 83.8805 47.5643 83.3363 48.2917 82.8615C48.6672 82.6415 48.8901 82.3405 49.0075 81.9236C49.0661 81.6458 49.2421 81.2289 49.4416 81.1942C51.1077 80.8816 51.5301 79.3068 52.4453 78.2648C53.1259 77.5121 53.5835 76.5627 54.1467 75.7058C55.2496 74.409 56.5872 73.2974 57.3264 71.7226C57.3147 71.5952 57.3499 71.4563 57.4085 71.3289C57.4085 71.4563 57.3499 71.5836 57.3264 71.7226C58.1712 71.4678 59.1333 71.4678 59.6496 70.5879C59.9195 70.1247 60.4475 69.9163 60.7408 69.5805C61.5974 68.5847 62.3483 67.5079 63.3691 66.6626C63.4395 66.6163 63.4043 66.4542 63.416 66.3384C64.4603 65.5163 65.4928 64.6942 66.5372 63.8721C68.1212 62.2395 69.8461 60.7805 71.7586 59.5417C72.4039 59.1249 72.9436 58.5807 73.3191 57.9786C74.3399 56.2997 76.0999 55.4313 77.4843 54.1925C79.1153 52.722 81.4033 52.0156 82.5414 49.9315C82.6822 49.6767 83.1985 49.4567 83.527 49.4799C84.9702 49.6188 85.7211 48.5536 86.6833 47.8473C86.7655 47.7778 86.8476 47.7083 86.9297 47.6504C87.3521 47.4999 87.7628 47.3725 88.2204 47.3841C88.6545 47.3957 89.1356 47.4652 89.3468 46.921C89.511 46.7704 89.6636 46.6199 89.8279 46.481C91.1655 45.6473 92.7025 45.1031 93.6762 43.7831C93.9813 43.8178 94.1338 43.5863 94.3685 43.4821C95.401 42.9726 96.0464 41.6642 97.5014 41.9884C97.607 42.0115 97.7478 41.861 97.8886 41.8031C99.2497 41.1431 100.775 40.7958 101.972 39.8115C102.723 39.1979 103.661 39.221 104.53 39.0126C104.659 39.0126 104.8 38.9779 104.952 38.8968L104.964 38.8852C105.586 38.48 106.407 38.9663 107.017 38.4684C107.569 37.901 108.249 37.6926 109.024 37.7737C109.387 37.6926 109.739 37.4958 110.033 37.3221C111.065 36.7316 112.285 36.9747 113.342 36.4768C114.21 36.06 115.184 35.9326 116.134 35.7126C117.296 35.4579 118.938 35.7937 119.302 33.9874C119.337 33.8253 119.56 33.8485 119.678 33.9527C120.147 34.3579 120.558 34.0916 120.874 33.8021C121.602 33.1074 122.365 33.0727 123.186 33.5706C124.148 34.1495 124.934 34.0453 125.802 33.2695C126.366 32.7485 127.21 32.6095 128.02 32.6558C128.63 32.5864 129.299 33.1306 129.839 32.459C131.352 32.459 132.854 32.0537 134.379 32.4359C134.954 32.5748 135.494 32.3895 135.928 31.9958C136.268 32.2506 136.667 32.2043 137.066 32.2158C137.231 32.2737 137.418 32.3316 137.559 32.3316C138.861 32.6327 140.223 32.6211 141.431 32.2737C142.429 31.9843 143.438 32.1116 144.411 31.9148C145.01 31.7874 145.69 31.4517 146.512 31.6601C147.673 31.9495 148.929 31.9727 150.137 32.1927C150.783 32.3085 151.545 32.3895 152.202 32.0074C152.742 32.0306 153.258 31.9264 153.751 31.7527C154.831 31.7296 155.922 31.7411 156.919 32.0653C157.729 32.3317 158.503 32.4706 159.336 32.4359C159.747 32.4243 160.122 32.5401 160.51 32.679C161.483 33.0379 162.504 33.3043 163.572 32.9916C164.135 32.8295 164.616 32.9916 165.168 33.2116C166.282 33.6632 167.467 34.0222 168.711 33.5822C169.239 33.5359 169.392 34.1032 169.826 34.2306C170.142 34.3927 170.412 34.6127 170.811 34.6821C172.137 34.879 173.463 34.96 174.789 34.8906C175 34.9716 175.211 35.0527 175.422 35.1337C175.563 35.6548 175.962 35.9558 176.361 36.2569C176.795 36.6042 177.229 36.1063 177.663 36.2569C177.64 36.2916 177.605 36.3148 177.581 36.3611C177.487 37.1253 178.086 37.1948 178.59 37.2527C179.177 37.3221 179.67 37.426 180.092 37.8776ZM217.053 48.4955H217.041C217.029 48.4955 217.029 48.484 217.029 48.484C217.029 48.484 217.041 48.484 217.053 48.4955ZM257.942 169.576C257.931 169.553 257.919 169.507 257.895 169.484C257.931 169.507 257.954 169.518 257.989 169.542C257.966 169.553 257.966 169.565 257.942 169.576ZM243.017 78.5434C243.041 78.555 243.053 78.5666 243.076 78.5782C243.053 78.5897 243.041 78.6013 243.017 78.6129V78.5434ZM258.658 94.6959C258.658 94.6843 258.646 94.6843 258.634 94.6843C258.646 94.6727 258.646 94.6727 258.658 94.6727V94.6959ZM260.664 101.342C260.641 101.331 260.629 101.331 260.617 101.331C260.617 101.296 260.617 101.273 260.629 101.25C260.641 101.273 260.641 101.307 260.664 101.342ZM259.514 99.3274H259.526C259.526 99.3274 259.526 99.339 259.538 99.339H259.526L259.514 99.3274ZM260.429 103.345H260.406L260.418 103.334C260.418 103.334 260.429 103.334 260.429 103.345H260.441C260.441 103.357 260.441 103.357 260.429 103.369V103.345ZM256.381 93.0866L256.358 93.0982C256.358 93.0866 256.381 93.075 256.381 93.0635V93.0866ZM260.664 108.695C260.652 108.706 260.652 108.718 260.641 108.73V108.718L260.652 108.706C260.652 108.695 260.664 108.695 260.664 108.695ZM256.816 179.776C256.827 179.787 256.839 179.799 256.863 179.811L256.816 179.834C256.816 179.845 256.827 179.868 256.827 179.892C256.816 179.88 256.804 179.868 256.792 179.868C256.804 179.857 256.804 179.845 256.816 179.834V179.776ZM246.443 204.439C246.479 204.45 246.502 204.45 246.537 204.462C246.526 204.473 246.526 204.497 246.514 204.497C246.49 204.485 246.479 204.462 246.443 204.439ZM41.5082 74.907C41.52 74.9186 41.5317 74.9186 41.5317 74.9302H41.52C41.52 74.9186 41.5082 74.9186 41.5082 74.907ZM28.3435 76.2038C28.2966 76.1459 28.2262 76.0649 28.1323 75.9954C28.2731 76.0302 28.3435 76.0996 28.3435 76.2038ZM65.2323 38.9559C65.2323 38.9212 65.2205 38.898 65.2323 38.8749C65.2323 38.898 65.244 38.9212 65.2557 38.9444C65.244 38.9444 65.244 38.9559 65.2323 38.9559ZM17.7824 178.424C17.7941 178.435 17.7941 178.447 17.7941 178.47C17.7707 178.458 17.7589 178.435 17.7355 178.435C17.7472 178.424 17.7589 178.424 17.7824 178.424ZM25.9018 187.467C25.8783 187.455 25.8901 187.42 25.8783 187.409H25.937C25.9135 187.42 25.9135 187.444 25.9018 187.467ZM22.7923 97.7202C22.851 97.5813 22.8745 97.4076 22.9097 97.2339C23.1561 97.3729 23.0739 97.535 22.7923 97.7202ZM17.3364 121.758C17.3246 121.746 17.3364 121.723 17.3246 121.7C17.3481 121.688 17.3716 121.688 17.4068 121.677C17.3716 121.7 17.3598 121.735 17.3364 121.758ZM17.5358 136.127V136.139C17.5358 136.127 17.5358 136.127 17.5241 136.127H17.5358ZM20.3753 125.996C20.3166 126.031 20.2579 126.042 20.1875 126.007C20.2462 126.007 20.3283 126.007 20.3753 125.996ZM18.0404 159.307V159.296L18.0521 159.307H18.0404ZM20.4457 125.972C20.434 125.984 20.4222 125.984 20.4222 125.984C20.434 125.984 20.434 125.972 20.4457 125.972ZM20.4105 121.48C20.4222 121.445 20.4105 121.422 20.4105 121.399C20.434 121.41 20.4574 121.399 20.4809 121.422C20.4457 121.445 20.4457 121.468 20.4105 121.48ZM11.7396 126.632C11.6458 126.563 11.5754 126.482 11.4815 126.412C11.5754 126.47 11.6575 126.551 11.7396 126.632ZM25.9956 87.425C26.0308 87.3903 26.0777 87.3556 26.1247 87.3208C26.0895 87.3787 26.0425 87.4019 25.9956 87.425ZM40.3219 53.5572C40.2984 53.453 40.3454 53.3835 40.4392 53.3372C40.3923 53.4067 40.3688 53.4877 40.3219 53.5572ZM33.9741 72.8013C33.9858 72.7897 34.0093 72.8013 34.021 72.8013C34.0093 72.8128 33.9976 72.8244 33.9858 72.8476C33.9858 72.8244 33.9741 72.8128 33.9741 72.8013ZM36.8957 63.0287C36.9075 63.0518 36.9192 63.075 36.9192 63.0981C36.8957 63.0865 36.8722 63.0865 36.8488 63.0634C36.8605 63.0518 36.884 63.0402 36.8957 63.0287ZM40.0169 70.6822C40.0286 70.7169 40.0286 70.7516 40.0404 70.7864C40.0286 70.7516 40.0169 70.7169 40.0169 70.6822ZM59.4237 59.0916C59.4119 59.1148 59.3885 59.1264 59.3767 59.1379C59.365 59.1264 59.3767 59.1032 59.3767 59.08C59.3885 59.08 59.4002 59.0916 59.4237 59.0916ZM99.3282 26.8562C99.3282 26.8562 99.3282 26.8677 99.3164 26.8677H99.3047L99.3399 26.833C99.3399 26.8446 99.3282 26.8446 99.3282 26.8562ZM106.931 26.0456C106.943 26.0341 106.955 26.0341 106.966 26.0341V26.0572C106.955 26.0456 106.943 26.0456 106.931 26.0456ZM85.6117 44.016C85.6117 43.9928 85.5999 43.9812 85.5999 43.9581C85.6234 43.9697 85.6351 43.9697 85.6703 43.9812C85.6469 43.9928 85.6351 44.0044 85.6117 44.016ZM165.739 27.1107C165.657 27.0412 165.61 26.9254 165.575 26.8096C165.622 26.9138 165.68 27.0065 165.739 27.1107ZM158.441 270.046V270.092C158.253 271.273 157.526 271.771 156.493 271.713C156.235 271.899 155.813 272.014 155.156 272.003C154.639 271.991 154.299 272.142 154.311 272.524C154.311 272.813 154.98 273.207 154.158 273.381C153.349 273.543 152.785 273.114 152.574 272.732C152.152 272.003 149.359 271.713 151.448 270.474C151.694 269.27 153.912 268.772 153.982 267.476C153.994 267.244 154.545 267.209 154.968 267.267C154.886 267.232 154.804 267.198 154.721 267.163C154.158 266.955 153.56 266.885 153.243 266.271C153.126 266.075 152.774 265.855 152.574 266.132C151.647 267.371 149.887 267.36 148.937 268.61C149.136 269.108 150.016 268.46 150.146 269.189C150.251 269.814 149.97 270.359 149.84 270.926C149.782 271.204 149.606 271.551 149.219 271.412C148.925 271.308 148.55 271.146 148.82 270.683C148.831 270.648 148.878 270.602 148.867 270.59C148.327 269.942 147.881 269.131 147.189 268.726C146.825 268.506 146.579 269.594 145.886 269.745C145.265 269.896 144.959 270.382 145.487 271.019C145.581 271.134 145.617 271.308 145.441 271.401C145.182 271.528 144.913 271.493 144.701 271.297C144.173 270.776 143.669 270.231 143.153 269.687C142.883 269.595 142.531 269.282 142.366 269.641C142.073 270.254 142.824 270.37 143.082 270.822C142.39 271.273 141.615 271.308 140.841 271.227C140.161 271.169 139.468 271.019 140.102 270.069C140.278 269.815 140.313 269.479 139.996 269.282C139.68 269.085 139.374 268.772 138.976 268.9C138.624 269.016 138.459 269.27 138.6 269.687C138.706 270.011 138.436 270.243 138.201 270.428C138.002 270.59 137.802 270.718 137.732 271.007C137.638 271.436 138.213 272.096 137.661 272.211C136.441 272.466 135.502 273.589 134.094 273.23C132.851 272.906 131.56 273.103 130.281 273.033C129.554 272.999 128.873 273.115 128.298 272.362C127.747 271.656 126.644 271.575 125.858 271.54C124.614 271.505 123.335 271.424 122.267 270.949C120.942 270.359 119.311 270.915 118.161 269.78C118.043 269.652 117.691 269.641 117.515 269.71C115.439 270.671 113.854 269.687 112.376 268.402C111.778 267.869 111.18 267.881 110.522 268.182C109.009 268.888 107.648 268.136 106.263 267.719C105.993 267.626 105.735 267.371 105.454 267.568C104.738 268.089 104.163 267.823 103.694 267.267C102.79 266.202 101.3 266.109 100.291 265.218C99.7982 264.778 99.4344 265.368 99.1411 265.588C97.7097 266.711 97.3811 266.769 95.8911 265.75C95.8324 265.727 95.7855 265.646 95.7268 265.623C95.0345 265.357 94.4009 264.465 93.7439 265.855C93.2863 266.827 92.3241 266.075 91.538 265.982C89.5668 265.75 88.6399 263.77 86.7978 263.33C86.2698 263.203 86.481 262.566 86.4458 262.149C86.4106 261.767 86.5749 261.304 85.9413 261.2C85.5072 261.13 85.0847 260.91 84.8149 261.513C84.6272 261.906 84.3455 261.837 83.9935 261.605C83.1839 261.061 82.081 261.281 81.4709 262.022C80.9546 262.659 79.664 262.497 79.3706 261.744C79.1946 261.293 79.0069 260.876 78.6432 260.517C77.6458 259.579 77.5402 258.189 76.9653 257.031C76.801 256.684 76.8362 256.233 76.7189 255.85C76.3552 254.542 75.9562 254.38 74.736 254.947C74.2784 255.156 73.6917 255.723 73.328 255.271C72.976 254.843 72.6592 254.102 73.1637 253.454C73.3632 253.187 73.3397 252.933 73.2106 252.62C72.624 251.184 72.0725 249.737 71.5093 248.301C71.216 248.046 71.3216 247.525 70.8522 247.386C70.5237 247.074 70.16 246.657 69.7962 247.294C69.3387 248.104 68.7989 247.838 68.3296 247.41C67.8954 247.027 67.6021 246.97 67.0859 247.329C66.2411 247.919 65.2554 247.595 64.7744 246.68C64.704 246.553 64.7157 246.321 64.6219 246.275C63.5072 245.742 63.6128 244.746 63.5307 243.785C63.4955 243.392 63.1317 243.206 62.7093 243.149C61.7003 243.021 60.7968 242.824 60.3627 241.678C60.2101 241.261 60.0576 241.03 60.3509 240.624C60.6208 240.231 60.4213 239.837 60.0576 239.548C59.6587 239.235 59.4357 239.582 59.2245 239.825C58.8843 240.184 58.4854 240.277 58.0043 240.265C57.0422 240.231 56.8075 240.694 57.1595 241.528C57.312 241.91 57.4997 242.28 57.6054 242.674C57.7814 243.322 57.1126 243.461 56.7723 243.681C56.3616 243.936 56.3147 243.45 56.1504 243.172C55.7281 242.454 55.5638 241.632 55.0358 240.972C54.543 240.346 55.0475 240.045 55.5755 239.837C56.8897 239.304 57.0304 238.749 56.1505 237.649C55.7281 237.128 55.5051 236.56 55.9393 235.912C56.2678 235.414 56.0097 234.939 55.6929 234.615C55.3526 234.279 54.8715 234.071 54.3553 234.383C54.1558 234.499 53.9564 234.58 53.7569 234.684C52.9473 235.113 52.2785 235.356 52.5249 233.955C52.6891 233.087 51.7387 232.971 51.3164 232.508C50.9291 232.091 50.5772 232.566 50.2721 232.809C50.0374 232.994 49.7206 233.272 49.4859 233.006C48.4652 231.859 46.8929 231.153 46.5409 229.462C46.4939 229.266 46.447 229.08 46.6347 228.965C46.8107 228.86 46.9867 228.93 47.151 229.046C47.4444 229.242 47.6438 229.682 48.1014 229.451C48.3009 229.347 48.2774 229.092 48.1484 228.965C47.8316 228.629 47.6086 227.957 47.0572 228.189C46.0833 228.606 46.0129 227.865 45.7548 227.343C45.5905 227.019 45.4967 226.579 45.0039 226.695C44.4524 226.811 44.7457 227.181 44.8161 227.482C44.8983 227.83 44.7457 228.142 44.4055 228.166C43.678 228.2 43.1031 228.42 42.7745 229.138C42.6924 229.335 42.4577 229.254 42.3052 229.127C42.1292 228.976 41.9415 228.733 41.7654 228.733C40.6038 228.745 40.5569 228.189 41.0145 227.286C40.4279 227.726 39.5596 227.633 39.3601 228.525C39.2897 228.86 38.9025 228.976 38.6092 228.849C37.9169 228.525 37.4476 229.219 36.8023 229.161C36.5324 229.138 36.5089 229.451 36.5911 229.682C36.6967 229.96 36.8257 230.261 36.6497 230.539C36.4033 230.956 36.4033 231.755 35.758 231.651C35.1009 231.547 35.5468 230.945 35.5937 230.539C35.6289 230.111 35.4177 229.787 35.0423 229.659C34.5495 229.486 33.9745 229.381 33.5521 229.763C33.2588 230.018 32.9772 230.366 32.942 230.794C32.9303 230.852 33.0007 230.979 33.0242 230.979C34.9602 231.095 33.2002 232.461 33.7399 233.121C33.998 233.434 33.4583 233.828 32.9655 233.781C32.4023 233.712 31.7335 233.584 31.8039 232.867C31.8626 232.288 31.7335 232.102 31.2172 231.906C30.6658 231.697 30.4194 231.188 30.8183 230.632C31.0647 230.296 31.0178 230.065 30.7479 229.775C30.4429 229.416 30.1613 229.462 29.774 229.625C28.5772 230.146 28.4717 230.076 28.0962 228.826C27.9085 228.212 27.6855 227.621 27.4274 227.054C27.2983 226.765 27.0402 226.336 26.6765 226.545C25.421 227.228 25.5266 226.174 25.4679 225.595C25.4093 224.912 25.1511 224.402 24.5879 224.159C22.6871 223.302 22.0887 221.357 20.8333 219.956C20.3639 219.435 20.4461 218.694 20.1645 218.103C19.437 216.529 18.205 215.325 16.973 214.12C16.6797 213.831 16.3159 213.634 16.4567 213.124C16.5858 212.696 16.2221 212.418 16.0109 212.152C15.1426 211.063 14.5794 209.859 14.333 208.481C14.2157 207.856 13.7111 207.393 13.2653 206.941C12.4087 206.073 11.7986 205.135 11.8455 203.803C11.8925 202.495 10.7778 201.592 10.238 200.48C9.95645 199.901 9.55753 199.38 9.36979 198.732C9.19379 198.13 8.97087 197.47 8.5602 197.03C7.90313 196.335 7.60979 195.64 7.93834 194.726C8.07914 194.32 7.72714 194.124 7.49246 193.904C6.89406 193.325 6.49514 192.734 6.85886 191.831C6.99965 191.484 7.01139 191.02 6.69459 190.673C5.20447 189.006 4.74685 186.91 4.26581 184.826C4.17194 184.432 4.06634 184.004 4.7586 183.98C5.357 183.969 5.48607 183.529 5.14581 183.158C4.67648 182.672 4.61781 182.128 4.65302 181.526C4.67648 181.097 4.46528 180.831 4.07807 180.669C3.23328 180.31 2.91647 179.685 2.71702 178.793C2.38848 177.299 1.63755 175.887 1.68449 174.301C1.68449 174.231 1.66103 174.138 1.6141 174.092C0.522902 172.888 1.43809 171.672 1.43809 170.445C1.44983 168.858 2.18903 167.029 0.886641 165.535C0.288239 164.852 0.827975 163.903 0.37036 163.197C-0.204583 162.305 0.159162 161.633 0.792744 160.985C1.00395 160.777 1.29728 160.406 1.0978 160.221C0.26475 159.41 0.534604 158.322 0.428993 157.407C0.323394 156.458 -0.333683 155.485 0.217795 154.489C0.487662 153.991 0.19433 153.54 0.112196 153.088C-0.181136 151.502 0.569784 149.927 0.159129 148.341C0.0887281 148.086 0.206063 147.704 0.382063 147.507C1.09779 146.685 1.59058 145.921 0.569796 144.96C0.288197 144.682 0.687127 144.358 0.769261 144.057C0.980459 143.373 1.52019 142.702 0.663662 141.996C0.382063 141.776 0.276452 141.058 0.417261 140.676C0.968715 139.159 0.534595 137.549 0.992204 136.032C1.26207 135.141 0.44075 134.4 0.522872 133.462C0.651939 132.061 0.745805 130.671 1.71968 129.56C2.09514 129.143 2.1186 128.923 1.77834 128.448C0.89834 127.279 1.10953 126.144 2.27113 125.264C2.56447 125.033 2.6818 124.847 2.45887 124.535C1.485 123.064 2.00128 121.547 2.34153 120.054C2.38847 119.822 2.67008 119.625 2.56447 119.348C2.07167 118.004 3.09246 117.066 3.52659 116.001C3.81992 115.272 4.18365 114.716 3.62046 113.975C3.069 113.245 3.60872 112.724 4.24232 112.759C5.67377 112.852 5.25139 111.891 5.01671 111.37C4.54738 110.304 4.30098 109.378 5.20444 108.417C5.56816 108.035 4.94631 107.502 5.33351 106.958C5.81458 106.275 6.33083 105.893 7.18738 106.009C7.15218 105.522 6.72979 105.383 6.53031 105.082C6.09618 104.457 5.41566 103.832 6.61245 103.241C6.96445 103.068 7.04658 102.686 6.96445 102.269C6.74152 101.215 6.94099 100.416 8.1026 99.9299C8.63059 99.6983 9.00606 99.2467 9.08818 98.4015C9.14684 97.7183 9.20551 96.9425 9.39324 96.2362C9.60443 95.4373 9.80391 94.731 9.00603 94.1405C8.85349 94.0363 8.70097 93.7236 8.85349 93.6889C9.69829 93.4805 9.82736 92.4616 10.6604 92.2531C10.8951 92.1836 11.2471 92.1026 11.3409 91.9173C12.1505 90.2268 14.2039 89.8679 15.1542 88.3627C15.6705 87.5406 15.999 86.5911 16.3979 85.7111C16.4918 85.5143 16.5504 85.2017 16.6912 85.1438C17.9115 84.7038 17.7824 83.7196 17.7707 82.747C17.759 82.3417 17.8528 81.7859 18.4395 82.1333C19.12 82.527 19.2374 82.0175 19.5894 81.7049C20.704 80.7438 20.4342 79.1807 21.2555 78.104C20.4342 76.5409 21.6896 76.3903 22.6518 75.7651C23.4144 75.2672 23.696 74.1556 23.1328 73.1483C22.9803 72.882 22.8747 72.5925 23.1446 72.3262C23.4027 72.0599 23.696 72.1409 23.9659 72.303C24.623 72.743 25.151 72.3493 25.5968 72.002C26.1131 71.5967 25.9489 70.9714 25.7963 70.4504C25.4326 69.1073 26.0075 68.2968 27.4155 68.3083C27.9904 68.3083 28.1547 68.0073 28.143 67.5441C28.143 66.7915 28.3542 66.421 29.2342 66.7104C29.9499 66.942 30.3019 66.722 30.0086 65.8652C29.8208 65.3325 29.9264 64.7768 29.5744 64.1978C29.1168 63.4568 30.2197 63.8157 30.3958 63.4336C30.3488 62.4263 30.6891 61.3726 29.6918 60.5389C29.2928 60.2031 29.551 59.7631 30.079 59.6705C30.3958 59.6242 30.7478 59.6821 31.0645 59.7631C31.4752 59.8442 31.968 60.0526 32.2144 59.6589C32.4725 59.2421 31.9445 59.0337 31.6747 58.8484C31.2288 58.5358 31.3696 58.2 31.6981 58.0842C32.3082 57.8642 32.3082 57.4126 32.4491 56.9263C32.6133 56.3706 32.8597 55.8032 33.5285 55.6179C33.6693 55.5716 33.8336 55.5021 33.904 55.3979C34.8661 53.8695 36.6731 53.1401 37.6001 51.5537C37.8817 51.0674 38.4214 50.72 38.879 50.3495C39.3484 49.9558 39.3718 49.5158 38.879 49.2727C37.7878 48.74 38.3979 48.0569 38.8438 47.7211C39.5243 47.2116 39.8059 46.54 40.0875 45.8569C40.3222 45.2895 40.5803 45.2316 41.1083 45.4053C42.3051 45.7874 42.8097 45.4285 42.8214 44.2127C42.8331 43.4138 43.0913 42.9159 43.983 42.9159C44.2294 42.9159 44.687 42.8811 44.5696 42.6148C44.0534 41.4106 45.5552 41.1675 45.6491 40.2412C45.6726 39.8823 46.1185 40.1022 46.3766 40.2759C47.2331 40.8664 47.8902 40.9822 48.9579 40.2759C50.0491 39.558 51.5862 39.257 52.9003 40.2528C53.1819 40.4612 53.44 40.4843 53.7334 40.3338C53.8976 40.2412 54.1206 40.0675 54.2379 40.1138C54.9888 40.4149 55.7867 40.9706 55.7163 39.4422C55.7046 39.3265 56.1974 39.3612 56.3851 39.7201C56.9952 40.8549 58.1803 40.9591 59.0838 40.0212C59.5531 39.5349 59.1894 39.3264 58.8022 39.1065C58.4267 38.8865 57.6992 38.6086 57.887 38.2959C58.2272 37.7286 58.4032 36.9991 59.0368 36.617C59.4357 36.3623 59.6704 36.6633 59.8934 36.9065C60.304 37.3812 60.7851 37.3001 60.9846 36.8486C61.4656 35.7949 62.2869 34.7297 61.4539 33.4676C61.3835 33.375 61.4187 33.2013 61.407 33.0624C61.888 32.8424 61.9936 33.3287 62.287 33.4213C62.6507 33.5371 63.167 33.8381 63.0144 33.0276C62.9675 32.7382 62.9558 32.4718 63.343 32.495C63.648 32.495 63.8123 32.7266 63.8241 33.016C63.8241 33.2245 63.7654 33.456 63.6715 33.6529C63.519 34.0002 63.3547 34.3244 63.6481 34.6834C63.8123 34.8918 64.047 34.9381 64.2347 34.7876C64.5984 34.4866 65.0913 34.255 65.1265 33.6992C65.2203 32.1708 65.2321 32.1939 66.8513 32.4024C67.4027 32.4718 68.095 32.7034 68.3766 31.8697C68.5643 31.3023 68.7755 30.6539 69.6086 30.9782C70.1014 31.175 70.031 31.6729 69.4443 32.4718C70.2539 32.6687 71.0518 32.5066 71.8614 32.4603C73.1755 32.3792 72.5889 31.0245 73.2225 30.4919C73.6684 30.9087 72.7414 31.4876 73.4571 31.6729C74.1729 31.8582 74.9473 31.9392 75.6513 31.5803C75.8742 31.4645 76.0619 31.2561 76.2614 31.094C76.8598 30.5613 76.6721 29.7045 77.1179 29.0908C77.3057 28.813 76.9771 28.5698 76.6955 28.4193C76.4022 28.2572 76.1323 28.1877 75.9094 28.5119C75.7451 28.7435 75.6513 29.1256 75.2641 28.9982C74.9473 28.8824 74.6188 28.6277 74.5953 28.2919C74.5718 27.8172 75.0177 28.0256 75.2758 27.9909C76.4726 27.8172 77.5403 27.4814 78.0683 26.254C78.2795 25.7446 78.6902 25.4782 79.2182 25.4088C79.3942 25.814 79.1478 25.9183 79.007 26.0688C78.7019 26.3698 78.3734 26.6593 78.8545 27.0646C79.2769 27.4119 79.8401 27.4582 80.0395 27.0067C80.9664 24.853 83.0784 25.9646 84.5568 25.3741C84.9323 25.2351 85.4486 25.6635 86 25.7098C87.3611 25.8025 88.2646 24.853 89.4378 24.5751C89.7781 24.4941 89.8837 24.2046 89.6138 23.8804C89.473 23.7067 89.2852 23.5562 89.2031 23.3593C88.9685 22.8151 88.3114 22.3172 88.7925 21.6572C89.2383 21.032 89.9306 21.2636 90.5407 21.4372C90.8693 21.5183 91.1743 21.4836 91.3855 21.2867C91.7844 20.9393 92.0074 20.2794 92.7818 20.7772C92.9108 20.8583 93.5914 20.4993 93.122 20.0593C92.7583 19.7004 92.8052 19.5267 93.1924 19.3067C93.65 19.0404 93.9668 19.2835 94.0372 19.6772C94.178 20.4299 94.2015 21.2056 94.9642 19.9667C95.1402 19.6657 95.4804 19.7004 95.762 19.9088C96.114 20.1867 96.5247 20.3372 96.8649 19.9667C97.17 19.6309 97.2521 19.2025 97.0292 18.7278C96.8884 18.473 96.5129 18.172 96.9001 17.8593C97.1935 17.6162 97.5455 17.8709 97.8505 17.8709C99.0239 17.8825 100.244 18.5309 101.371 17.6509C101.699 17.3962 101.992 17.7436 102.298 17.8593C102.685 17.9867 102.978 17.9172 103.107 17.5236C103.213 17.1762 102.99 16.9909 102.673 16.852C102.321 16.6899 101.699 16.7709 101.699 16.2962C101.676 15.7057 102.344 15.6825 102.779 15.5089C103.307 15.2889 104.198 15.5783 104.468 16.0299C104.539 16.1573 104.632 16.3078 104.75 16.3541C105.137 16.5047 105.348 17.2573 105.853 16.8868C106.322 16.5394 105.9 16.0299 105.688 15.7057C105.29 15.0805 105.477 14.872 106.099 14.5478C107.754 13.691 109.584 13.1815 111.168 12.1742C111.637 11.8732 111.778 12.2784 111.931 12.5331C112.212 13.0079 112.506 13.1699 113.022 12.811C113.808 12.2668 114.207 13.1699 114.805 13.3436C115.345 13.5058 115.709 13.8878 116.401 13.4826C117.258 12.9731 117.95 13.5984 117.856 14.6173C117.809 15.1847 117.95 15.7752 117.457 16.3541C118.572 16.2499 119.44 16.1457 119.722 14.9878C119.827 14.5478 120.214 14.3742 120.801 14.5826C121.963 15.011 122.784 14.2815 122.502 13.1121C122.408 12.7416 122.514 12.5447 122.76 12.3479C123.077 12.0931 123.195 12.3479 123.382 12.5447C123.91 13.0889 124.157 12.6837 124.344 12.2205C124.532 11.7805 124.673 11.3173 124.849 10.8774C124.955 10.6342 125.178 10.5879 125.424 10.6226C125.647 10.6689 125.799 10.8542 125.706 11.0163C125.154 11.8847 125.764 13.3437 124.075 13.691C125.541 14.0731 126.128 13.6678 126.21 12.4289C126.234 12.151 126.398 11.7342 126.55 11.8152C127.325 12.2437 128.357 11.1668 128.991 12.2437C129.226 12.6605 129.542 12.6026 129.941 12.3942C131.22 11.711 132.546 11.3405 133.966 12.0584C134.494 12.3247 134.975 12.0237 135.479 11.8384C136.324 11.5142 136.969 11.7458 137.11 12.6952C137.192 13.2394 137.521 13.2973 137.908 13.251C138.835 13.17 139.257 13.7373 139.785 14.3742C140.407 15.15 141.006 15.8331 141.193 16.852C141.322 17.5699 142.097 16.991 142.543 17.2226C142.848 17.3731 143.071 17.0373 143.153 16.7247C143.376 15.9141 143.364 15.0921 144.35 14.5826C145.042 14.2121 145.007 13.251 144.972 12.4405C144.936 11.2479 146.215 10.1942 147.436 10.3795C148.022 10.4605 148.492 10.7616 148.245 11.4215C148.022 12.0352 148.351 12.3826 148.761 12.6142C149.454 13.0194 149.806 13.5173 149.747 14.3278C149.735 14.6057 149.853 14.9415 150.029 15.1615C150.439 15.671 150.275 15.9604 149.829 16.3541C149.219 16.8867 149.348 17.512 150.146 17.732C151.026 17.9635 151.706 18.9825 152.809 18.3804C153.466 18.033 153.912 17.3962 154.698 17.1993C155.015 17.1183 154.91 16.7709 154.628 16.6088C154.311 16.412 153.948 16.273 153.654 16.0414C153.349 15.7867 153.42 15.4509 153.631 15.1383C153.877 14.7909 154.065 15.0109 154.264 15.1962C154.499 15.4162 154.745 15.5898 155.062 15.3814C155.449 15.1267 155.461 14.6867 155.297 14.3856C154.886 13.6214 155.074 12.973 155.25 12.1741C155.485 11.1667 154.874 10.171 154.311 9.29095C154.041 8.87413 153.854 9.30254 153.619 9.46464C153.244 9.73095 152.938 10.1941 152.375 10.0552C152.305 10.032 152.223 9.77727 152.258 9.67305C152.422 9.11727 152.727 8.58463 153.29 8.43411C154.077 8.23727 154.91 8.14464 155.602 8.81622C156.13 9.32571 156.658 9.82357 157.256 10.2752C157.89 10.7499 157.092 10.9004 156.728 11.0278C155.637 11.4215 155.438 11.8383 155.989 12.7183C156.47 13.4941 157.35 13.5056 157.749 12.6836C158.207 11.7688 158.793 11.4099 159.791 11.8615C160.307 12.0931 160.636 11.7457 160.964 11.4215C161.269 11.0973 161.562 10.7499 162.102 10.8194C162.337 10.8425 162.548 10.8773 162.689 11.0857C162.841 11.3404 162.654 11.5025 162.513 11.6646C162.114 12.1162 161.809 12.7646 161.304 12.9499C160.014 13.4362 159.802 14.4088 159.744 15.5551C159.72 15.8562 159.92 15.9256 160.084 16.0646C160.518 16.4351 160.964 16.7941 160.694 17.4657C160.612 17.6509 160.6 17.8709 160.847 17.9057C162.149 18.1257 162.302 19.2141 162.618 20.1751C162.959 21.2056 163.487 21.4951 164.331 20.9624C166.244 19.7814 169.717 21.3446 170.221 23.3361C170.386 23.9961 170.738 24.2393 171.313 24.4129C172.439 24.7719 173.237 25.6519 174.234 26.2308C174.34 26.2887 174.422 26.474 174.422 26.6013C174.457 28.5234 175.842 29.3108 177.332 29.9823C177.743 30.1675 178.118 30.3296 178.153 30.7812C178.271 32.0896 179.139 32.9233 179.984 33.7801C180.218 33.7801 180.43 33.7801 180.664 33.7685C181.216 33.0158 181.814 33.5601 182.319 33.7916C183.034 34.1159 183.656 34.4864 184.536 34.3011C185.123 34.1738 185.651 34.6485 186.12 35.0306C186.496 35.3432 186.883 35.6211 187.27 35.9106C187.821 36.3274 188.361 36.1653 188.819 35.818C190.074 34.8453 190.145 34.8685 191.295 35.8874C192.362 36.8253 193.747 37.2885 195.061 37.7169C196.082 38.0411 196.786 38.5506 197.361 39.3379C197.724 39.8474 198.135 40.2527 198.757 40.3569C199.707 40.5306 199.954 41.7347 201.068 41.7811C201.643 41.8042 202.195 42.3021 202.875 42.279C203.286 42.2674 203.544 42.58 203.708 42.939C205.034 43.9232 206.278 45.1505 208.19 44.7221C208.507 44.6411 209.023 44.5947 209.141 44.9074C209.669 46.3663 211.03 45.9379 212.062 46.2505C212.321 45.9379 212.59 46.1 212.872 46.1926C213.165 46.2852 213.635 46.3663 213.729 46.181C214.268 45 216.005 46.181 216.345 44.8842C216.568 44.0737 217.166 43.5063 217.495 42.7884C217.753 42.2327 218.175 42.0011 218.739 42.1169C219.255 42.2211 219.924 42.2327 219.759 43.0895C219.701 43.46 219.982 43.6916 220.217 43.9347C220.393 44.12 220.663 44.2937 220.581 44.5832C220.1 46.2968 221.203 47.6748 221.672 49.1569C221.907 49.9327 223.092 49.7474 223.819 50.06C224.605 49.238 225.556 49.2495 226.53 49.62C227.21 49.8864 227.773 50.2916 227.433 51.1716C227.363 51.2527 227.292 51.3221 227.21 51.4032C227.187 51.4611 227.14 51.5306 227.116 51.6C227.046 51.9821 226.412 52.2253 226.717 52.6421C227.034 53.0589 227.644 53.0937 228.078 52.9084C228.911 52.5379 229.322 53.1168 229.686 53.5453C230.765 54.7958 232.384 55.421 233.405 56.7294C233.792 57.2388 234.32 57.262 234.931 57.0883C235.682 56.8683 236.468 56.7757 237.219 56.602C237.7 56.4862 238.087 56.6599 238.345 56.9725C239.202 58.0494 240.434 58.7209 241.36 59.7283C241.712 60.122 242.076 60.5272 241.947 61.0946C241.783 61.8125 242.088 61.963 242.768 62.0093C243.167 62.0209 243.672 62.0556 243.977 62.4841C244.153 62.7156 244.47 62.8777 244.223 63.2367C244.024 63.5146 243.801 63.5377 243.449 63.4335C242.44 63.1441 242.264 63.3409 242.475 64.3598C242.534 64.6493 242.546 64.9504 242.581 65.2399C242.604 65.483 242.675 65.7262 242.909 65.7725C243.238 65.8304 243.179 65.5177 243.273 65.3325C243.602 64.6725 245.549 63.8735 246.218 64.163C246.793 64.4178 247.204 64.8578 247.075 65.5641C246.899 66.4904 247.309 66.4441 247.919 66.0851C248.342 65.8304 248.835 65.7377 249.187 66.0388C249.539 66.3398 249.363 66.7798 249.116 67.1504C248.823 67.5672 249.116 67.6251 249.468 67.683C249.984 67.7641 250.477 67.8683 250.994 67.6367C251.592 67.3704 252.073 67.6019 252.237 68.1809C252.425 68.8177 251.956 69.003 251.381 69.0261C251.017 69.0493 250.653 69.1998 250.29 69.1882C249.961 69.1651 249.609 68.9335 249.421 69.3851C249.28 69.7325 249.339 70.0567 249.679 70.2651C250.031 70.4735 250.548 70.8209 250.782 70.4156C251.193 69.7441 251.346 70.0914 251.615 70.4504C252.272 71.3651 252.988 72.1293 254.291 71.5503C254.361 71.5156 254.572 71.643 254.631 71.7472C254.76 71.9788 254.596 72.0945 254.384 72.1177C253.903 72.1756 253.551 72.4072 253.692 72.9166C253.868 73.5187 254.302 73.0672 254.619 73.044C255.206 72.9977 255.605 73.3219 255.734 73.785C255.839 74.144 255.581 74.7576 256.156 74.7345C256.708 74.6998 257.376 74.7577 257.834 74.2829C258.033 74.0745 258.127 73.7387 258.479 73.7272C258.691 73.7156 258.972 73.6924 259.113 73.8082C259.359 74.005 259.101 74.2019 258.96 74.3524C258.491 74.8619 258.644 75.1513 259.277 75.244C259.782 75.325 260.099 75.6145 259.923 76.0661C259.664 76.8071 259.899 77.4092 260.11 78.1039C260.345 78.9145 260.662 79.7829 259.923 80.6281C259.653 80.9407 259.664 81.5197 259.594 81.9944C259.571 82.226 259.887 82.5502 259.594 82.7007C259.242 82.8744 258.996 82.5502 258.773 82.2839C258.479 81.8902 258.057 81.786 257.705 82.1334C257.282 82.5502 257.799 82.7818 258.022 83.0249C258.538 83.5691 259.078 84.0786 259.617 84.5997C259.758 84.727 259.911 84.9586 260.04 84.947C262.105 84.7039 262.011 86.6723 262.762 87.6681C263.208 88.2586 263.466 89.2196 263.36 90.0996C263.266 90.8175 263.454 91.4427 263.994 91.9059C265.026 92.8206 265.32 94.3259 266.575 95.0669C267.115 95.3911 267.35 95.9237 267.185 96.5143C266.681 98.2974 267.725 99.6868 268.37 101.157C269.074 102.732 269.661 104.295 269.415 106.055C269.368 106.345 269.579 106.68 269.685 106.97C270.095 108.058 269.732 109.297 270.353 110.339C270.424 110.455 270.353 110.71 270.436 110.768C272.066 111.787 271.468 113.593 271.738 114.982C271.984 116.337 271.832 117.808 272.172 119.209C272.219 119.382 272.172 119.626 272.266 119.753C273.721 121.374 274.53 123.458 276.161 124.94C276.314 125.091 276.584 125.311 276.56 125.438C276.244 126.839 277.581 127.256 278.18 128.066C278.895 129.028 279.693 129.896 280.127 131.031C280.198 131.228 280.303 131.482 280.468 131.586C281.406 132.119 281.312 132.791 280.82 133.555C280.597 133.891 280.573 134.226 280.726 134.609C280.796 134.805 280.796 135.083 280.515 135.164C280.221 135.257 280.198 135.002 280.069 134.805C279.482 133.856 278.672 133.092 277.699 132.582C276.889 132.154 276.56 131.598 276.138 130.788C275.422 129.433 275.281 128.101 275.164 126.677C275.082 125.751 273.439 124.813 272.559 125.137C271.433 125.566 271.116 125.137 270.964 124.083C270.87 123.447 271.069 122.451 269.755 122.497C268.277 122.555 268.241 122.462 268.183 123.956C268.148 124.94 267.972 125.843 267.291 126.619C266.329 127.742 266.599 129.039 266.857 130.301C267.139 131.621 266.822 132.108 265.625 132.849C264.921 133.289 264.698 134.238 264.017 134.771C263.947 134.852 263.877 134.921 263.806 135.002C263.396 135.917 263.184 136.867 262.973 137.851C262.715 139.067 262.539 140.178 263.419 141.174C263.712 141.521 263.888 141.834 263.736 142.285C263.29 143.698 264.088 145.157 263.642 146.523C263.196 147.913 263.126 149.256 263.302 150.68C263.431 151.745 262.938 152.764 262.739 153.806C262.574 154.64 262.316 155.439 262.023 156.203C261.823 156.713 261.683 157.153 261.776 157.662C261.988 158.739 261.941 159.746 261.354 160.742C260.838 161.611 261.061 162.398 262.011 162.884C262.891 163.336 262.762 164.123 262.621 164.829C262.527 165.362 262.504 165.825 262.656 166.346C262.785 166.786 262.809 167.192 262.586 167.701C262.211 168.569 262.915 169.137 263.595 169.565C264.933 170.399 265.472 172.935 264.604 174.278C264.381 174.613 264.111 174.648 263.771 174.718C262.398 175.019 261.917 176.038 262.492 177.323C262.586 177.52 262.633 177.728 262.68 177.948C262.868 178.701 263.102 179.106 263.971 178.492C264.921 177.809 265.285 178.296 265.742 179.349C266.399 180.831 265.86 182.672 267.467 183.876C268.195 184.421 268.101 185.602 267.455 186.354C265.754 188.311 265.472 190.581 265.555 193.035C265.59 194.112 265.496 195.351 264.968 196.243C264.475 197.088 265.015 197.713 265.085 198.28C265.308 200.017 264.604 201.951 265.977 203.502C266.118 203.653 266.13 203.966 266.388 203.977C266.681 203.989 266.704 203.722 266.775 203.514C266.974 202.854 266.857 202.043 268.089 202.148C268.582 202.182 269.122 201.279 269.204 200.608C269.262 199.982 269.708 199.542 269.837 198.975C269.872 198.801 270.002 198.605 270.224 198.662C270.436 198.709 270.436 198.894 270.436 199.102C270.447 200.538 270.917 201.916 271.257 203.294C271.55 204.556 271.644 205.691 270.741 206.86C269.943 207.902 269.403 209.153 268.816 210.346C268.218 211.527 267.268 211.249 266.306 211.04C265.437 210.855 265.214 210.23 265.167 209.466C265.097 208.481 264.557 207.752 263.63 207.52C262.234 207.15 261.342 207.648 260.638 208.632C260.075 209.408 259.348 210.079 258.585 210.67C258.08 211.075 257.787 211.469 257.693 212.106C257.447 213.738 257.259 213.831 255.581 214.201C254.924 214.352 254.162 214.549 254.302 215.544C254.49 216.992 254.443 217.027 252.976 217.073C252.073 217.964 251.709 218.983 252.05 220.257C252.237 220.963 251.733 221.403 251.158 221.751C250.548 222.005 250.102 222.341 249.703 222.943C249.21 223.684 248.659 224.611 247.391 224.286C246.981 224.182 246.84 224.657 246.629 224.97C245.925 225.965 245.631 227.32 244.259 227.772C244.012 227.864 243.789 228.142 243.578 228.131C242.287 228.003 241.748 228.86 241.22 229.775C241.126 229.983 240.985 230.134 240.774 230.226C240.046 230.655 239.202 230.898 238.85 231.801C238.697 232.206 238.368 231.905 238.134 231.743C236.644 230.655 236.468 230.585 235.846 232.287C235.423 233.434 234.672 234.071 233.769 234.684C233.769 234.754 233.769 234.823 233.757 234.904C233.746 235.298 233.523 235.576 233.147 235.715C232.983 235.773 232.819 235.68 232.795 235.541C232.725 235.136 232.959 234.869 233.311 234.684C233.241 233.642 232.349 233.932 231.786 233.827C231.352 233.735 230.671 233.526 230.578 234.372C230.566 234.476 230.495 234.649 230.437 234.661C228.466 234.869 228.735 236.838 227.844 237.891C227.433 238.366 226.929 238.493 226.342 238.47C225.262 238.436 224.817 239.026 224.441 239.976C224.148 240.74 223.772 241.655 222.904 242.013C222.317 242.268 222.388 242.743 222.376 243.113C222.364 243.507 222.834 243.345 223.103 243.368C224.183 243.496 224.511 244.225 223.972 245.163C223.69 245.649 223.279 245.962 222.822 246.17C222.341 246.379 222.165 246.575 222.388 247.073C222.517 247.363 222.611 247.768 222.235 247.977C221.836 248.197 221.508 247.93 221.261 247.641C220.909 247.224 220.463 247.12 219.947 247.166C219.431 247.224 219.079 247.675 219.185 247.977C219.759 249.482 218.586 250.327 217.964 251.369C217.777 251.67 217.565 251.936 217.166 251.763C216.791 251.601 216.791 251.23 216.826 250.894C216.861 250.605 216.943 250.327 216.838 250.026C216.568 249.204 215.934 249.007 215.348 249.644C214.714 250.304 214.151 251.045 213.576 251.763C213.306 252.11 212.942 252.481 212.555 252.237C211.781 251.763 211.663 252.295 211.358 252.77C210.76 253.72 210.173 254.565 209.035 255.167C208.026 255.711 207.076 256.614 206.231 257.506C205.891 257.865 205.527 258.166 204.976 258.096C204.8 258.085 204.518 258.119 204.448 258.224C203.743 259.382 202.359 259.37 201.374 260.018C200.951 260.285 200.505 260.563 200.271 260.956C199.156 262.878 197.091 263.469 195.307 264.442C195.085 264.557 194.909 264.546 194.721 264.337C194.04 263.538 193.301 263.481 192.808 264.361C192.233 265.368 191.506 265.461 190.579 265.183C189.57 264.87 188.76 265.159 188.033 265.866C187.165 266.688 186.414 266.607 185.369 265.912C184.865 265.576 184.02 264.488 183.668 266.121C183.645 266.213 183.539 266.329 183.445 266.364C181.005 267.186 181.756 269.363 181.392 271.053C181.345 271.273 181.486 271.412 181.697 271.435C181.932 271.481 182.143 271.424 182.307 271.25C182.553 270.995 182.354 270.567 182.694 270.358C183.011 269.745 183.457 269.826 183.879 270.196C184.29 270.567 184.548 271.146 184.067 271.528C183.445 272.014 182.753 272.674 181.802 272.13C181.122 272.396 180.653 272.35 180.641 271.435C180.629 270.96 180.394 270.509 180.43 270.011C180.453 269.733 180.512 269.374 180.113 269.281C179.773 269.2 179.362 269.189 179.209 269.536C178.893 270.219 178.083 270.242 177.684 270.798C177.367 271.238 176.91 270.949 176.734 270.671C176.429 270.173 176.264 269.594 176.053 269.038C175.865 268.54 176.323 268.517 176.593 268.367C176.945 268.147 177.027 268.367 177.062 268.679C177.097 268.969 177.25 269.224 177.567 269.154C177.895 269.096 178.236 268.957 178.353 268.598C178.447 268.309 178.306 268.054 178.024 267.973C177.567 267.811 177.438 267.66 177.907 267.348C178.142 267.186 178.236 266.931 178.083 266.665C177.93 266.375 177.696 266.421 177.414 266.479C176.159 266.746 174.938 267.197 173.648 267.29C173.519 267.29 173.284 267.452 173.296 267.51C173.425 268.448 172.263 268.888 172.369 269.779C172.428 270.196 172.228 270.335 171.9 270.358C171.501 270.393 171.137 271.065 170.714 270.52C170.398 270.092 169.811 270.15 169.518 269.733C169.377 269.548 169.154 269.432 168.931 269.617C168.685 269.802 168.626 270.069 168.814 270.312C169.612 271.342 168.872 271.933 168.145 272.512C167.711 272.848 167.194 273.114 166.796 273.496C166.514 273.786 166.35 273.982 166.009 273.612C165.751 273.322 165.669 273.045 165.974 272.744C166.197 272.524 166.702 272.466 166.537 272.026C166.385 271.586 165.904 271.771 165.552 271.69C164.038 271.308 163.205 272.188 162.478 273.253C162.278 273.554 162.149 273.67 161.774 273.531C160.788 273.172 160.096 272.026 160.694 271.342C161.645 270.266 160.507 269.733 160.237 269.015C160.108 268.668 159.662 268.448 159.357 268.17C159.122 267.961 158.923 267.591 158.535 268.008C158.266 268.309 158.277 268.552 158.5 268.899C158.735 269.258 159.568 269.432 159.122 269.965C158.969 270.161 158.699 270.127 158.441 270.046ZM155.942 267.916C155.965 267.916 156 267.916 156.036 267.927H156.059C156.071 267.696 155.637 267.406 155.179 267.302C155.12 267.29 155.05 267.279 154.968 267.267C155.332 267.429 155.637 267.649 155.942 267.916ZM260.531 223.465C260.754 223.465 260.837 223.661 260.86 223.847C260.884 224.217 260.93 224.576 260.696 224.924C260.121 225.78 259.593 226.684 258.971 227.506C258.396 228.258 258.783 229.254 258.161 229.972C257.833 230.354 257.88 230.968 257.446 231.304C256.237 233.399 254.113 234.719 252.917 236.908C252.177 238.274 251.016 239.571 249.936 240.833C249.045 241.863 248.129 242.766 246.968 243.45C246.358 243.809 246.581 244.735 245.947 245.129C245.196 245.58 244.645 246.205 244.211 246.958C243.284 248.625 241.664 249.656 240.432 251.022C238.872 252.771 236.701 253.743 235.117 255.422C232.559 256.823 230.424 258.768 228.206 260.598C227.725 261.003 227.244 261.304 226.646 261.42C225.731 261.605 225.003 262.092 224.463 262.844C223.959 263.539 221.624 264.338 220.885 264.072C220.439 263.921 220.333 263.539 220.486 263.18C220.709 262.601 220.932 262.034 221.601 261.733C222.516 261.304 223.208 260.61 223.724 259.718C224.006 259.22 224.428 258.745 225.038 258.548C225.355 258.444 225.543 258.259 225.684 257.993C226.094 257.182 226.399 256.314 227.538 256.21C227.866 256.175 227.843 255.804 227.807 255.469C227.643 254.172 228.171 253.489 229.509 253.431C230.6 253.396 231.14 253.002 231.679 251.972C232.266 250.849 233.099 249.749 234.202 248.95C234.273 248.591 234.378 248.267 234.226 247.873C233.756 246.761 234.249 245.835 234.918 244.967C235.399 244.341 235.622 243.635 235.61 242.871C235.598 241.69 236.713 240.96 237.839 240.972C238.907 240.972 240.104 240.972 241.066 240.393C241.547 240.115 242.075 239.849 242.509 239.895C243.671 239.988 244.222 239.189 244.762 238.506C245.783 237.232 246.651 235.843 247.59 234.511C247.801 234.21 247.684 234.025 247.461 233.839C247.167 233.608 246.968 233.11 247.144 232.971C248.153 232.23 247.977 230.551 249.444 230.204C249.878 230.099 250.124 229.764 250.359 229.428C250.652 228.976 251.063 228.768 251.614 228.895C252.389 229.254 252.389 228.675 252.236 228.281C251.931 227.506 252.295 226.857 252.471 226.163C252.506 226.058 252.483 225.885 252.541 225.85C253.82 225.178 253.773 223.372 255.216 222.851C255.404 221.948 256.355 221.624 256.742 220.871C256.824 220.732 257.035 220.663 257.129 220.778C257.34 221.022 257.352 221.392 257.176 221.612C256.718 222.203 256.577 222.874 256.484 223.569C256.331 224.623 256.237 225.688 256.143 226.741C256.12 227.008 256.143 227.263 256.437 227.413C256.918 227.239 256.812 226.73 257.035 226.406C257.282 226.058 257.235 225.259 258.044 225.873C258.302 226.07 258.502 225.734 258.631 225.503C259.03 224.808 259.968 224.553 260.18 223.685C260.203 223.592 260.414 223.465 260.531 223.465ZM280.948 169.265C282.93 170.029 281.429 171.106 281.816 172.009C282.003 172.449 280.044 172.669 279.047 172.935C276.348 173.653 275.773 173.398 275.832 171.511C275.175 169.589 278.437 168.651 280.337 167.308C280.678 167.065 281.346 167.065 281.745 167.319C282.144 167.586 281.663 167.771 281.37 167.933C280.642 168.327 279.751 168.801 280.948 169.265ZM70.6506 261.142C71.0026 261.895 71.9061 262.451 72.5045 263.111C72.9151 263.574 74.1472 264.107 72.2346 264.454C71.6362 264.558 71.9296 264.94 72.305 265.137C73.0207 265.519 72.7743 265.924 72.3285 266.272C71.8239 266.654 71.1434 266.909 70.3104 266.77C69.2896 266.584 68.5504 266.052 67.4357 265.924C66.7904 265.855 66.9546 265.253 67.4474 265.125C68.9258 264.743 68.6794 263.748 69.4421 263.134C70.0405 262.624 69.6768 262.208 68.785 262.011C68.1162 261.872 67.2245 261.686 67.3418 261.235C67.5178 260.552 68.8437 260.98 69.3365 260.668C70.1461 260.54 70.4746 260.783 70.6506 261.142ZM60.7593 255.156C59.9615 256.106 60.7828 256.638 61.4751 257.345C62.402 258.271 61.5337 258.954 59.5508 258.966C58.5183 259.035 57.7439 258.78 57.3449 258.225C56.8169 257.495 56.9695 256.615 55.6671 256.048C55.5263 255.99 55.5967 255.619 55.7609 255.561C57.2863 255.029 57.3801 254.114 57.8847 253.338C58.4244 252.516 59.1753 252.759 59.6564 253.234C60.2548 253.836 61.1465 254.681 60.7593 255.156ZM183.63 275.882C183.794 275.801 184.123 275.848 184.369 275.824C185.049 275.906 186.411 276.241 185.624 276.531C182.715 277.573 184.439 279.425 183.653 280.792C183.407 281.209 183.9 281.845 182.855 281.984C181.87 282.112 181.999 281.429 181.659 281.093C181.459 280.908 181.131 280.734 181.084 280.537C180.872 279.784 179.124 279.599 179.734 278.522C180.473 277.214 182.198 276.67 183.63 275.882ZM160.468 273.555C161.29 274.504 162.956 274.632 163.824 275.674C164.704 276.739 164.188 277.515 163.648 278.395C163.32 278.939 162.745 279.344 161.888 279.275C160.551 279.182 160.257 278.279 159.893 277.55C159.354 276.496 159.037 275.384 158.638 274.296C158.45 273.844 158.65 273.485 159.131 273.242C159.717 272.953 160.116 273.161 160.468 273.555ZM112.796 5.33221C111.001 5.04274 110.86 3.35222 110.743 1.87005C110.79 1.00163 110.719 -0.202568 111.916 0.0290231C113.547 0.364805 113.782 1.92794 113.84 3.32904C113.887 4.17431 113.747 5.48273 112.796 5.33221ZM158.438 270.048C158.133 268.844 157.358 268.068 156.056 267.929C156.056 267.953 156.056 267.987 156.032 268.01C155.997 267.976 155.962 267.953 155.939 267.918C154.871 267.848 153.991 268.358 154.05 269.504C154.085 270.813 155.059 271.588 156.396 271.704C156.42 271.704 156.455 271.704 156.49 271.716C156.866 271.438 156.912 270.986 156.936 270.535C156.455 269.747 154.378 269.249 155.974 268.068C155.997 268.057 156.021 268.034 156.032 268.01C156.15 268.115 156.255 268.23 156.361 268.346C156.795 268.821 156.443 270.014 157.734 269.875C157.91 269.863 158.18 269.979 158.438 270.048Z" fill="#20E72E"/>
<path fill-rule="evenodd" clip-rule="evenodd" d="M233.472 137.185C236.076 136.056 238.454 136.629 240.287 138.785C241.68 140.411 241.757 142.285 240.581 144.082C238.964 146.572 236.612 147.035 233.965 146.068C229.589 144.467 225.135 143.637 220.448 143.928C213.979 144.322 211.116 146.281 210.528 151.339C210.407 152.348 210.398 153.478 210.761 154.539C211.609 155.916 214.169 157.191 214.887 161.633C215.605 166.065 212.707 167.332 213.814 169.437L215.786 171.713C216.521 172.303 217.429 172.859 218.502 173.39C220.197 174.237 222.298 174.81 221.961 177.326C221.762 178.926 220.759 180.013 219.081 180.235C216.495 180.561 215.397 178.849 214.498 176.872C213.953 175.675 213.486 174.391 212.716 173.347C211.151 171.199 209.637 170.823 208.158 172.457C208.029 172.662 206.429 173.39 205.417 175.743C204.414 178.096 205.425 183.761 206.429 185.01C208.374 187.44 205.996 187.783 204.171 188.176C202.52 188.518 200.141 187.945 199.631 190.084C199.121 192.249 201.291 193.379 202.744 194.508C205.451 196.605 208.72 197.717 211.834 199.078C213.918 199.993 215.553 201.379 214.169 203.844C212.811 206.266 210.614 206.223 208.4 205.016C206.541 204.006 205.296 202.364 204.137 200.627C202.831 198.667 201.525 196.699 200.037 194.885C198.576 193.088 196.656 191.975 194.182 192.626C191.908 193.233 191.458 195.184 191.181 197.084C190.507 201.799 187.246 203.801 183.034 204.606C177.344 205.684 172.466 208.217 168.012 211.828C163.126 215.79 162.737 219.358 166.948 224.081C168.202 225.485 169.932 226.794 168.678 229.002C167.891 230.414 166.551 231.055 164.907 230.645C162.391 229.994 162.01 228.001 161.924 225.836C161.863 224.518 161.915 223.166 161.595 221.899C160.817 218.828 159.165 218.134 156.449 220.179C149.738 225.237 148.034 225.716 141.816 221.472C137.959 212.487 128.575 212.897 122.08 217.903C116.139 217.476 111.33 214.943 107.785 209.945C106.522 208.157 104.957 206.557 103.452 204.957C101.895 203.305 99.9665 202.809 97.7612 203.528C95.4002 204.298 94.7429 206.198 94.6651 208.371C94.57 210.861 94.6132 213.36 94.6046 215.85C94.596 217.938 94.3365 219.991 93.0565 221.72C91.4393 223.91 89.5799 225.87 86.4146 225.091C84.1488 224.527 82.2029 223.363 81.6494 220.958C80.9662 217.955 83.2494 216.449 85.2558 214.951C90.7994 210.818 91.0416 209.98 87.8676 204.289C86.2676 201.423 87.0201 198.582 87.9714 195.775C89.087 192.515 90.7993 190.632 88.6978 188.177C88.5422 187.997 80.629 188.117 79.0721 189.263C77.5154 190.41 76.8927 186.414 81.6494 183.915C86.4145 181.417 86.2503 182.341 85.5843 179.928C84.9183 177.515 82.9207 177.284 81.1391 176.402C77.5759 176.402 73.122 175.529 69.4983 177.361C66.9731 177.763 64.0413 176.916 63.3319 175.529C58.8867 171.123 66.8951 172.004 70.8994 169.899C71.0377 169.505 71.202 169.103 71.3837 168.684C73.0096 164.876 73.6929 161.239 70.7091 157.996C67.6476 154.659 63.6779 153.923 59.2933 155.19C57.4512 155.729 55.5658 156.259 53.6545 156.43C50.8352 156.696 48.3183 155.866 46.8914 153.196C45.7066 150.98 46.3206 148.9 47.9033 147.095C49.9357 144.767 52.5994 144.51 55.1939 145.726C58.9387 147.48 62.4153 149.782 66.1773 151.501C70.441 153.452 74.2376 152.006 75.8117 148.224C77.256 144.742 75.8896 142.474 72.1274 142.037C69.8616 141.781 67.7426 142.551 65.5459 142.885C63.3406 143.227 61.4119 142.5 60.1666 140.583C59.3277 139.299 59.6563 138.041 60.6422 136.946C62.3892 135.021 64.3697 135.602 66.3328 136.518C67.1371 136.895 67.8636 137.425 68.6679 137.793C71.0117 138.871 73.3295 141.019 76.019 138.837C78.7434 136.604 79.6081 133.515 79.0719 130.109C78.7692 128.201 77.7747 126.575 76.7196 124.94C74.5315 121.535 75.1455 118.728 78.9076 117.607C82.7907 116.46 91.1797 115.254 86.4144 106.38C81.6492 97.5152 90.2802 105.764 93.1343 100.579C95.9969 95.4017 99.8021 91.5255 104.343 88.6333C106.989 86.3656 107.127 82.6775 104.836 79.9651C103.642 78.5618 102.353 77.2269 101.238 75.7636C99.9146 74.0522 99.2141 72.1097 100.347 70.039C101.117 68.61 102.57 68.2934 104.04 68.6699C106.496 69.3202 107.05 71.3825 107.11 73.4959C107.223 77.1925 106.712 78.8526 109.177 81.9503C110.907 84.1323 112.732 84.2265 114.902 83.8584C116.113 83.4819 117.35 83.1482 118.621 82.8402C125.246 81.2571 131.767 79.2121 137.933 76.2684C142.586 74.0522 143.65 71.7162 142.551 66.6676C142.032 64.2288 141.34 61.8159 140.934 59.36C140.458 56.4678 140.865 53.7125 143.546 51.9241C145.405 50.6919 147.342 51.2224 148.856 52.6086C151.39 54.9276 150.724 57.76 149.453 60.3269C147.213 64.8535 145.025 69.3118 145.993 74.5742C147.092 80.5812 150.049 82.19 155.835 79.854C162.417 77.1929 162.442 77.2014 166.957 82.7035C169.785 86.1604 174.507 85.8952 176.946 81.9761C178.027 80.2476 178.615 78.2283 179.445 76.3457C180.535 73.8813 182.342 72.9144 184.764 74.4033C187.03 75.7809 187.471 77.9032 185.905 80.0679C184.876 81.4798 183.449 82.6006 182.264 83.9014C179.41 87.0418 179.653 90.0795 183.475 91.6883C188.699 93.8959 194.234 94.8201 199.544 91.6711C201.922 90.2507 204.084 90.5245 206.134 92.099C207.924 93.451 208.832 95.2992 208.011 97.5156C207.155 99.8175 205.312 101.144 202.822 100.844C198.16 100.288 198.878 103.052 199.561 105.764C200.054 107.75 201.723 108.819 203.306 109.949C207.786 113.141 211.003 117.128 211.937 122.75C212.603 126.687 213.753 126.969 216.78 124.359C217.792 123.495 218.657 122.468 219.677 121.629C221.865 119.798 224.105 119.798 225.852 122.091C227.539 124.316 226.432 126.241 224.555 127.825C223.007 129.142 221.078 129.382 219.15 129.587C216.719 129.853 214.877 130.879 214.419 133.464C213.943 136.219 214.938 138.427 217.411 139.779C221.009 141.738 224.728 141.995 228.438 139.984C230.125 139.068 231.726 137.964 233.472 137.185ZM99.5946 218.416C102.025 216.423 104.887 216.739 107.222 218.896C109.376 220.889 109.324 224.723 107.101 226.297C104.412 228.197 101.835 227.41 99.6119 225.639C97.7006 223.063 97.1211 220.445 99.5946 218.416ZM220.474 152.357C222.022 151.091 223.847 151.288 225.334 152.665C226.709 153.94 226.675 156.379 225.257 157.389C223.544 158.604 221.901 158.099 220.483 156.969C219.263 155.326 218.891 153.658 220.474 152.357ZM67.8902 129.347C66.1779 130.563 64.5347 130.066 63.1164 128.937C61.897 127.285 61.5338 125.617 63.1078 124.324C64.6559 123.058 66.4806 123.255 67.9682 124.633C69.3433 125.907 69.3086 128.346 67.8902 129.347ZM82.7829 192.215C83.7774 193.148 83.7602 194.919 82.7223 195.646C81.477 196.528 80.2834 196.16 79.2543 195.347C78.3722 194.149 78.1041 192.934 79.2457 191.993C80.37 191.077 81.7018 191.222 82.7829 192.215Z" fill="#20E72E"/>
<g clip-path="url(#clip0_1155_621)">
<path fill-rule="evenodd" clip-rule="evenodd" d="M101 113.021L109.737 103.085L144.5 138.061L179.263 103.085L188 113.021L153.981 147.402L188 181.98L179.263 191.916L144.5 156.939L109.737 191.916L101 181.781L135.205 147.403L101 113.021Z" fill="#0A0223"/>
</g>
<defs>
<clipPath id="clip0_1155_621">
<rect width="87" height="93" fill="white" transform="translate(101 101)"/>
</clipPath>
</defs>
</svg>
