<svg width="246" height="262" viewBox="0 0 246 262" fill="none" xmlns="http://www.w3.org/2000/svg">
<path d="M207.591 33.7671C177.069 4.81772 133.724 -6.54565 92.7962 3.69734C51.8683 13.9403 19.1022 44.3323 6.03505 84.1928C-7.0339 124.053 1.43058 167.783 28.4406 199.99C31.3242 203.628 32.5798 208.281 31.9173 212.854L28.6266 239.032C27.6616 246.296 30.7195 253.501 36.6262 257.878C40.1841 260.534 44.521 261.988 48.9742 262C51.7647 261.988 54.5205 261.423 57.0901 260.337L95.226 244.078C98.4699 242.797 102.016 242.404 105.458 242.97C122.434 245.441 139.736 244.321 156.244 239.713C179.499 233.108 200.301 219.898 216.079 201.701C231.858 183.502 241.927 161.113 245.055 137.289C249.891 98.8242 235.985 60.3723 207.591 33.7671Z" fill="#8900F2"/>
<path fill-rule="evenodd" clip-rule="evenodd" d="M122 158C130.281 158 137 164.944 137 173.5C137 182.056 130.28 189 122 189C113.72 189 107 182.056 107 173.5C107 164.944 113.72 158 122 158Z" fill="white"/>
<path fill-rule="evenodd" clip-rule="evenodd" d="M82.0485 96.3495C82.4913 86.3099 86.6446 76.8636 93.7246 69.7614C101.247 62.21 111.366 58 122.004 58C132.647 58 142.761 62.21 150.283 69.7614C157.806 77.3128 162 87.4698 162 98.148C162 105.423 160.03 112.5 156.304 118.738C152.584 124.971 147.219 130.09 140.836 133.524C138.999 134.515 137.421 135.915 136.347 137.719C135.268 139.522 134.82 141.612 134.82 143.697V146.905C134.82 148.06 133.884 149 132.733 149H111.274C110.124 149 109.187 148.06 109.187 146.905V143.697C109.187 136.922 110.933 130.352 114.404 124.538C117.876 118.713 122.853 114.089 128.804 110.89C131.104 109.654 133.028 107.799 134.367 105.551C135.706 103.309 136.367 100.754 136.367 98.143C136.367 94.306 134.866 90.6631 132.163 87.945C129.455 85.232 125.831 83.7248 122.004 83.7248C118.181 83.7248 114.552 85.2319 111.844 87.945C109.411 90.3872 107.935 93.6009 107.681 97.0496L107.609 98.0254C107.528 99.1341 106.602 99.9822 105.492 99.9669L84.0484 99.5991C83.463 99.5889 82.9642 99.3692 82.5672 98.94C82.1651 98.5108 81.9768 97.9999 82.0023 97.4123L82.0485 96.3495Z" fill="white"/>
</svg>
