<svg width="62" height="65" viewBox="0 0 62 65" fill="none" xmlns="http://www.w3.org/2000/svg">
<path d="M59.363 32.1461C58.3187 27.0346 57.2487 21.865 55.178 16.9897C53.5113 13.064 51.7828 9.21976 48.5649 6.21331C45.3548 3.21447 41.7747 0.990094 37.2964 0.482281C35.2926 0.256288 33.2786 0.0709281 31.2672 0.00744497L31.2646 0.00490578C27.0488 -0.099205 22.9618 1.45736 19.9085 4.33178C18.6533 5.43633 17.5858 6.7593 16.2766 7.7902V7.79274C14.9519 8.92271 13.8407 10.2812 12.9996 11.7971C12.7552 12.1958 12.534 12.6097 12.2588 12.9855V12.988C10.0159 15.9031 8.22815 19.138 6.95748 22.5787C5.42191 26.8979 4.10495 31.2932 3.01944 35.7447C1.55327 42.0293 0.251783 48.3646 0.231173 54.8702C0.226029 56.6629 0.15658 58.4581 0.0305408 60.2458H0.0279688C-0.110931 60.9872 0.277474 61.7286 0.971966 62.041C1.55328 62.3787 2.16546 62.6605 2.79819 62.8916C6.54843 63.9911 10.4247 64.6132 14.3348 64.7427C17.5577 64.8519 20.7807 64.8875 24.0065 64.9383C26.0154 64.9687 28.0294 65.05 30.0331 64.956C32.0265 65.0119 34.0226 64.9586 36.0109 64.7961C40.8543 64.0394 45.7801 64.0292 50.6285 63.0846C54.317 62.366 58.0515 61.9166 61.7634 60.5708C61.838 60.2864 61.8945 60.002 61.9331 59.7125C61.9717 59.1158 62.0051 58.514 61.9974 57.9173L62 57.9148C61.9434 49.2634 61.0606 40.635 59.363 32.1461ZM26.8196 1.59671C28.9828 1.38596 30.9068 0.796837 33.1472 1.13965V6.98749L33.6102 7.01796L34.1606 1.27933C35.9149 1.01271 37.4145 1.67291 39.1121 1.85827H39.1147C39.413 4.11567 39.3204 6.40603 38.8394 8.63301C38.7648 8.95803 38.6722 9.27543 38.5591 9.59033C38.3353 10.3191 38.325 11.416 37.8363 11.6928H37.8388C36.7945 12.2997 35.6088 12.6222 34.3972 12.6298C33.7336 12.5917 33.07 12.6273 32.4141 12.7364C30.6676 12.937 28.8979 12.6323 27.3186 11.8629C27.0433 11.6877 26.8658 11.3957 26.8427 11.0732C26.8093 7.96526 26.8196 4.857 26.8196 1.59671ZM2.05945 61.4389C1.76622 56.3706 7.95745 47.7172 13.1377 46.031C14.0174 51.8534 15.3549 57.564 15.3241 63.6608C10.7944 63.8157 6.2836 63.0615 2.05945 61.4389ZM16.2319 9.48108C16.2936 9.22716 16.4145 8.98847 16.5869 8.78787C18.7655 6.92914 20.957 5.08568 23.164 3.25744C23.5164 3.08478 23.8919 2.95781 24.2777 2.87656C22.8115 11.2354 20.9467 19.125 19.1822 27.4488C17.5592 25.4504 16.1933 23.838 15.612 21.7914V21.794C14.4828 17.7287 14.7015 13.4138 16.2319 9.48108ZM25.6692 63.9982H18.2719V52.8941C20.3091 52.5285 22.3282 52.1654 24.3217 51.8073C25.4689 55.0778 25.8235 58.3662 25.6692 63.9982ZM33.0798 63.9525C31.0992 64.0515 29.0594 64.1505 26.8139 64.2622C26.6905 60.0928 25.4816 56.2589 25.5613 52.1526H32.7914C32.7889 53.8615 33.1387 55.5729 33.3007 57.2742C33.3367 57.6526 33.3547 58.0309 33.383 58.4093C32.9252 60.1308 33.5788 61.9617 33.0798 63.9525ZM34.5768 63.9728C34.6025 63.9144 34.6128 63.8534 34.6128 63.7925C34.5742 61.6138 34.4687 59.4428 34.263 57.2745C34.1446 56.0303 33.9234 54.781 33.8154 53.5292L34.1806 52.1047C36.1072 51.5943 38.0209 51.8431 39.9886 51.8609C40.0555 52.2291 40.1147 52.5364 40.1738 52.8588H40.1687C39.9269 56.3604 39.3739 59.8338 38.5148 63.2394C38.4762 63.3689 38.5019 63.5111 38.5842 63.6203C37.2236 63.7396 35.9683 63.8509 34.5768 63.9728ZM44.4875 62.8403C42.9776 63.1043 41.5706 63.3481 40.0273 63.6173V60.9104C40.6369 57.9751 41.0253 54.9965 41.1899 52.0029C42.2368 52.1349 43.3197 52.2721 44.5467 52.4269C45.2721 55.9819 44.2817 59.2673 44.4849 62.8406L44.4875 62.8403ZM43.2142 27.4864C43.1319 27.3036 43.0445 27.1259 42.9545 26.9557C42.8593 26.3615 42.741 25.7699 42.6329 25.1757C42.6046 24.452 42.5583 23.7258 42.494 22.9996V23.0021C42.5069 22.8878 42.512 22.7761 42.512 22.6618C42.4992 18.8276 42.5429 14.9933 42.4297 11.162C42.35 8.46532 42.0516 5.77369 41.8227 2.73935C44.6958 3.99121 47.2551 5.84734 49.328 8.17332C49.6599 8.66592 49.8193 9.25252 49.7782 9.84412C49.8451 12.4367 49.3949 15.0165 48.4612 17.4392C47.3526 19.9937 46.19 22.5253 44.9733 25.0343H44.9707C44.4537 25.8976 43.8647 26.7178 43.2139 27.4872L43.2142 27.4864ZM57.3768 60.9155C54.4188 61.4741 51.4454 61.9413 48.5025 62.4441C47.0749 58.1986 48.3302 46.2158 50.4856 43.2172H50.4882C51.7049 43.7682 52.7183 44.6798 53.387 45.825C55.2802 48.4937 56.6974 51.4646 57.5746 54.6031C57.9398 56.0175 58.4414 57.3988 58.7655 58.8208C59.0716 60.1742 58.7633 60.6539 57.3768 60.9155Z" fill="#0A0223" fill-opacity="0.7"/>
</svg>
