<svg width="3800" height="3085" viewBox="0 0 3800 3085" fill="none" xmlns="http://www.w3.org/2000/svg">
<path d="M2315.08 2249.3C2285.77 2247.01 2247.49 2276.32 2236.22 2253.79C2220.47 2226.77 2213.69 2188.49 2218.18 2152.4C2222.67 2114.11 2224.96 2075.83 2215.89 2037.45C2209.11 2014.92 2202.34 2008.14 2175.32 2014.92C2132.54 2026.19 2085.19 2023.9 2040.13 2026.19C1972.53 2030.67 1904.94 2041.94 1837.34 2039.74C1704.44 2035.25 1573.74 2046.52 1440.74 2039.74H1395.68C1370.86 2037.45 1364.17 2048.72 1366.37 2073.54C1366.37 2118.6 1364.08 2161.37 1359.59 2206.44C1355.28 2231.35 1344.01 2240.32 1307.93 2240.32C1285.39 2240.32 1267.35 2233.55 1267.35 2206.53C1265.06 2159.17 1262.86 2109.62 1265.06 2062.36C1267.35 2035.34 1260.57 2015.01 1235.75 2006.03C1213.22 1997.05 1208.73 1981.21 1206.44 1960.97C1199.67 1918.19 1188.4 1873.13 1174.94 1832.55C1156.89 1778.51 1138.85 1724.38 1172.65 1663.57C1125.3 1668.06 1107.34 1641.04 1100.56 1602.75C1098.28 1595.97 1100.56 1587 1098.28 1580.22C1073.46 1510.33 1105.05 1458.58 1154.61 1415.72C1174.85 1397.68 1179.43 1381.92 1179.43 1359.39C1174.94 1291.8 1147.92 1235.47 1100.57 1188.11C1075.74 1163.29 1053.21 1136.27 1041.95 1102.48C1026.28 1068.68 1037.55 1023.62 1071.34 1005.57C1102.85 987.529 1132.16 969.485 1175.03 978.552C1233.64 989.818 1292.17 980.84 1350.79 983.041C1438.63 987.529 1526.56 992.018 1614.39 994.306C1650.47 996.595 1650.47 992.018 1652.67 958.22C1654.96 922.133 1641.41 888.336 1641.41 854.538C1639.12 746.368 1625.65 638.199 1618.88 530.128C1612.1 437.712 1612.1 343.097 1636.92 250.781C1650.47 201.229 1670.72 153.877 1715.78 122.368C1751.87 97.5476 1799.13 106.614 1828.44 140.411C1835.22 147.188 1839.7 153.965 1846.48 160.655C1857.75 174.209 1871.3 176.409 1882.57 162.943C1920.85 115.591 1974.98 124.657 2022.25 120.169C2128.04 113.392 2234.01 122.369 2337.6 122.369C2441.28 122.369 2547.16 135.923 2650.74 129.146C2670.99 126.858 2691.32 131.435 2711.56 133.635C2745.36 135.923 2774.67 135.923 2808.46 113.392C2855.82 84.0827 2912.15 81.8836 2968.47 97.6372C3002.27 108.903 2997.78 142.7 2995.49 162.943C2984.23 223.76 2981.94 286.867 2970.67 347.684C2950.43 453.565 2934.59 561.735 2921.12 667.611C2900.88 820.844 2880.55 971.788 2846.75 1122.73C2828.71 1203.88 2828.71 1287.23 2812.95 1368.28C2788.13 1505.76 2767.89 1643.14 2747.65 1780.63C2743.16 1805.45 2738.67 1830.18 2720.63 1850.51C2707.07 1866.27 2702.58 1884.31 2702.58 1906.84C2702.58 1949.62 2698.1 1992.48 2698.1 2033.05C2698.1 2053.3 2693.61 2062.36 2673.27 2069.14C2598.9 2096.16 2596.7 2096.16 2603.39 2017.3C2605.68 1992.48 2605.68 1965.46 2603.39 1940.73C2601.1 1920.49 2592.12 1915.91 2574.08 1920.49C2533.51 1929.46 2497.51 1947.51 2461.42 1963.26C2438.89 1972.24 2416.36 1981.3 2387.05 1976.81C2337.5 1970.04 2305.9 2001.63 2314.97 2046.7C2330.81 2116.41 2308.28 2181.71 2315.06 2249.31L2315.08 2249.3ZM2749.97 156.159C2725.15 153.871 2711.68 151.67 2698.13 151.67C2547.18 147.182 2398.43 142.693 2247.49 142.693C2157.37 142.693 2067.24 140.405 1977.11 156.247C1918.5 165.225 1862.17 199.021 1875.72 282.46C1889.28 363.61 1889.28 442.471 1882.5 523.526C1875.72 638.473 1864.46 753.326 1855.48 868.282C1844.21 985.429 1844.21 1102.57 1819.39 1217.52C1817.1 1226.5 1817.1 1235.57 1817.1 1244.54C1812.61 1287.32 1812.61 1289.61 1857.68 1296.38C1909.52 1303.16 1963.56 1309.94 2015.4 1314.43C2087.48 1318.92 2157.37 1321.2 2229.45 1334.67C2258.76 1339.16 2270.03 1330.18 2283.49 1303.16C2319.58 1231.08 2346.6 1154.42 2387.17 1084.62C2423.26 1021.52 2477.3 992.207 2544.89 978.742C2578.69 971.965 2626.04 992.296 2646.29 962.987C2664.33 935.968 2659.84 893.103 2664.33 857.107V852.618C2673.31 715.139 2677.88 577.755 2689.15 440.267C2698.13 345.388 2695.93 248.566 2749.97 156.159ZM2898.71 216.977C2898.71 201.222 2907.69 196.733 2912.27 189.957C2921.24 183.18 2923.53 174.202 2912.27 169.713C2905.49 167.425 2889.73 162.936 2889.73 172.002C2887.45 203.51 2864.91 205.799 2842.38 208.088C2828.83 210.377 2808.58 217.066 2810.87 226.131C2815.36 259.929 2786.05 277.972 2779.36 307.281C2759.12 399.697 2763.61 496.511 2747.86 588.926C2729.81 694.807 2718.55 802.977 2705.08 911.151C2700.59 949.437 2689.33 990.012 2687.04 1026.1C2684.75 1075.65 2664.51 1107.25 2628.42 1127.49C2594.62 1147.73 2560.83 1168.07 2527.03 1181.53C2468.41 1206.35 2445.88 1249.13 2432.41 1307.74C2425.64 1341.54 2445.97 1332.56 2475.19 1343.83C2425.64 1346.12 2416.57 1375.34 2405.3 1402.45C2400.82 1411.43 2398.53 1418.2 2391.75 1427.27C2373.71 1449.8 2342.2 1470.04 2382.77 1501.64C2385.06 1503.93 2382.77 1512.91 2382.77 1517.4C2382.77 1542.22 2385.06 1569.24 2376 1593.97C2373.71 1600.75 2367.02 1612.01 2380.48 1616.5C2398.53 1623.28 2394.04 1627.77 2380.48 1636.74C2364.73 1648.01 2351.18 1663.76 2335.42 1675.03C2324.16 1684.01 2317.38 1690.78 2317.38 1704.34C2310.6 1778.71 2317.38 1855.28 2306.11 1929.65C2301.62 1967.94 2315.09 1974.72 2353.46 1963.45C2466.12 1925.17 2578.78 1884.59 2686.96 1835.04C2702.71 1828.26 2709.49 1819.28 2711.78 1803.53C2718.55 1744.91 2727.53 1686.38 2734.31 1627.77C2745.57 1517.4 2754.55 1404.74 2777.08 1294.28C2783.86 1255.99 2783.86 1217.7 2790.64 1179.33C2799.61 1118.51 2822.14 1062.18 2831.21 1001.36C2840.19 942.746 2826.72 877.441 2867.3 823.401C2871.79 737.763 2898.81 658.902 2903.38 573.255C2903.38 550.723 2898.9 525.902 2903.38 505.66C2916.94 453.819 2919.14 401.978 2921.43 350.228C2923.72 332.185 2925.92 316.43 2934.98 300.676C2953.02 264.589 2962 228.593 2953.02 188.018C2927.94 189.954 2921.24 210.199 2898.71 216.977ZM1197.57 1659C1195.28 1755.9 1213.33 1843.74 1226.88 1933.86C1233.66 1967.66 1251.7 1987.9 1287.7 1992.48C1359.78 2001.46 1429.67 2001.46 1501.75 1999.26C1695.56 1994.77 1891.57 1999.26 2085.27 1985.71C2141.6 1983.42 2200.22 1985.71 2256.55 1974.44C2279.08 1969.95 2290.35 1960.89 2288.06 1938.35C2276.79 1870.76 2288.06 1803.16 2281.28 1735.57C2276.79 1694.99 2263.24 1681.53 2220.46 1674.75C2137.12 1659 2051.48 1667.97 1968.13 1665.77C1927.56 1665.77 1886.98 1654.51 1846.5 1661.28C1794.66 1670.26 1740.62 1663.57 1688.78 1661.28C1594.16 1656.8 1497.26 1652.31 1402.65 1652.31C1332.76 1654.51 1265.17 1656.8 1197.57 1659ZM1321.5 1348.04C1422.89 1314.24 1519.79 1294 1618.89 1291.71C1663.96 1291.71 1706.73 1289.42 1751.79 1289.42C1774.32 1289.42 1785.59 1282.65 1787.88 1257.92C1787.88 1246.65 1794.66 1237.67 1794.66 1226.41C1796.94 1127.3 1817.19 1030.4 1828.45 931.198C1837.43 856.826 1855.47 782.454 1842.01 708.171C1862.25 658.62 1848.78 606.779 1857.76 554.938C1866.74 503.098 1862.25 449.058 1862.25 394.928C1859.96 325.132 1853.19 257.537 1826.16 189.942C1812.61 153.855 1772.12 162.922 1758.57 135.902C1758.57 133.614 1745.02 135.902 1738.33 138.19C1722.57 142.679 1709.02 156.233 1702.24 169.698C1682 207.984 1659.47 246.27 1652.69 291.333C1645.91 349.951 1636.93 408.48 1639.13 467.098C1643.62 602.288 1654.89 737.477 1670.64 872.667C1675.13 908.754 1679.62 944.75 1666.15 980.837C1659.38 1001.08 1648.11 1016.92 1623.38 1014.63C1569.34 1012.35 1513.01 1010.15 1458.88 1010.15C1431.86 1010.15 1402.55 983.126 1382.31 1023.7C1380.02 1028.19 1380.02 1028.19 1375.53 1023.7C1337.25 985.414 1289.89 1012.43 1235.85 1003.46C1307.94 1113.74 1296.68 1230.9 1321.5 1348.04ZM1436.36 1469.76H1195.29C1143.45 1469.76 1132.18 1481.03 1123.21 1532.87C1118.72 1553.11 1120.92 1573.45 1127.7 1591.49C1141.25 1634.26 1138.96 1634.26 1179.54 1634.26C1377.83 1634.26 1576.14 1631.97 1774.33 1641.04C1932.05 1647.82 2089.77 1634.26 2247.49 1654.59C2263.25 1656.88 2281.29 1654.59 2297.04 1656.88C2324.06 1659.17 2339.82 1645.62 2344.4 1620.8C2348.88 1589.29 2351.17 1559.98 2355.66 1528.38C2355.66 1514.83 2351.17 1503.56 2333.13 1503.56C2220.47 1501.27 2107.81 1485.52 1995.15 1487.8C1929.85 1490.09 1862.25 1492.29 1796.86 1483.32C1675.22 1467.47 1555.8 1465.28 1436.36 1469.76ZM2254.28 1361.59C2182.19 1343.55 2114.6 1345.84 2047 1339.06C1947.9 1330.09 1851 1316.53 1751.79 1312.04C1666.16 1309.75 1580.52 1312.04 1494.98 1325.6C1472.45 1330.09 1449.92 1339.15 1425.1 1343.64C1353.01 1354.91 1289.91 1386.41 1222.31 1411.23C1211.04 1415.72 1199.78 1424.79 1206.56 1440.54H1332.77C1492.78 1438.26 1652.7 1447.32 1810.42 1451.81C1932.05 1456.3 2051.48 1458.59 2173.22 1463.08C2225.06 1465.36 2225.06 1465.36 2236.33 1418.01C2243.02 1402.17 2247.5 1386.42 2254.28 1361.59ZM2294.85 1478.74C2319.67 1483.23 2333.14 1469.76 2339.92 1444.94C2351.18 1399.88 2366.94 1357.11 2378.2 1312.04C2389.47 1264.69 2416.49 1228.69 2452.57 1199.38C2475.11 1181.34 2499.93 1163.3 2524.66 1147.54C2569.72 1116.04 2576.5 1082.24 2549.48 1037.18C2535.92 1014.64 2517.97 1007.87 2493.15 1019.13C2452.57 1039.38 2421.07 1066.48 2400.73 1109.26C2375.91 1163.3 2353.38 1215.14 2328.65 1269.27C2306.12 1323.31 2283.59 1377.44 2263.34 1431.48C2249.79 1469.76 2258.77 1476.54 2294.85 1478.74ZM1211.04 1388.61C1229.08 1381.84 1240.34 1379.64 1249.32 1375.06C1287.61 1361.51 1289.9 1357.02 1285.41 1314.24C1280.92 1289.42 1274.14 1264.69 1269.65 1239.87C1256.1 1176.76 1262.88 1109.17 1220.1 1052.84C1193.08 1016.75 1170.55 994.222 1138.95 1005.49C1120.91 1012.26 1062.38 1100.1 1066.87 1113.66C1069.16 1122.63 1075.85 1129.41 1080.42 1138.48C1096.18 1161.01 1114.22 1181.25 1136.75 1197.1C1177.33 1224.12 1195.37 1266.98 1204.35 1312.04C1213.32 1334.58 1213.32 1359.31 1211.04 1388.61ZM2815.27 160.641C2783.76 158.352 2774.69 174.195 2763.42 189.95C2745.38 214.771 2752.16 246.279 2740.89 273.299C2700.32 381.469 2713.87 494.127 2702.61 606.789C2700.32 620.344 2695.83 636.099 2709.38 649.564C2720.65 636.009 2720.65 622.544 2720.65 606.789C2727.43 509.885 2738.69 412.981 2752.16 316.177C2761.22 259.847 2772.49 207.991 2815.27 160.641ZM2587.74 1120.53C2632.8 1131.8 2610.27 1066.49 2648.56 1066.49C2657.54 1066.49 2655.34 1050.74 2657.54 1041.67C2659.82 1037.18 2659.82 1034.9 2659.82 1030.41C2659.82 1019.14 2655.34 1007.87 2641.78 1005.59C2619.25 1001.1 2632.8 1019.14 2632.8 1025.83C2626.03 1059.63 2594.52 1032.61 2574.19 1048.36C2623.74 1068.69 2571.99 1098 2587.74 1120.53ZM2948.25 129.141C2894.21 102.122 2862.61 108.898 2835.59 149.385C2864.9 122.365 2903.18 135.919 2948.25 129.141ZM2655.34 2039.85C2664.31 2017.31 2668.89 1999.27 2653.05 1983.52C2650.76 1981.23 2644.07 1983.52 2644.07 1985.81C2632.8 2003.76 2639.58 2019.52 2655.34 2039.85Z" fill="#20E72E"/>
<path d="M2354.17 525.014C2363.15 540.769 2369.93 556.522 2392.46 561.101C2430.75 570.078 2480.3 545.346 2493.85 504.772C2498.34 493.506 2496.14 477.752 2514.1 470.974C2514.1 500.283 2496.05 529.592 2525.36 554.323C2538.92 565.589 2583.98 588.121 2601.93 583.632C2610.91 581.344 2613.2 576.855 2615.49 570.078C2617.78 563.301 2619.98 552.035 2624.46 552.035C2660.55 545.258 2660.55 513.75 2671.82 486.73C2678.59 518.238 2676.31 549.836 2696.64 576.856C2701.13 583.633 2698.93 597.099 2692.15 601.677C2669.62 621.92 2669.62 651.228 2651.57 685.026C2651.57 644.451 2642.6 615.142 2615.49 606.165C2590.67 597.188 2561.45 594.899 2534.34 592.611C2529.85 592.611 2523.07 594.899 2520.78 599.388C2493.76 626.408 2475.72 619.631 2446.41 594.899C2405.84 558.813 2345.02 590.411 2338.24 644.451C2335.95 655.717 2340.53 671.471 2324.69 680.538C2313.42 673.761 2317.91 662.495 2320.2 653.518C2324.69 633.274 2326.98 617.431 2304.44 601.677C2284.2 585.922 2290.89 561.102 2302.16 540.86C2315.89 518.24 2333.93 513.749 2354.17 525.014ZM2329.44 585.831C2340.71 585.831 2349.68 581.343 2351.97 567.788C2351.97 558.811 2351.97 549.746 2340.71 547.545C2327.15 545.257 2322.66 554.322 2320.46 565.588C2318.18 576.766 2318.18 583.543 2329.44 585.831ZM2678.68 581.343C2676.39 574.565 2671.9 567.788 2662.93 567.788C2653.95 567.788 2644.88 572.277 2647.17 583.543C2649.46 590.32 2656.15 594.809 2665.22 594.809C2671.9 592.608 2676.39 588.032 2678.68 581.343ZM2487.16 585.831C2493.94 583.543 2500.72 583.543 2500.72 574.566C2500.72 570.077 2493.94 565.588 2489.45 565.588C2482.67 565.588 2475.9 567.876 2475.9 576.854C2478.1 583.543 2482.67 585.831 2487.16 585.831Z" fill="#20E72E"/>
<path d="M2259.56 572.263C2221.28 579.04 2185.19 572.263 2155.88 597.084C2151.39 601.572 2140.13 599.372 2135.64 597.084C2115.4 583.529 2090.58 588.106 2061.27 576.84C2108.62 549.82 2144.62 518.222 2158.17 459.694C2169.44 489.003 2167.15 513.734 2185.19 536.265C2205.52 560.998 2232.54 554.219 2259.56 572.263Z" fill="#20E72E"/>
<path d="M2356.47 527.199V473.159C2356.47 468.671 2360.96 464.182 2365.45 457.405C2370.03 482.138 2370.03 482.136 2356.47 527.199Z" fill="#20E72E"/>
<path d="M2489.36 637.672C2500.63 651.226 2491.65 662.493 2493.85 673.759C2478.1 673.759 2478.1 664.781 2475.81 658.004C2475.9 651.139 2478.1 644.361 2489.36 637.672Z" fill="#20E72E"/>
<path d="M2167.25 624.108C2164.96 628.597 2162.76 635.374 2155.99 635.374C2155.99 635.374 2153.7 628.597 2153.7 626.396C2153.7 621.907 2153.7 615.13 2162.68 617.419C2164.96 615.13 2164.96 619.619 2167.25 624.108Z" fill="#20E72E"/>
<path d="M2865.73 885.52C2874.71 858.5 2892.75 844.945 2926.55 842.746C2906.22 865.189 2888.26 878.745 2865.73 885.52Z" fill="#20E72E"/>
<path d="M2890.45 714.234C2894.94 718.723 2892.74 723.212 2892.74 727.788C2890.45 736.766 2892.74 745.831 2879.18 745.831C2876.9 745.831 2876.9 743.543 2874.7 743.543C2870.21 729.989 2881.47 725.5 2885.96 716.523C2885.96 716.523 2888.25 714.234 2890.45 714.234Z" fill="#20E72E"/>
<path d="M2516.49 1647C2516.49 1655.98 2512 1665.04 2505.23 1667.24C2500.74 1669.53 2493.96 1667.24 2493.96 1660.46C2493.96 1651.49 2498.45 1644.71 2507.52 1640.22C2511.92 1638.02 2514.2 1642.51 2516.49 1647Z" fill="#20E72E"/>
<path d="M2016.2 1496.06H2090.57C2063.55 1507.33 2036.53 1502.84 2016.2 1496.06Z" fill="#20E72E"/>
<path d="M1493.49 1584C1489 1586.29 1486.71 1588.49 1484.51 1588.49C1482.22 1588.49 1477.73 1588.49 1475.53 1586.2C1473.25 1583.91 1473.25 1581.71 1477.82 1581.71C1482.22 1581.71 1486.71 1584 1493.49 1584Z" fill="#20E72E"/>
<path d="M1923.89 63.1064C1932.87 83.3498 1928.38 96.9039 1926.18 112.658C1903.56 96.9035 1905.85 83.3489 1923.89 63.1064Z" fill="#20E72E"/>
<path d="M1561.08 885.52C1547.53 867.477 1538.55 851.722 1549.82 831.48C1563.37 847.146 1565.57 862.988 1561.08 885.52Z" fill="#20E72E"/>
<path d="M1876.53 0C1872.04 18.0429 1858.48 31.5082 1842.73 45.0633C1849.51 13.4672 1849.51 13.4672 1876.53 0Z" fill="#20E72E"/>
<path d="M1937.34 135.194C1935.05 150.949 1928.36 157.726 1917.1 162.214C1921.59 153.237 1917.1 139.683 1937.34 135.194Z" fill="#20E72E"/>
<path d="M1903.54 13.4646C1910.32 13.4646 1912.52 17.9534 1914.81 22.4421C1917.1 29.2192 1914.81 38.1967 1908.03 40.485C1903.54 42.7733 1896.77 42.7733 1894.48 35.9962C1887.79 24.7304 1896.85 20.2417 1903.54 13.4646Z" fill="#20E72E"/>
<path d="M1671.56 885.52C1660.29 871.965 1662.58 858.5 1671.56 847.234C1682.82 858.412 1680.53 871.967 1671.56 885.52Z" fill="#20E72E"/>
<path d="M2171.74 1363.17C2155.98 1365.46 2142.43 1367.66 2128.96 1360.88C2128.87 1347.41 2133.45 1347.41 2171.74 1363.17Z" fill="#20E72E"/>
<path d="M2207.72 1354.09C2225.76 1329.27 2234.74 1347.31 2246 1354.09C2234.83 1356.38 2221.27 1358.66 2207.72 1354.09Z" fill="#20E72E"/>
<path d="M2342.91 1356.39C2327.15 1356.39 2320.38 1354.1 2311.4 1354.1C2318.18 1351.9 2327.15 1349.61 2342.91 1356.39Z" fill="#20E72E"/>
<path d="M1389.91 1297.76C1376.36 1306.74 1367.38 1306.74 1358.4 1300.05C1365.09 1286.49 1376.36 1291.07 1389.91 1297.76Z" fill="#20E72E"/>
<path d="M1734.56 1158.09C1732.27 1173.84 1723.29 1171.64 1716.51 1169.35C1707.53 1169.35 1693.98 1173.84 1682.71 1155.8C1703.05 1158.08 1718.8 1144.62 1734.56 1158.09Z" fill="#20E72E"/>
<path d="M1516.02 1203.15C1525 1196.37 1531.78 1198.66 1540.84 1200.86C1538.55 1209.84 1529.58 1205.35 1525.09 1207.64C1522.8 1207.64 1520.51 1205.44 1516.02 1203.15Z" fill="#20E72E"/>
<path d="M2241.52 1187.4C2239.23 1191.89 2234.74 1191.89 2230.25 1191.89C2225.76 1189.6 2221.27 1187.4 2223.47 1180.62C2223.47 1178.33 2230.25 1176.13 2232.45 1176.13C2237.03 1178.42 2241.52 1180.62 2241.52 1187.4Z" fill="#20E72E"/>
<path d="M3132.08 1788.65C3136.43 1788.65 3139.99 1784.95 3139.99 1780.45V1758.4C3139.99 1753.89 3136.43 1750.2 3132.08 1750.2C3127.74 1750.2 3124.17 1753.89 3124.17 1758.4V1780.45C3124.23 1784.95 3127.79 1788.65 3132.08 1788.65Z" fill="#20E72E"/>
<path d="M3132.08 1941.47C3136.43 1941.47 3139.99 1937.78 3139.99 1933.27V1808.26C3139.99 1803.75 3136.43 1800.06 3132.08 1800.06C3127.74 1800.06 3124.17 1803.75 3124.17 1808.26V1933.27C3124.23 1937.78 3127.79 1941.47 3132.08 1941.47Z" fill="#20E72E"/>
<path d="M3190.3 1940.71C3223.92 1940.71 3251.26 1969.05 3251.26 2003.92C3251.26 2010.65 3256.49 2016.14 3263.04 2016.14H3539.06C3545.56 2016.14 3550.84 2010.71 3550.84 2003.92C3550.84 1969.05 3578.18 1940.71 3611.8 1940.71C3618.29 1940.71 3623.58 1935.28 3623.58 1928.49V1752.1C3623.58 1745.37 3618.34 1739.88 3611.8 1739.88C3578.18 1739.88 3550.84 1711.53 3550.84 1676.67C3550.84 1669.94 3545.61 1664.45 3539.06 1664.45L3262.99 1664.5C3256.49 1664.5 3251.2 1669.94 3251.2 1676.72C3251.2 1711.59 3223.87 1739.93 3190.25 1739.93C3183.76 1739.93 3178.47 1745.37 3178.47 1752.15V1928.54C3178.57 1935.22 3183.81 1940.71 3190.3 1940.71ZM3202.09 1763.46C3239.26 1758.08 3268.75 1727.45 3273.93 1688.9H3528.12C3532.93 1724.52 3558.59 1753.08 3591.79 1761.5V1900.31C3551.58 1900.31 3518.9 1933.97 3518.9 1975.68L3270.16 1975.73C3260.05 1944.94 3233.97 1921.76 3202.08 1917.14L3202.09 1763.46Z" fill="#20E72E"/>
<path d="M3242.72 1111.69L3285.55 1007.69C3286.86 1004.54 3285.45 1000.96 3282.41 999.6C3279.43 998.297 3275.92 999.709 3274.61 1002.86L3231.77 1106.85C3230.46 1110 3231.88 1113.59 3234.91 1114.94C3237.9 1116.25 3241.41 1114.84 3242.72 1111.69Z" fill="#20E72E"/>
<path d="M3230.52 1141.34L3236.91 1125.81C3238.22 1122.66 3236.8 1119.07 3233.77 1117.72C3230.78 1116.41 3227.27 1117.82 3225.96 1120.97L3219.57 1136.51C3218.27 1139.66 3219.68 1143.24 3222.72 1144.6C3225.7 1145.9 3229.21 1144.49 3230.52 1141.34Z" fill="#20E72E"/>
<path d="M3312.21 1485.14C3292.11 1485.14 3275.4 1499.15 3270.27 1518.1H3055.31C3025.93 1518.1 3002 1542.92 3002 1573.38C3002 1603.9 3025.93 1628.67 3055.31 1628.67H3084.48L3084.53 2002.71C3084.53 2043.23 3116.32 2076.24 3155.43 2076.24H3646.72C3685.79 2076.24 3717.63 2043.28 3717.63 2002.71L3717.52 1628.72H3746.69C3776.07 1628.72 3800 1603.9 3800 1573.44C3800 1542.92 3776.07 1518.16 3746.69 1518.16H3531.68C3526.55 1499.2 3509.84 1485.19 3489.73 1485.19H3443.28V1279.43H3585.77C3637.3 1279.43 3671.81 1224.8 3651.86 1175.6L3547.08 920.911C3535.76 893.596 3509.84 876 3480.99 876H3321.06C3292.36 876 3266.55 893.649 3255.24 920.965L3150.08 1175.59C3129.87 1224.85 3164.75 1279.37 3216.17 1279.37H3358.44V1485.14L3312.21 1485.14ZM3684.22 1628.72V1980.66C3684.22 2014.11 3657.67 2041.97 3625.1 2041.97H3133.81C3131.09 2041.97 3128.52 2041.21 3125.9 2040.83C3115.11 2031.82 3108.04 2018.19 3108.04 2002.71V1628.72L3684.22 1628.72ZM3766.7 1550.84C3766.7 1550.95 3766.75 1551.12 3766.75 1551.22C3766.75 1575.17 3748.42 1594.5 3725.33 1594.5H3033.94H3033.73C3028.71 1588.97 3025.51 1581.63 3025.51 1573.49C3025.51 1556.44 3038.87 1542.59 3055.31 1542.59H3746.75C3754.5 1542.53 3761.41 1545.79 3766.7 1550.84ZM3171.71 1185.15L3276.81 930.52C3284.4 912.219 3301.79 900.326 3321.06 900.326H3480.99C3489.26 900.326 3496.96 902.878 3503.93 906.734C3505.13 908.906 3506.65 910.861 3507.59 913.25L3612.48 1167.88C3629.39 1209.1 3600.23 1254.44 3557.23 1254.44L3212.31 1254.5C3178.84 1251.78 3158.83 1216.54 3171.71 1185.15Z" fill="#20E72E"/>
<path d="M3149.62 1569.11H3170.88C3175.22 1569.11 3178.78 1565.41 3178.78 1560.91C3178.78 1556.4 3175.22 1552.71 3170.88 1552.71H3149.62C3145.27 1552.71 3141.71 1556.4 3141.71 1560.91C3141.71 1565.41 3145.27 1569.11 3149.62 1569.11Z" fill="#20E72E"/>
<path d="M3197.69 1569.11H3318.23C3322.58 1569.11 3326.14 1565.41 3326.14 1560.91C3326.14 1556.4 3322.58 1552.71 3318.23 1552.71H3197.69C3193.34 1552.71 3189.78 1556.4 3189.78 1560.91C3189.83 1565.41 3193.34 1569.11 3197.69 1569.11Z" fill="#20E72E"/>
<path d="M367.786 2182.52C375.153 2198.51 385.761 2211.91 397.034 2223.92C419.871 2247.79 445.804 2266.21 471.885 2281.24C446.911 2264.52 422.084 2244.55 401.087 2220.09C380.68 2196.3 361.673 2164.03 372.944 2131.91C390.846 2074.96 446.69 2016.83 432.545 1955.61C445.217 1966.36 475.201 1992.44 475.865 2010.2L477.338 2046.89C500.692 2000.84 559.556 1890.92 571.05 1832.35C582.616 1776.44 640.449 1668.36 691.797 1625.2C626.524 1772.98 717.73 1871.55 719.129 1874.79C739.021 1890.41 773.352 1917.3 798.769 1937.34C818.218 1953.25 832.512 1957.45 855.496 2008.5C836.048 1956.12 820.575 1949.57 802.379 1933.14C778.067 1912.21 752.798 1890.41 726.571 1867.72C693.64 1821.96 676.253 1762.14 686.347 1702.4C692.019 1667.11 705.795 1631.82 720.53 1608.39C724.803 1601.39 719.352 1591.59 710.511 1591.59C708.006 1591.3 704.175 1593.36 704.691 1593.21C701.376 1596.01 674.485 1607.95 641.702 1650.24C596.468 1707.04 560.369 1783.29 550.718 1828.89C542.982 1870.44 504.82 1948.02 486.328 1986.11C461.574 1947.87 404.994 1914.13 368.012 1888.05C401.311 1936.01 439.915 1948.98 405.952 2030.75C383.041 2087.11 344.063 2133.53 367.786 2182.52Z" fill="#20E72E"/>
<path d="M375.16 2522.3C375.381 2522.3 375.528 2522.3 375.749 2522.23C452 2509.63 462.092 2513.46 460.913 2505.87C460.619 2503.74 458.703 2502.19 456.493 2502.48C456.567 2502.48 456.64 2502.41 456.714 2502.41L456.64 2501.75C389.157 2506.68 373.613 2511.18 370.077 2514.34L373.834 2514.64C369.34 2516.41 370.887 2522.3 375.16 2522.3Z" fill="#20E72E"/>
<path d="M549.69 2496.07C550.279 2496.58 551.016 2497.17 554.699 2497.17C561.772 2497.17 579.821 2494.81 628.814 2484.35C631.024 2483.91 632.424 2481.7 631.908 2479.56C631.466 2477.35 629.256 2475.88 627.119 2476.47C625.277 2476.84 623.362 2477.28 621.446 2477.65C622.478 2477.13 623.509 2476.62 624.172 2476.1C623.362 2475.44 618.499 2475.88 617.173 2475.95C597.208 2477.06 564.571 2475.66 548.512 2488.33L547.922 2489.88C548.364 2490.17 548.88 2490.25 549.322 2490.39C549.248 2490.47 549.248 2490.47 549.175 2490.47C547.701 2492.09 547.922 2494.67 549.69 2496.07Z" fill="#20E72E"/>
<path d="M297.589 1886.21C298.252 1892.91 299.872 1899.99 303.409 1906.32C307.239 1913.32 313.575 1920.39 321.09 1923.05C324.037 1923.93 326.763 1923.34 329.415 1922.46C338.55 1916.27 331.699 1894.17 333.54 1885.91C335.751 1875.75 344.075 1865.58 347.906 1853.13C355.347 1829.7 350.706 1801.04 332.509 1791.39C347.317 1803.84 347.391 1829.56 339.434 1849.59C335.677 1859.83 326.836 1868.67 322.563 1882.75C320.574 1890.19 321.974 1897.63 322.195 1903.3C322.416 1905.66 322.342 1910.74 322.269 1910.08C322.121 1909.93 322.637 1910.37 321.9 1909.78C313.87 1903.37 310.481 1894.75 309.081 1885.18C304.44 1857.47 325.878 1840.9 333.024 1823.14C338.55 1810.77 329.12 1800.75 332.656 1791.46C327.278 1800.45 334.277 1812.68 328.235 1820.86C319.616 1836.04 293.537 1853.72 297.589 1886.21Z" fill="#20E72E"/>
<path d="M887.623 1593.29C888.286 1633 912.967 1640.96 915.472 1644.94C916.209 1645.16 917.24 1647.15 917.756 1645.97C920.555 1640.59 920.924 1640.44 921.881 1637.2C925.196 1632.19 924.018 1616.87 924.239 1611.49C924.754 1576.42 972.641 1549.83 936.542 1501.35C936.395 1499.58 936.247 1497.67 936.321 1496.34C936.321 1490.97 930.133 1485.96 924.607 1489.79L924.312 1490.08C918.345 1495.16 916.724 1505.04 917.535 1511.81C920.26 1540.47 887.033 1546.88 887.623 1593.29ZM936.91 1515.06C952.97 1554.25 920.334 1568.69 912.967 1603.76C912.083 1607.88 911.862 1613.85 911.715 1618.27C911.715 1619.3 911.273 1620.33 910.61 1620.85C907.884 1617.46 908.547 1619.37 907 1615.91C900.811 1600.66 902.137 1582.24 909.063 1568.54C916.651 1551.89 936.246 1542.61 936.91 1515.06Z" fill="#20E72E"/>
<path d="M1086.39 2067.81C1070.92 2095.59 1075.12 2128.3 1096.85 2149.22C1103.85 2155.92 1120.2 2164.99 1131.62 2164.99H1132.51C1138.7 2164.69 1143.12 2160.79 1143.34 2154.08V2153.35L1143.12 2152.61C1138.25 2138.68 1108.57 2130.14 1100.76 2108.99C1093.46 2086.82 1101.93 2074.37 1114.97 2055.07C1110.55 2071.05 1102.23 2086.23 1106.5 2104.57C1107.98 2110.84 1110.19 2117.02 1116.52 2116.66L1118.22 2116.58L1119.39 2115.4C1122.93 2111.87 1123.23 2106.86 1123.45 2102.51C1124.11 2088.29 1138.7 2067.15 1138.99 2043.13C1139.21 2027.88 1130.22 1996.87 1119.84 1991.27L1117.41 1994.58L1119.4 1991.05L1113.28 1987.66C1113.5 2000.99 1114.39 2015.73 1111.07 2025.97C1106.13 2041.29 1094.71 2052.93 1086.39 2067.81ZM1121.68 2006.44C1127.2 2017.05 1131.03 2032.89 1130.96 2042.98C1130.81 2055.44 1126.76 2065.9 1122.56 2076.95C1114.16 2098.9 1116.23 2096.47 1115.2 2105.31C1111.36 2092.35 1114.83 2081.81 1119.17 2068.92C1126.25 2047.92 1125.07 2047.48 1126.54 2020.44C1117.99 2034.88 1119.76 2033.56 1108.34 2050.35C1094.2 2071.13 1084.69 2085.86 1093.17 2111.5C1101.49 2134.19 1130.67 2144.65 1135.23 2154.38C1134.35 2161.82 1110.19 2150.47 1102.6 2143.18C1083.3 2124.54 1079.76 2096.47 1093.61 2071.64C1096.48 2066.48 1099.94 2061.47 1103.26 2056.69C1116.59 2037.46 1121.68 2028.1 1121.68 2006.44Z" fill="#20E72E"/>
<path d="M462.387 1808.13C460.398 1813.29 466.513 1818.15 471.228 1817.93C475.722 1818.07 481.542 1814.91 489.056 1809.68C526.039 1779.99 532.155 1740.64 517.787 1716.04C509.021 1700.35 492.887 1693.72 480.952 1686.79C467.544 1680.9 462.313 1666.9 451.63 1659.02C460.397 1667.56 464.228 1682.96 477.71 1690.99C489.645 1699.61 503.275 1706.76 509.536 1719.87C523.607 1746.39 506.368 1780.57 482.646 1799.36C480.362 1800.98 479.846 1801.35 479.772 1801.35H479.699V1801.2C483.898 1795.9 487.213 1791.26 488.908 1787.28C514.546 1722.08 449.935 1698.94 451.776 1659.01C443.672 1699.39 503.347 1725.69 478.593 1782.42C476.015 1788.38 463.934 1799.07 462.387 1808.13ZM479.626 1801.35C479.921 1801.13 479.7 1801.35 479.626 1801.35Z" fill="#20E72E"/>
<path d="M253.381 2030.02V2029.87L253.233 2029.65C250.729 2026.85 247.708 2028.32 245.572 2028.4C247.634 2028.69 250.434 2027.95 252.202 2030.31C249.108 2044.68 227.154 2057.5 228.701 2106.64C229.585 2137.06 240.193 2150.69 245.203 2163.44L236.51 2158.72C187.813 2127.63 189.654 2046.23 245.572 2028.4C215.512 2034.44 197.61 2056.17 193.042 2085.12C182.36 2147.89 246.528 2188.85 258.685 2173.9C260.748 2171.32 259.495 2169.11 260.011 2166.68C250.286 2144.65 241.666 2137.35 238.205 2106.63C236.805 2092.71 237.689 2078.86 240.636 2066.04C242.331 2052.71 252.497 2043.35 253.381 2030.02Z" fill="#20E72E"/>
<path d="M1003.95 1869.63C1003.14 1892.76 1017.65 1913.76 1034.6 1924.3L1039.46 1926.36C1049.33 1920.91 1051.32 1920.1 1050.29 1904.48C1050 1878.99 1056.48 1873.9 1072.39 1840.38L1078.73 1808.92L1076.08 1785.64C1068.27 1772.01 1064.95 1749.77 1044.84 1739.23C1032.39 1744.98 1029.89 1746.16 1033.13 1744.61C1031.06 1753.38 1039.24 1777.69 1036.66 1792.2C1031.8 1818.87 1005.2 1835.22 1003.95 1869.63ZM1052.13 1769.95L1055.45 1776.14L1062.45 1806.2L1055.37 1838.76C1043.73 1863.3 1034.16 1873.32 1034.08 1902.86C1012.2 1879.95 1018.76 1858.29 1035.78 1831.69C1051.25 1807.67 1055.89 1795.88 1052.13 1769.95Z" fill="#20E72E"/>
<path d="M608.043 1544.01L610.106 1544.53L611.285 1544.01C612.021 1543.72 614.305 1543.5 616.957 1541.14C621.967 1536.2 619.904 1530.75 620.788 1527.44C625.503 1489.05 654.751 1485.74 673.391 1454.8C696.524 1418.92 690.556 1371.1 663.076 1342.59C661.971 1337.88 661.308 1334.12 656.814 1332.57C654.751 1330.81 651.51 1329.78 648.931 1333.68C648.416 1337.07 645.764 1335.6 645.985 1363.96C647.605 1380.39 637.439 1406.39 616.369 1432.99C596.477 1460.4 579.975 1477.49 588.816 1514.92C591.542 1526.41 596.551 1541.29 608.043 1544.01ZM609.811 1533.11C610.253 1533.33 610.179 1533.33 609.811 1533.11ZM603.181 1483.68C612.758 1450.23 671.548 1415.53 664.917 1353.35C689.08 1391 684.735 1439.4 640.384 1474.25C622.776 1488.98 613.199 1499.07 608.484 1521.25L607.674 1526.11V1526.26C605.022 1521.25 603.769 1516.53 602.664 1510.57C600.896 1501.14 600.75 1492 603.181 1483.68Z" fill="#20E72E"/>
<path d="M328.085 2341C326.464 2361.55 329.338 2401.78 339.431 2419.9C336.779 2402.22 333.905 2354.33 328.085 2341Z" fill="#20E72E"/>
<path d="M744.25 2582.94C743.808 2583.97 743.734 2585.07 743.219 2586.03C740.861 2590.82 748.155 2594.43 750.512 2589.57C769.225 2550.89 740.714 2500.35 739.535 2498.21C738.43 2496.22 735.925 2495.56 734.01 2496.74C733.715 2496.89 733.715 2497.18 733.494 2497.4C731.505 2494.38 729.368 2491.65 727.084 2490.26C748.449 2538.22 744.692 2563.78 744.25 2582.94Z" fill="#20E72E"/>
<path d="M726.351 2764.24C727.603 2755.69 720.163 2733.15 718.247 2723.42C716.258 2712.81 714.49 2702.2 712.869 2691.52L711.911 2690.42C703.734 2717.31 713.753 2752.45 726.351 2764.24Z" fill="#20E72E"/>
<path d="M757.508 2752.09C760.529 2733.38 754.119 2698.9 743.879 2687.85C743.511 2706.71 744.321 2736.11 755.888 2751.87L757.508 2752.09Z" fill="#20E72E"/>
<path d="M962.611 2472.36C960.916 2474.27 960.4 2474.72 959.811 2477.22C962.832 2483.7 976.24 2484.37 982.649 2483.19C984.638 2481.35 985.153 2481.05 985.816 2478.33C982.059 2471.7 969.831 2471.92 962.611 2472.36Z" fill="#20E72E"/>
<path d="M1068.77 2454.01C1071.28 2452.9 1073.19 2452.24 1074.74 2449.81C1073.86 2442.07 1056.91 2441.12 1049.1 2441.56C1046.82 2442.74 1044.98 2443.4 1043.58 2445.76C1043.43 2453.79 1061.19 2455.19 1068.77 2454.01Z" fill="#20E72E"/>
<path d="M1157.85 2512.36C1167.65 2510.3 1180.39 2505.21 1187.02 2497.41L1186.95 2495.86C1182.97 2494.97 1157.55 2497.77 1152.03 2505.22C1151.14 2506.39 1151.37 2507.13 1151.37 2508.53C1152.54 2510.74 1152.99 2511.7 1157.85 2512.36Z" fill="#20E72E"/>
<path d="M1102.97 2550.08L1103.56 2548.98C1081.82 2549.12 1004.39 2564.67 995.479 2572.92C1013.75 2574.69 1076.81 2568.87 1102.97 2550.08Z" fill="#20E72E"/>
<path d="M1012.85 2706.49C1019.19 2704.57 1033.92 2698.02 1034.73 2691.38C1032.38 2688.51 1029.8 2688.88 1025.53 2689.1C1017.86 2691.61 1008.88 2695.14 1003.79 2701.7L1003.43 2703.76C1005.93 2706.71 1008.51 2706.49 1012.85 2706.49Z" fill="#20E72E"/>
<path d="M1218.33 2652.62C1225.41 2650.71 1232.33 2648.5 1238.89 2645.18C1231 2644.3 1200.73 2639.58 1189.38 2648.57C1188.35 2650.34 1188.13 2651.3 1188.13 2653.29C1192.25 2660.58 1207.43 2655.57 1218.33 2652.62Z" fill="#20E72E"/>
<path d="M1126.69 2704.26C1146.44 2698.96 1168.91 2693.65 1186.66 2683.19C1180.55 2683.12 1174.36 2682.9 1168.24 2683.49C1154.32 2685.03 1121.39 2689.75 1111.08 2698.66C1110.12 2700.87 1110.04 2700.73 1110.93 2703.01C1115.05 2706.32 1119.18 2705.59 1126.69 2704.26Z" fill="#20E72E"/>
<path d="M985.752 2672.52C991.424 2670.31 998.055 2668.47 1003.21 2665.23C950.242 2670.53 914.806 2678.19 915.47 2688.21C916.427 2688.95 917.09 2689.61 918.269 2690.06C941.403 2690.35 964.387 2680.77 985.752 2672.52Z" fill="#20E72E"/>
<path d="M508.216 2667.73L508.806 2666.33C504.606 2661.69 489.799 2659.92 483.537 2659.85C481.253 2661.17 480.664 2661.47 479.412 2663.68C482.432 2670.23 496.356 2670.9 504.386 2669.28L508.216 2667.73Z" fill="#20E72E"/>
<path d="M228.032 2602.08L229.359 2599.72C225.675 2591.1 199.522 2591.4 191.05 2591.47C190.682 2593.68 190.166 2594.71 191.639 2596.63C197.238 2603.85 219.191 2604.21 228.032 2602.08Z" fill="#20E72E"/>
<path d="M500.842 2718.05L500.327 2719.45C507.989 2728.21 545.487 2730.06 551.897 2724.97L552.045 2723.35C544.825 2715.32 509.02 2714 500.842 2718.05Z" fill="#20E72E"/>
<path d="M380.837 2622.43C402.422 2638.34 448.099 2642.39 470.201 2637.46L469.98 2635.76C457.603 2627.22 396.383 2621.69 380.837 2622.43Z" fill="#20E72E"/>
<path d="M211.907 2693L212.644 2695.29C251.102 2706.85 312.1 2713.41 355.494 2705.75C314.09 2687.92 223.842 2687.33 211.907 2693Z" fill="#20E72E"/>
<path d="M212.04 2694.98L211.892 2692.92C211.745 2692.99 211.524 2692.99 211.376 2693.07L212.04 2694.98Z" fill="#20E72E"/>
<path d="M1079.68 2336.64C1078.57 2337.97 1078.72 2338.48 1078.5 2340.03C1079.53 2342.02 1079.82 2343.05 1082.11 2343.72C1086.67 2345.04 1117.4 2339.07 1135.67 2325.67C1131.61 2325.44 1127.41 2325 1123.36 2324.93C1113.71 2325.59 1086.01 2328.91 1079.68 2336.64Z" fill="#20E72E"/>
<path d="M964.61 2361.91C939.709 2359.34 920.333 2357.27 876.351 2370.39C887.918 2371.64 936.982 2373.41 964.61 2361.91Z" fill="#20E72E"/>
<path d="M780.197 2372.46C786.975 2370.03 795.079 2367.82 801.341 2364.28C801.783 2364.06 802.225 2363.76 802.593 2363.54L800.752 2363.4C753.602 2367.67 706.304 2375.7 659.007 2378.28C691.645 2393.9 742.33 2386.09 780.197 2372.46Z" fill="#20E72E"/>
<path d="M391.586 2377.38C430.559 2392.34 521.837 2383.5 556.906 2370.09C513.218 2369.13 435.127 2368.17 391.586 2377.38Z" fill="#20E72E"/>
<path d="M718.393 2313.95C683.545 2317.12 597.423 2322.21 573.627 2330.46L573.848 2331.12C577.164 2331.34 598.97 2337.01 656.949 2332.81C677.062 2331.34 834.867 2308.35 844.076 2301.65C840.393 2300.47 750.442 2311.08 718.393 2313.95Z" fill="#20E72E"/>
<path d="M1077.69 2293.7L1077.62 2293.04L1077.18 2292.89C1012.49 2321.92 942.948 2316.17 874.509 2325.3C865.816 2326.48 844.45 2328.77 837.083 2331.86V2332.67C884.307 2348 1024.87 2332.08 1077.69 2293.7Z" fill="#20E72E"/>
<path d="M1367.82 2752.37C1364.94 2749.65 1250.97 2738.23 1191.74 2733.15L1251.93 2715.24C1252.01 2715.39 1252.01 2715.61 1252.01 2715.76C1253.11 2719 1306.97 2710.31 1310.36 2708.76H1310.72C1310.13 2706.85 1291.2 2705.15 1274.99 2704.41L1275.44 2703.16C1317.8 2586.39 1234.4 2535.41 1232.63 2534.31C1263.35 2455.62 1220.92 2377.61 1184.38 2373.48C1178.04 2372.6 1177.89 2375.99 1185.26 2382.98L1186.15 2383.8C1226.52 2421.07 1236.24 2506.97 1206.33 2545.06C1183.12 2575.64 943.404 2608.79 902.063 2614.83C940.371 2507.93 859.628 2404.2 858.744 2403.09C858.228 2402.43 857.491 2402.21 856.754 2401.98C923.649 2400.22 983.839 2397.27 1030.32 2382.17C1057.66 2376.49 1169.42 2372.22 1178.77 2371.63C1177.37 2371.12 1176.64 2370.89 1175.24 2370.38C1144.3 2366.92 1035.41 2369.79 998.94 2381.43C941.328 2397.86 755.08 2389.61 732.165 2397.27C705.348 2419.3 681.92 2452.89 674.921 2489.36C666.081 2529.29 684.056 2566.94 706.233 2600.53C686.709 2578.13 659.45 2539.9 663.134 2503.43L420.311 2532.23L514.464 2539.68L508.644 2541.3C503.045 2537.39 512.696 2538.94 313.198 2578.13C334.636 2527 311.356 2427.4 273.562 2385.4L293.674 2380.39C315.259 2477.71 366.83 2501.44 386.058 2459.52C458.256 2485.52 618.866 2459.44 693.929 2435.43C589.314 2435.2 434.679 2460.4 386.567 2458.34C405.28 2414.94 383.694 2319.24 350.099 2282.26C452.06 2295.37 576.269 2301.42 704.309 2297.07C840.971 2292.28 981.683 2273.57 1101.03 2240.78C1126.37 2248.96 1146.12 2270.77 1152.89 2294.71C1160.92 2319.17 1158.86 2344.73 1155.1 2367.87C1161.15 2345.47 1165.93 2319.98 1159.52 2293.17C1154 2266.42 1134.48 2239.75 1103.09 2228.41L1101.91 2227.97C1078.56 2232.39 1024.04 2245.57 912.578 2259.2C995.754 2199.01 1004.01 2100.14 952.949 2009.74C933.722 1975.41 899.685 1948.3 906.241 1902.99C910.366 1866.01 939.54 1844.35 947.276 1834.4C934.973 1836.68 902.337 1826.22 866.384 1860.7C859.385 1867.26 857.691 1869.84 854.67 1873.23L854.744 1867.7C855.775 1784.89 814.372 1741.94 797.575 1716.53C773.189 1679.62 757.057 1628.34 752.562 1584.43C752.194 1630.33 764.718 1683.45 787.483 1722.79C806.49 1755.5 838.76 1790.34 835.959 1867.63C836.254 1874.7 832.57 1889.8 841.779 1895.4C846.347 1898.86 852.683 1899.82 858.282 1897.24C864.839 1894.59 874.71 1874.48 898.653 1862.18C857.25 1937.47 921.197 1992.06 936.815 2018.43C987.575 2101.9 985.807 2192.74 910.514 2259.48C885.393 2262.58 859.975 2265.16 834.411 2267.59C845.683 2260.29 857.322 2251.38 868.447 2240.11C880.824 2226.41 895.044 2212.41 899.683 2187.88C901.083 2144.26 879.054 2112.29 889.738 2083.19C877.655 2093.35 875.224 2113.84 875.887 2131.74C876.256 2149.93 880.234 2169.75 879.276 2185.59C877.361 2198.93 865.942 2216.02 856.586 2230.31C847.524 2243.79 839.052 2256.39 831.242 2267.96C810.171 2269.95 788.954 2271.71 767.81 2273.19C771.346 2269.73 774.735 2265.97 777.093 2261.18C782.544 2250.42 784.754 2237.68 784.607 2224.86C783.134 2181.76 759.706 2143.75 756.611 2136.53C754.328 2139.84 743.94 2155.09 742.245 2157.6C731.047 2093.13 676.382 2056.74 650.818 2031.69C663.195 2065.73 682.718 2087.68 670.342 2113.32C664.816 2125.25 653.471 2135.86 641.978 2142.64L640.357 2143.6L639.915 2144.04C585.766 2195.54 596.154 2248.8 648.314 2279.6C607.869 2281 568.159 2281.81 529.554 2282.17C482.698 2235.1 426.413 2157.74 455.587 2098.07C474.005 2111.33 492.866 2124.96 513.936 2140.14L530.07 2151.78L525.355 2131.96C510.032 2067.13 496.254 2046.2 541.195 2004.36C531.986 2073.83 579.135 2089.23 593.06 2107.2C591.586 2094.31 562.486 2032.5 604.553 1996.11C615.014 1984.98 664.079 1970.4 657.155 1875.88C744.456 1978.65 721.692 2039.43 722.577 2043.33C725.892 2043.04 776.873 2056.67 796.248 2011.51C796.837 2014.31 814.813 2094.61 816.066 2100.21L819.97 2095.71C840.45 2072.36 867.12 2049.89 897.915 2051.66C869.036 2047.9 841.703 2066.1 819.676 2087.68C817.466 2075.09 797.28 1958.39 795.069 1945.42C789.249 1965.39 801.7 2034.57 738.637 2030.22C745.783 1961.26 697.675 1888.62 649.936 1838.83L627.54 1815.47C630.045 1836.47 655.166 1919.87 615.9 1961.27C607.206 1972.69 567.792 1983.3 562.266 2040.1C553.72 2010.85 569.559 1969.67 571.769 1952.28C499.792 2015.57 478.722 2028.09 505.465 2116.42C481.375 2100.29 473.933 2095.28 451.243 2080.1C451.316 2083.35 411.903 2125.12 463.251 2207.92C482.479 2237.32 505.022 2261.56 528.597 2282.18C464.06 2282.7 402.986 2281.89 348.101 2280.12C319.148 2250.8 278.408 2267.38 289.679 2356.45L246.212 2367.2C218.363 2360.87 203.556 2386.65 199.062 2415.46C194.789 2442.94 197.589 2482.5 212.028 2524.64C185.358 2529.06 171.066 2523.24 161.195 2537.61L169.078 2539.52C141.967 2556.69 112.939 2616.73 131.946 2692.83C117.359 2691.87 26.8905 2703.22 20.7761 2704.91H20.0394C22.3231 2708.08 129.957 2706.39 134.305 2704.62C134.378 2704.4 134.526 2704.1 134.599 2703.88C140.935 2725.4 145.503 2732.91 147.934 2738.88C112.939 2741.53 8.7678 2755.75 1.03142 2757.66L0 2757.74C3.02062 2760.46 127.452 2753.61 154.858 2750.81C154.931 2750.89 154.931 2750.96 155.005 2750.96C159.941 2756.41 166.719 2759.87 174.012 2760.76C200.533 2762.75 253.946 2766.8 280.026 2768.72C194.862 2783.67 132.903 2796.19 99.1623 2802.83C103.73 2805.04 281.942 2780.72 333.29 2772.55C387.881 2776.16 442.03 2779.69 493.306 2783.08C403.206 2797.08 297.785 2816.09 209.161 2831.92C216.013 2834.28 525.727 2792.07 538.25 2788.68C539.06 2787.87 539.87 2787.06 540.681 2786.25C616.341 2791.18 630.487 2791.11 654.872 2794.5C599.398 2806.58 437.982 2847.98 426.12 2851.89L424.499 2852.26C430.024 2854.39 666.737 2805.99 676.091 2802.31C677.344 2800.39 678.67 2798.48 679.922 2796.49C679.112 2795.97 678.596 2795.09 677.933 2794.28C679.406 2794.06 680.806 2793.84 682.28 2793.39C692.225 2811.52 701.728 2820.8 717.054 2830.01C691.415 2837.89 631.889 2863.6 617.228 2869.87C620.322 2872.3 723.168 2842.46 726.925 2839.59C727.072 2838.26 727.293 2836.93 727.441 2835.53C752.785 2847.32 787.925 2850.64 807.89 2847.25L818.499 2844.08C861.892 2865.52 962.085 2897.2 1010.57 2888.51L1011.89 2888.43C1010.79 2887.47 998.266 2888.14 979.922 2885.26C935.129 2878.71 878.549 2856.53 836.851 2838.55L930.34 2810.78C933.214 2813.73 991.93 2835.09 1054.4 2847.03C1092.56 2855.2 1137.36 2860.36 1192.1 2859.92C1185.39 2855.94 1106.56 2861.1 948.972 2805.26L1063.83 2771.15C1067.07 2775.49 1108.62 2791.55 1152.75 2794.79C1183.62 2798.11 1220.01 2797.81 1250.95 2795.24C1246.75 2790.96 1161.22 2797.3 1081.06 2766.06L1159.16 2742.85C1190.02 2747.35 1362.49 2752.21 1367.79 2752.36L1367.82 2752.37ZM650.836 2157.04C672.791 2145.25 690.472 2126.69 693.197 2101.42C712.795 2126.02 726.94 2155.35 725.318 2184.44L723.329 2221.35C725.465 2217.82 752.798 2172.73 755.081 2168.9C764.659 2187.24 772.173 2206.55 774.826 2225.48C776.299 2237.05 775.857 2248.54 772.321 2259.07C770.479 2264.53 767.532 2269.31 764.07 2273.59C744.031 2274.99 723.992 2276.24 703.954 2277.27C685.536 2278.15 667.265 2278.89 649.067 2279.55C604.716 2242.72 601.329 2199.69 650.836 2157.04ZM312.827 2314.03C314.742 2298.05 319.384 2291.71 321.299 2291.27C321.447 2291.2 321.668 2291.2 321.889 2291.2C337.876 2291.2 375.67 2370.32 368.301 2432.28C366.386 2448.26 361.671 2454.6 359.829 2455.04C358.135 2455.34 350.988 2451.95 342.148 2438.47C321.741 2407.38 308.406 2350.94 312.827 2314.03ZM1195.93 2573.28C1202.63 2571 1210.22 2566.51 1217 2560.91C1218.47 2559.21 1219.72 2557.44 1220.98 2555.75C1228.05 2560.24 1284.19 2599.29 1254.5 2689.02L873.241 2802.48C890.186 2772.2 886.355 2731.82 886.208 2729.98C885.987 2727.77 883.924 2726.08 881.714 2726.37C879.504 2726.59 877.883 2728.66 878.104 2730.87C878.177 2731.31 882.892 2777.43 862.117 2805.42C862.043 2805.57 862.117 2805.72 861.97 2805.86L811.357 2820.89C858.801 2733.3 813.641 2662.06 800.159 2643.93C815.925 2641.8 831.691 2639.66 847.456 2637.45C846.351 2638.85 846.056 2640.69 847.161 2642.24C855.854 2653.88 878.103 2687.32 876.115 2701.91C875.82 2704.12 877.367 2706.19 879.578 2706.48H880.093C882.082 2706.48 883.851 2705.01 884.145 2702.94C886.871 2682.69 855.855 2639 852.613 2636.71C922.527 2627.28 1130.14 2600.98 1195.93 2573.28ZM685.237 2517C682.805 2477.73 703.213 2439.79 731.945 2412.24C740.27 2404.65 725.683 2405.53 854.462 2402.14C854.02 2402.29 853.504 2402.22 853.062 2402.51C851.294 2403.91 850.999 2406.49 852.399 2408.26C853.209 2409.29 933.439 2512.13 892.991 2616.23C873.32 2619.1 853.578 2622.05 833.613 2624.99C875.68 2569.89 847.389 2500.12 846.137 2497.1C845.253 2494.96 842.821 2494.01 840.832 2494.89C838.77 2495.77 837.812 2498.13 838.622 2500.19C838.917 2500.86 867.576 2570.77 825.582 2622.49C824.698 2623.6 824.698 2624.92 825.066 2626.25C767.823 2634.65 777.696 2633.69 770.403 2633.39C821.679 2573.06 792.209 2464.17 734.672 2410.54C766.719 2484.29 792.505 2556.78 770.035 2633.39C746.828 2632.36 729.073 2611.96 715.371 2591.4C700.563 2567.97 687.079 2543.59 685.237 2517ZM223.167 2419.09C224.566 2409.88 229.355 2390.5 238.638 2390.5C262.36 2390.5 306.417 2481.93 295.585 2551.99C292.639 2571.29 286.229 2579.32 281.661 2580.43C277.168 2581.68 267.811 2577.11 256.54 2561.2C244.531 2544.18 234.438 2519.95 228.103 2492.91C221.693 2465.87 219.925 2439.72 223.167 2419.09ZM279.305 2747.36C175.502 2739.19 172.924 2740.88 169.829 2734.62C168.945 2732.7 160.62 2713.62 159.441 2710.09C142.938 2666.03 143.454 2617.85 162.756 2580.13C171.228 2563.41 177.785 2556.85 172.112 2551.84C175.28 2545.28 175.501 2542.63 174.838 2540.94L223.608 2552.8C227.66 2560.98 231.933 2568.71 236.575 2575.34C253.003 2598.55 277.904 2615.71 299.933 2597.52L381.267 2581.09L714.862 2619.18C676.848 2662.57 654.452 2725.26 676.184 2781.4C645.095 2775.36 641.402 2775.73 279.305 2747.36ZM734.68 2633.47C757.371 2651 775.936 2647.24 790.155 2645.33L778.441 2655.72C781.167 2658.81 842.608 2730.94 781.093 2823.69C671.984 2817.2 671.248 2704.12 734.68 2633.47Z" fill="#20E72E"/>
<path d="M2728.08 2881.48C2728.24 2881.12 2728.19 2880.81 2728.29 2880.5C2728.5 2879.83 2728.6 2879.21 2728.7 2878.48C2728.76 2877.81 2728.76 2877.19 2728.7 2876.51C2728.6 2875.84 2728.5 2875.22 2728.29 2874.6C2728.08 2873.92 2727.87 2873.3 2727.56 2872.68C2727.41 2872.37 2727.36 2872.06 2727.15 2871.75C2705.76 2840 2682.5 2818.55 2659.14 2804.83C2658.42 2804.31 2657.64 2803.84 2656.86 2803.53C2609.88 2777.06 2562.64 2781.67 2529.13 2799.54C2491.68 2819.59 2457.08 2832.9 2426.21 2839.06C2399.38 2844.45 2375.35 2845.07 2354.68 2840.77C2347.58 2839.43 2342.04 2837.56 2337.85 2835.9C2339.3 2829.38 2340.59 2822.64 2341.52 2815.55L2342.3 2814.72C2368.87 2787.58 2377.99 2755.62 2369.18 2721.85C2379.13 2698.74 2382.96 2663.83 2352.19 2621.98C2351.78 2608.93 2350.02 2594.84 2346.91 2579.82L2346.08 2576.04C2341.32 2554.96 2335.72 2531.08 2304.9 2502.64C2290.19 2448.05 2253.93 2403.4 2197.11 2369.94C2168.88 2339.27 2132.21 2314.51 2087.92 2296.33C2056.07 2283.28 2013.91 2278.41 1971.23 2281.93C1958.64 2232.78 1935.85 2183.52 1902.86 2135.4C1902.65 2135.03 1902.23 2134.83 1901.97 2134.46C1901.51 2133.89 1900.99 2133.38 1900.42 2132.96C1899.9 2132.55 1899.23 2132.24 1898.61 2131.98C1898.19 2131.77 1897.88 2131.46 1897.42 2131.31C1897.21 2131.2 1897 2131.31 1896.79 2131.2C1896.07 2131.05 1895.45 2131.05 1894.67 2131.05C1894.1 2131.05 1893.43 2130.94 1892.75 2131.05C1892.13 2131.15 1891.51 2131.36 1890.89 2131.62C1890.27 2131.82 1889.65 2132.03 1889.03 2132.39C1888.77 2132.6 1888.56 2132.65 1888.35 2132.76C1887.94 2133.01 1887.73 2133.43 1887.37 2133.74C1886.9 2134.15 1886.33 2134.62 1885.97 2135.19C1885.55 2135.81 1885.19 2136.43 1884.93 2137.11C1884.73 2137.52 1884.47 2137.83 1884.31 2138.25C1884.21 2138.61 1884.1 2138.97 1884 2139.33V2139.44C1868.57 2190.15 1864.06 2246.76 1869.96 2307.63C1840.75 2320.99 1816.56 2339.22 1797.66 2361.81C1750.47 2318.5 1665.42 2262.2 1537.89 2255.52C1533.96 2255.31 1530.33 2257.28 1528.41 2260.65C1526.45 2264.01 1526.55 2268.16 1528.62 2271.42C1548.87 2303.02 1570.16 2328.35 1591.81 2349.01C1592.43 2349.84 1593.16 2350.57 1594.09 2351.19C1654.18 2407.6 1715.97 2426.35 1761.14 2431.32C1761.04 2431.89 1760.83 2432.35 1760.68 2432.98C1758.55 2441.42 1757.2 2449.08 1756.22 2456.49C1726.44 2482.49 1664.75 2555.73 1663.71 2717.7C1663.71 2727.59 1663.71 2738.78 1662.73 2750.7C1660.14 2788.51 1650.35 2843.77 1594.98 2886.88L1585.08 2894.59L1594.56 2902.83C1595.86 2904.02 1628.7 2932.04 1684.27 2932.04C1703.23 2932.04 1722.65 2928.62 1742.18 2922.15C1736.69 2962.14 1737.73 3008.65 1763.94 3034.24C1776.47 3046.46 1793.31 3052.57 1814.02 3052.57C1822.83 3052.57 1832.26 3051.48 1842.41 3049.26L1846.76 3048.33C1865.56 3044.18 1885.24 3040.14 1911.45 3040.14C1915.03 3056.97 1922.64 3069.41 1934.66 3076.71C1942.95 3081.68 1952.63 3084.17 1964.03 3084.17C1978.27 3084.17 1995.16 3080.23 2014.84 3072.41L2026.13 3067.96C2043.69 3060.96 2067.36 3051.69 2090.36 3044.96C2107.04 3056.66 2128.33 3063.5 2150.24 3063.5H2151.43C2181.88 3063.14 2239.02 3049.41 2284.24 2964.93C2287.4 2965.14 2290.87 2965.24 2294.75 2965.24C2307.81 2965.24 2324.8 2963.95 2345.57 2959.65C2377.42 2953.17 2411.35 2941.93 2446.26 2926.29C2468.07 2916.71 2491.12 2905.05 2516.65 2890.6L2519.14 2889.15C2552.55 2870.09 2603.1 2841.29 2714.46 2887.08C2715.65 2887.55 2716.79 2887.7 2717.98 2887.75C2718.08 2887.75 2718.29 2887.86 2718.4 2887.86C2720.26 2887.86 2721.97 2887.24 2723.47 2886.3C2723.68 2886.2 2723.89 2886.25 2724.09 2886.1C2724.4 2885.89 2724.51 2885.58 2724.77 2885.42C2725.28 2885.01 2725.75 2884.49 2726.27 2883.97C2726.68 2883.45 2727.1 2882.89 2727.36 2882.26C2727.72 2882 2727.98 2881.8 2728.08 2881.48ZM2688.56 2855.79C2673.07 2850.92 2658.67 2847.4 2645.52 2845.23C2648.16 2837.92 2651.53 2831.76 2655.41 2826.63C2666.49 2834.09 2677.58 2843.62 2688.56 2855.79ZM2418.55 2861.23C2419.89 2881.69 2424.04 2898.58 2428.75 2911.22C2401.71 2922.77 2375.56 2931.47 2350.64 2937.22C2345.41 2916.81 2344.22 2889.77 2358.46 2862.27C2376.59 2865.01 2396.74 2864.65 2418.55 2861.23ZM2097.67 3025.02C2096.63 3024.35 2095.96 3023.78 2094.92 3022.74C2065.24 2995.5 2058.04 2966.85 2072.96 2935.31L2076.07 2929.92C2093.47 2897.91 2129.37 2871.39 2147.19 2859.58C2147.55 2859.89 2147.81 2860.3 2148.22 2860.56C2127.09 2881.39 2090.94 2924.43 2092.65 2973.43C2093.47 2996.17 2102.33 3017.25 2118.7 3036.62C2111.08 3033.72 2103.94 3029.99 2097.67 3025.02ZM1940.94 2899.26C1937.78 2900.14 1935.29 2902.42 1934.05 2905.42C1933.94 2905.83 1931.25 2912.46 1927.73 2922.93C1922.13 2912.21 1917.57 2900.03 1914.42 2885.74C1911.98 2874.55 1910.48 2862.58 1909.55 2848.86C1908.46 2830.11 1909.34 2809.34 1912.03 2786.29C1924.98 2769.92 1938.24 2751.43 1951.55 2731.49C1961.5 2754.12 1976.88 2771.21 1997.08 2781.63C1986.05 2823.89 1971.08 2858.03 1954.61 2878.12C1952.75 2880.4 1951.92 2883.46 1952.38 2886.41C1952.9 2889.36 1954.66 2891.95 1957.25 2893.56C1958.44 2894.28 1979.68 2906.92 2008.22 2906.92C2018.53 2906.92 2029.77 2905.26 2041.47 2900.81C2076.8 2887.24 2104.05 2851.96 2122.8 2796.44C2125.07 2799.86 2127.87 2803.53 2131.34 2807.26C2129.27 2821.04 2130.31 2833.06 2134.6 2843.06C2114.51 2856.47 2080.63 2882.16 2060.85 2914.64L2060.38 2915.41C2034.07 2919.25 1979.58 2923.7 1949.95 2901.07C1947.41 2899 1943.99 2898.38 1940.94 2899.26ZM1888.93 2846.01C1871.42 2869.06 1850.19 2873.31 1831.54 2870.3C1850.76 2854.56 1869.97 2835.91 1888.98 2814.21C1888.46 2825.24 1888.46 2835.81 1888.93 2846.01ZM1810.67 2886.31C1818.75 2889.05 1829.73 2891.8 1842.11 2891.8C1857.65 2891.8 1875.15 2887.5 1891.31 2873.77C1891.83 2877.19 1892.45 2880.51 1893.07 2883.77C1865.16 2906.82 1840.03 2917.49 1818.54 2915.31C1805.28 2913.97 1795.28 2907.75 1787.88 2900.92C1795.18 2896.72 1802.79 2891.9 1810.67 2886.31ZM1987.71 2482.75C1982.22 2473.64 1975.23 2465.87 1967.36 2459.19C1969.43 2453.33 1971.35 2447.07 1973.11 2440.33C2011.18 2462.45 2049.45 2522.33 2015.58 2614.26L2014.75 2616.59C2003.2 2647.46 1981.86 2704.86 2005.63 2748.21C2010.19 2756.6 2016.67 2763.54 2024.13 2769.86C2020.4 2768.88 2016.67 2767.79 2013.35 2766.34C1989.73 2756.81 1973.88 2737.23 1965.65 2708.69C1996.88 2651.04 2027.39 2546.61 1987.71 2482.75ZM1843.92 2421.53C1845.06 2418.42 1844.65 2414.9 1842.83 2412.15C1842.68 2411.95 1842.21 2411.22 1841.8 2410.76C1862.57 2409.25 1878.89 2409.98 1889.56 2411.01C1891.27 2417.13 1893.03 2423.14 1894.89 2428.83C1878.16 2426.35 1859.62 2425.62 1838.38 2427.07C1840.87 2425.93 1842.94 2424.12 1843.92 2421.53ZM1950.16 2284.12C1944.36 2284.94 1938.19 2285.98 1931.87 2287.22C1923.07 2261.64 1915.35 2248.53 1914.99 2247.96C1913.23 2244.96 1910.07 2243.09 1906.6 2242.94C1903.07 2242.63 1899.81 2244.39 1897.74 2247.19C1894.17 2252.11 1891.01 2257.34 1888.21 2262.72C1887.85 2229.16 1891.47 2197.46 1898.41 2167.57C1922.45 2206.11 1939.85 2245.16 1950.16 2284.12ZM1958.29 2411.12C1956.84 2410.55 1955.39 2409.93 1953.94 2409.41C1951.71 2372.27 1946.22 2338.04 1937.73 2307.17C1943.79 2306.03 1949.59 2305.04 1955.08 2304.32C1964.09 2348.76 1962.49 2385.33 1958.29 2411.12ZM1918.51 2433.91C1914.88 2423.76 1911.26 2412.47 1907.94 2400.24C1902.61 2381.03 1895.41 2350.52 1891.21 2314.36C1893.91 2302.92 1898.21 2288.57 1905.04 2275C1907.94 2281.89 1911.47 2290.95 1914.99 2302.19C1925.4 2335.91 1931.72 2374.6 1933.79 2417.34C1934.26 2425.05 1934.52 2432.25 1934.67 2439.09C1929.7 2437.07 1924.1 2435.41 1918.51 2433.91ZM2101.62 2789.35C2102.19 2789.45 2102.76 2789.55 2103.27 2789.66C2086.7 2839.02 2063.6 2870.05 2034.28 2881.34C2012.06 2889.99 1990.82 2885.07 1978.6 2880.56C1996.83 2853.63 2008.85 2818.1 2016.62 2788.78C2028.48 2792.3 2041.27 2794.58 2055.73 2794.58C2062.67 2794.58 2069.87 2794.16 2077.32 2793.34C2085.82 2792.56 2093.59 2791.21 2101.62 2789.35ZM2169.11 2849.22C2163.72 2847.05 2159.78 2844.15 2156.73 2840.16C2153.52 2835.86 2151.65 2830.32 2151.13 2823.48C2162.89 2830.47 2177.29 2835.55 2195.21 2835.55C2224.74 2835.55 2263.22 2822.6 2313.1 2785.62C2324.6 2777.23 2339.1 2765.21 2351.54 2750.09C2350.45 2769.04 2341.64 2786.76 2324.7 2802.92L2321.8 2805.92C2300.46 2825.55 2271.46 2838.66 2252.6 2844.05C2204.74 2857.15 2180.87 2854.09 2169.11 2849.22ZM2332.22 2855.85C2333.98 2856.48 2335.69 2857.1 2337.55 2857.62C2323.26 2888.49 2324.66 2918.27 2330.3 2941.22C2316.06 2943.49 2304.2 2944.43 2294.82 2944.43L2297.62 2938.73C2308.96 2915.78 2322.53 2887.55 2332.22 2855.85ZM2348.85 2716.57C2336.57 2742.83 2309.69 2762.41 2300.83 2768.89C2236.24 2816.8 2185.06 2827.26 2152.53 2799.24L2149.42 2796.08C2148.18 2794.94 2147.25 2793.8 2146.21 2792.71C2151.29 2792.3 2156.16 2791.73 2160.66 2790.85C2170.92 2792.14 2180.86 2792.92 2190.39 2792.92C2223.02 2792.92 2250.94 2785.2 2273.58 2769.82C2316.31 2740.71 2341.54 2703.31 2349.41 2658.35C2357.75 2678.5 2357.75 2698.03 2348.85 2716.57ZM2325.74 2580.6L2326.57 2584.33C2329.73 2599.04 2331.39 2612.92 2331.65 2625.67C2332.22 2678.14 2308.75 2720.87 2261.93 2752.78C2247.53 2762.57 2230.08 2768.21 2210.08 2770.65C2244.27 2748.27 2272.44 2709.89 2293.84 2655.19C2302.95 2631.99 2315.18 2589.98 2311.34 2541.81C2320.05 2555.38 2322.84 2567.76 2325.74 2580.6ZM2285.24 2509.23V2512.8L2286.12 2513.58C2300.1 2571.85 2282.86 2626.49 2274.62 2647.53C2247.17 2717.56 2209.05 2758.48 2161.29 2769.67C2217.02 2740.14 2270.68 2672.18 2267.73 2557.56C2266.44 2507.63 2255.56 2463.39 2235.62 2425.01C2260.12 2449.25 2276.85 2477.42 2285.24 2509.23ZM2079.97 2315.56C2121.98 2332.81 2156.63 2356.23 2182.95 2385.18C2223.71 2429.78 2245.21 2487.94 2247.02 2558.08C2250.13 2680.16 2184.55 2743.98 2127.78 2761.43L2122.34 2763.09C2120.69 2763.61 2119.13 2763.97 2115.92 2764.8C2110.27 2766.46 2104.99 2767.65 2101.36 2768.42L2098.93 2768.74C2091.63 2770.55 2084.63 2771.74 2077.02 2772.57C2051.02 2766.66 2032.94 2755.22 2023.72 2738.33C2004.51 2703.27 2023.83 2651.62 2034.08 2623.91L2035.01 2621.53C2074.9 2513.27 2024.55 2443.14 1977.83 2419.53C1982.85 2391.97 1985.5 2351.67 1975.86 2302.21C2013.98 2299.46 2052.21 2304.22 2079.97 2315.56ZM1872.68 2329.39C1875.53 2349.75 1879.41 2370.06 1884.33 2389.84C1870.35 2388.91 1850.56 2388.75 1826.53 2391.4C1822.54 2386.79 1818.03 2381.81 1812.54 2376.22C1828.29 2357.06 1848.49 2341.36 1872.68 2329.39ZM1557.86 2277.86C1682.95 2290.55 1762.66 2354.93 1800.16 2393.78C1796.9 2391.86 1793.63 2389.84 1790.37 2388.13C1714.96 2346.95 1648.5 2335.3 1604.68 2332.92C1588.88 2317.59 1573.14 2299.46 1557.86 2277.86ZM1790.79 2412.22C1790.22 2412.22 1789.85 2412.27 1789.34 2412.27C1752.46 2412.27 1692.89 2403.05 1632.03 2356.33C1671.76 2361.72 1723.4 2375.13 1780.53 2406.31C1783.85 2408.13 1787.32 2410.2 1790.79 2412.22ZM1789.28 2432.99C1792.55 2432.99 1795.71 2432.89 1798.71 2432.78C1795.97 2433.66 1792.91 2434.75 1789.44 2436.31C1786.49 2437.55 1783.28 2439.1 1780.32 2440.61C1780.53 2439.72 1780.53 2439.05 1780.74 2438.17C1781.2 2436.31 1781.83 2434.6 1782.4 2432.84C1784.73 2432.89 1787.11 2432.99 1789.28 2432.99ZM1772.45 2469.82C1777.27 2465.83 1780.58 2463.81 1780.53 2463.81C1780.63 2463.76 1790.17 2458.47 1797.62 2455.32C1804.77 2452.21 1810.57 2450.76 1810.47 2450.76C1849.58 2445.37 1882 2445.78 1908.06 2452.36C1920.33 2455.11 1930.95 2459.25 1940.27 2464.85C1942.03 2465.78 1943.54 2466.66 1944.88 2467.54L1949.23 2471.01C1950.37 2471.84 1951.25 2472.87 1952.34 2473.75C1859.83 2466.19 1828.19 2535.19 1817.25 2559.43C1782.13 2637.69 1724.43 2695.55 1684.38 2729.06C1684.44 2725.23 1684.49 2721.29 1684.49 2717.82C1685.42 2559.01 1746.35 2491.47 1772.45 2469.82ZM1618.52 2894.24C1669.07 2849.29 1679.89 2795.57 1682.95 2756.78C1723.92 2724.82 1794.73 2660.12 1836.12 2567.98C1855.23 2525.87 1887.86 2480.24 1972.03 2497.43C2004.15 2555.45 1973.17 2653.45 1945.31 2702.7L1944.11 2704.88C1942.61 2707.36 1941.32 2709.74 1939.82 2712.07C1924.95 2734.76 1910.24 2755.22 1895.89 2773.25C1894.34 2774.39 1893.04 2775.84 1892.42 2777.7C1862.9 2814.94 1832.85 2844.83 1803.12 2866.48C1789.86 2876.17 1777.95 2883.58 1766.45 2889.32C1761.17 2892.17 1756.2 2894.61 1751.12 2896.73C1728.38 2906.47 1705.85 2911.39 1684.2 2911.39C1653.59 2911.34 1630.9 2901.34 1618.52 2894.24ZM1842.38 3028.14L1838.14 3029.08C1811.05 3034.88 1791 3031.67 1778.47 3019.44C1754.74 2996.29 1759.1 2944.96 1764.58 2913.16C1765.98 2912.48 1767.43 2911.81 1768.78 2911.08C1779.04 2922.22 1794.52 2933.61 1816.54 2935.89C1819.08 2936.15 1821.72 2936.31 1824.31 2936.31C1847.2 2936.31 1872.17 2926.1 1898.53 2906.01C1903.66 2922.74 1910.76 2936.93 1919.82 2949.05C1912.26 2976.5 1908.84 3000.07 1909.31 3019.6C1881.75 3019.75 1860.82 3024.05 1842.38 3028.14ZM2018.54 3048.71L2007.25 3053.16C1979.07 3064.4 1957.68 3066.42 1945.46 3059.02C1937.07 3053.94 1931.94 3043.79 1930.33 3028.61C1928.11 3009.08 1931.73 2981.84 1940.95 2949.88C1943.85 2939.99 1946.75 2931.28 1949.03 2924.81C1979.39 2940.87 2020.3 2940.66 2049.93 2937.5C2038.74 2969.87 2046.51 3001 2072.21 3028.82C2052.47 3035.29 2033.36 3042.8 2018.54 3048.71ZM2154.82 3042.65C2128.3 3021.67 2114.21 2998.21 2113.28 2972.77C2111.72 2927.19 2150.78 2886.17 2167.97 2870.37C2175.85 2872.7 2184.55 2874.26 2194.85 2874.26C2212.26 2874.26 2233.29 2870.84 2258.05 2864C2274.67 2859.29 2296.43 2849.81 2316.37 2836.24C2316.11 2837.27 2315.96 2838.2 2315.7 2839.24C2306.53 2873.79 2291.3 2904.76 2279.02 2929.57L2272.55 2942.94C2271.57 2944.96 2270.48 2946.98 2269.13 2949.41C2229.92 3026.43 2182.06 3041.2 2154.82 3042.65ZM2508.95 2871.2L2506.52 2872.59C2485.28 2884.61 2466.11 2894.24 2447.68 2902.74C2443.53 2891.24 2439.91 2875.75 2439.03 2857.16C2464.98 2851.1 2493 2840.58 2522.73 2825.82C2522.42 2839.29 2523.77 2851.72 2525.42 2862.18C2519.41 2865.29 2513.92 2868.4 2508.95 2871.2ZM2545.11 2853.43C2543.6 2842.14 2542.93 2828.77 2544.28 2815.2C2570.49 2803.08 2603.43 2800.6 2637.25 2816.45C2632.07 2823.8 2627.88 2832.61 2624.67 2842.66C2591.05 2840.01 2565.31 2845.61 2545.11 2853.43Z" fill="#20E72E"/>
<path d="M1835.62 2670.05C1850.59 2674.51 1866.59 2663.89 1872.08 2646.23C1874.26 2638.92 1874.47 2631.98 1872.5 2625.87C1872.81 2627.01 1872.76 2628.3 1872.19 2629.86C1870.48 2635.61 1865.56 2638.87 1860.89 2637.37C1856.13 2635.87 1853.75 2630.43 1855.71 2624.99C1857.17 2619.45 1862.14 2616.13 1866.85 2617.69C1868.4 2618.05 1869.54 2618.67 1870.27 2619.91C1867.21 2613.18 1862.09 2608.05 1854.99 2606.24C1840.43 2601.89 1824.02 2612.35 1818.58 2630.07C1813.19 2647.78 1821.11 2665.76 1835.62 2670.05Z" fill="#20E72E"/>
</svg>
