<svg width="227" height="229" viewBox="0 0 227 229" fill="none" xmlns="http://www.w3.org/2000/svg">
<path d="M139.419 103.337C148.259 115.939 167.903 162.598 187.66 136.86C203.625 116.071 212.109 80.8317 195.097 58.3762C176.587 33.9349 144.146 44.7357 122.893 57.476C115.536 61.8864 102.975 65.8945 110.035 76.0094C113.932 81.6008 120.062 86.201 124.663 91.2557C129.381 96.4438 134.403 101.237 140.788 104.244C144.43 105.956 146.34 99.9919 142.724 98.294C133.694 94.0335 127.586 84.6932 120.488 77.9283C117.706 75.2759 111.163 71.2432 117.501 67.5368C121.958 64.9355 126.572 62.4967 131.062 59.9041C150.33 48.7606 173.551 44.289 190.421 62.5281C205.61 78.9714 196.582 109.796 187.103 126.647C184.954 130.463 182.233 133.845 179.088 136.864C172.89 142.793 166.487 132.823 163.658 129.071C156.453 119.499 150.962 108.959 144.101 99.1949C141.791 95.8856 137.126 100.076 139.419 103.337Z" fill="white"/>
<path d="M139.138 99.5565C120.982 120.973 102.281 139.798 81.0481 158.021C74.4609 163.681 71.9886 170.596 70.0828 178.828C66.9062 192.557 63.3757 206.199 60.1991 219.929C61.5154 219.263 62.8318 218.596 64.1418 217.923C59.3863 216.709 55.1232 214.594 50.5821 212.788C51.2487 214.104 51.9152 215.421 52.5887 216.731C55.6748 204.412 62.5419 193.596 62.8323 180.647C62.8724 178.853 61.6328 177.556 59.8969 177.34C52.2932 176.383 44.7098 175.42 37.2759 173.509C35.3692 173.03 33.5937 172.246 31.9503 171.144C30.9804 168.779 31.2342 166.746 32.7127 165.032C36.473 165.76 40.2515 166.071 44.0033 166.833C56.6525 169.387 69.096 173.718 81.0782 166.669C84.5378 164.627 81.793 159.004 78.3133 161.052C66.6402 167.925 54.4974 162.11 42.3305 160.169C37.2846 159.364 29.7633 156.124 26.9735 162.116C17.8792 181.651 46.9576 182.01 59.5312 183.602L56.5957 180.296C56.327 192.648 49.5903 203.06 46.6511 214.809C46.2158 216.539 46.9812 218.094 48.6576 218.752C53.2047 220.565 57.4615 222.673 62.2174 223.887C63.7499 224.284 65.764 223.625 66.1602 221.88C68.9867 209.68 72.0228 197.531 74.9533 185.364C78.2368 171.741 82.6436 164.389 93.8078 155.782C113.084 140.916 128.738 121.445 144.399 102.971C146.982 99.8994 141.711 96.5204 139.136 99.5594L139.138 99.5565Z" fill="white"/>
<path d="M89.4876 152.548C88.1384 164.956 93.426 177.021 95.8344 188.981C96.6295 192.945 102.761 191.707 101.971 187.763C99.6824 176.375 94.4567 164.72 95.7371 152.927C96.1753 148.91 89.918 148.551 89.4876 152.548Z" fill="white"/>
<path d="M92.7926 149.614C81.7929 150.078 71.3981 145.397 60.7814 143.223C56.8855 142.426 54.8767 148.365 58.8451 149.172C69.9686 151.436 80.8957 156.335 92.421 155.855C96.4205 155.694 96.8256 149.448 92.7926 149.614Z" fill="white"/>
<path d="M73.5158 122.88C85.1261 130.938 103.891 131.968 107.371 147.582C109.917 159.004 108.18 171.004 110.509 182.492C111.304 186.456 117.449 185.219 116.646 181.275C114.006 168.177 117.318 152.508 111.781 140.049C105.792 126.586 87.9868 125.309 76.9311 117.635C73.6036 115.33 70.1999 120.573 73.5141 122.878L73.5158 122.88Z" fill="white"/>
<path d="M145.497 162.189C143.017 146.076 136.896 131.136 131.997 115.663C131.527 114.172 130.64 113.428 129.114 113.151C118.41 111.205 107.228 108.705 97.1474 104.548C90.7088 101.891 84.869 99.1168 77.8172 99.6152C73.7905 99.9012 75.0753 106.029 79.0351 105.752C86.454 105.229 94.095 110.258 100.854 112.681C108.289 115.344 116.475 116.915 124.19 118.563C128.471 119.483 130.519 130.896 131.729 134.379C135.039 143.919 137.812 153.42 139.347 163.406C139.973 167.42 146.112 166.162 145.497 162.189Z" fill="white"/>
<path d="M182.436 88.1314C188.234 82.8703 189.401 74.5408 184.853 68.0464C180.189 61.3787 171.985 60.665 165.846 65.7263C159.399 71.0487 156.839 80.4389 162.298 87.2671C167.355 93.599 176.748 93.0933 182.436 88.1314C185.479 85.4795 181.322 80.7971 178.278 83.4489C175.101 86.2192 170.6 86.6631 167.417 83.6014C163.203 79.534 166.539 73.6477 170.003 70.409C173.305 67.3269 177.226 68.3779 179.797 71.6562C182.727 75.3947 181.561 80.472 178.278 83.4489C175.291 86.164 179.442 90.8394 182.436 88.1314Z" fill="white"/>
<path d="M212 182.968L204.257 167.79L203.268 166.766L191.832 160.4L191.207 154.302L193.038 152.085V150.866L192.339 149.159L180.37 136.941L178.898 136.224L150.992 133L150.606 136.315L112.252 164.985L112 168.672L123.033 179.536L115.524 185.66L115.568 189.472L116.857 190.475L132.29 220.317L132.664 220.559L118.09 220.217L158.591 226L196.645 220.602L177.154 216.034L196.254 207.507L196.376 207.581L196.48 207.408L196.727 207.3L197.569 205.58L207.977 188.077L207.278 187.04L210.26 186.474L212 182.968ZM177.47 140.974L186.671 150.357L175.899 152.453L161.521 139.129L177.47 140.974ZM186.897 160.322L178.399 163.676L169.663 153.347L173.473 156.878L175.613 157.487L186.394 155.387L186.897 160.322ZM117.469 167.194L154.542 139.474L154.715 139.495L161.59 145.87L159.685 145.827L129.199 178.745L117.469 167.194ZM120.971 187.766L120.854 187.623L123.584 185.397L130.168 205.545L120.971 187.766ZM128.289 184.027L131.279 183.846L132.082 182.834L161.408 151.169L173.591 165.57L148.037 175.648L147.564 179.939L151.288 182.45L150.038 194.271L137.299 211.592L128.289 184.027ZM158.057 219.211L157.827 218.869L155.909 217.789L139.4 216.994L154.381 196.621L154.841 195.433L156.313 181.503L155.249 179.226L154.147 178.483L176.915 169.502L177.631 170.349L183.212 179.239L185.925 180.302L193.09 178.387L197.048 185.635L191.354 186.461L189.327 189.46L192.852 203.666L158.057 219.211ZM196.471 197.861L194.748 190.912L201.154 189.983L196.471 197.861ZM201.306 183.202L196.484 174.373L193.698 173.18L186.42 175.125L181.706 167.618L189.341 164.605L200.226 170.664L206.15 182.281L201.306 183.202Z" fill="white"/>
</svg>
