<svg width="427" height="1083" viewBox="0 0 427 1083" fill="none" xmlns="http://www.w3.org/2000/svg">
<path d="M27.1916 27.5894C-11.5778 179.34 -8.9131 342.617 35.3377 526.742C36.0417 529.663 36.3937 532.634 36.3937 535.605L36.3937 547.391C36.3937 550.312 36.0417 553.283 35.3377 556.204C-8.20881 737.209 -11.427 897.92 25.2305 1047.59C30.3595 1068.45 48.9141 1083 70.336 1083L122.582 1083C128.817 1083 133.896 1077.91 133.896 1071.67C133.896 1060.14 142.093 1050.11 153.406 1047.9L308.178 1017.17C377.018 1003.53 426.951 942.586 426.951 872.335L426.951 775.235C426.951 696.668 373.7 628.874 297.462 610.45L169.387 579.427C151.887 575.196 139.618 559.583 139.618 541.503C139.618 523.423 151.888 507.81 169.437 503.529L299.376 472.053C374.502 453.871 427 387.09 427 309.678L427 211.974C427 140.962 376.514 79.3694 306.92 65.5739L153.397 35.1039C142.083 32.8878 133.887 22.8656 133.887 11.3318C133.887 5.08667 128.808 -5.6304e-06 122.573 -5.35784e-06L62.2311 -2.72021e-06C45.7383 -1.99929e-06 31.3566 11.3318 27.1819 27.5988L27.1916 27.5894ZM171.356 645.099L290.934 661.669C337.899 668.166 373.3 708.91 373.3 756.353L373.25 887.242C373.25 936.296 336.491 977.192 287.766 982.328L167.635 994.919C116.194 1000.31 69.3286 963.593 63.1431 913.078C55.8517 853.146 56.0026 790.595 63.5454 727.29C66.5625 702.209 79.2851 679.848 99.4493 664.236C120.117 648.321 145.61 641.524 171.356 645.099ZM167.635 88.1348L287.765 100.726C336.491 105.863 373.249 146.707 373.249 195.811L373.249 326.65C373.249 374.092 337.848 414.785 290.883 421.333L171.305 437.903C145.559 441.479 120.064 434.68 99.4479 418.765C79.2838 403.203 66.5112 380.791 63.544 355.71C56.0013 292.353 55.8002 229.903 63.1417 169.922C69.3268 119.407 116.193 82.6965 167.635 88.1348Z" fill="#20E72E"/>
</svg>
