<?xml version="1.0" encoding="UTF-8"?>
<svg fill="#20E72E" width="100pt" height="100pt" version="1.1" viewBox="0 0 100 100" xmlns="http://www.w3.org/2000/svg">
 <path d="m3.8594 47.445c3.8594-24.844 22.754-44.32 46.141-44.32s42.281 19.477 46.141 44.32c0.48438 3.0977 0.73438 6.2852 0.73438 9.5391 0 0.65625-0.011719 1.3086-0.03125 1.957 0.054688 0.38281 0.035156 0.76172-0.042969 1.1211-0.011719 0.24609-0.027343 0.49219-0.042969 0.73828-0.76562 12.531-5.293 23.699-12.34 32.348-4.2422 5.2109-11.383 4.6016-15.625 0.38281-4.1523-4.125-4.8828-10.75-1.8438-15.758l8.2812-13.652c2.1094-3.4766 5.6875-5.7695 9.7148-6.0469l5.3203-0.36328c-4.2852-20.754-20.883-35.836-40.266-35.836s-35.98 15.082-40.266 35.836l5.3203 0.36328c4.0273 0.27734 7.6055 2.5703 9.7148 6.0469l8.2812 13.652c3.0391 5.0078 2.3086 11.633-1.8438 15.758-4.2422 4.2188-11.383 4.8281-15.625-0.38281-7.0469-8.6484-11.574-19.816-12.34-32.348-0.015626-0.24609-0.03125-0.49219-0.042969-0.74219-0.078125-0.35547-0.097657-0.73438-0.042969-1.1172-0.019531-0.64844-0.03125-1.3008-0.03125-1.957 0-3.2539 0.25-6.4414 0.73438-9.5391z" fill-rule="evenodd"/>
</svg>
