<svg width="809" height="1838" viewBox="0 0 809 1838" fill="none" xmlns="http://www.w3.org/2000/svg">
<path d="M584.13 1179.47C587.876 1273.98 816.692 1832.03 370.324 1837.96C137.829 1841.07 61.0116 1639.48 74.0621 1205.93C74.0621 1205.93 12.3735 826.912 2.81099 699.376C-25.9559 314.196 170.763 0 377.899 0C584.986 0 728.558 215.522 722.835 608.65C719.089 865.714 578.869 1047.2 584.118 1179.47H584.13Z" fill="#F20088"/>
<path d="M125.379 249C127.525 249 133.103 249.429 142.114 250.287C151.125 250.716 162.282 250.931 175.584 250.931C187.599 250.931 203.905 250.287 224.503 249C236.088 249 241.881 256.509 241.881 271.528L241.881 384.812L308.178 386.099C315.473 386.529 333.71 386.743 362.889 386.743C392.927 386.743 422.106 386.528 450.427 386.099C478.748 385.67 503.207 385.456 523.804 385.456L550.194 384.812L553.412 384.812C557.274 384.812 559.634 385.456 560.493 386.743C561.351 387.601 561.78 388.889 561.78 390.605C561.78 392.322 561.78 393.609 561.78 394.467L561.78 438.236C561.78 443.385 560.922 446.389 559.205 447.247C557.489 448.105 554.485 448.534 550.194 448.534C545.474 448.534 542.041 448.534 539.896 448.534L460.082 445.96C390.567 443.385 345.94 442.098 326.201 442.098C315.044 442.098 298.309 442.527 275.995 443.385L241.881 444.029C241.881 474.924 242.31 506.249 243.169 538.003L243.812 557.957C243.812 563.535 242.31 567.397 239.307 569.542C236.303 571.688 232.87 572.117 229.008 570.83L212.917 570.186C188.029 569.328 165.071 568.899 144.045 568.899C133.747 568.899 127.525 569.113 125.379 569.542L120.873 569.542C116.153 569.542 113.364 568.684 112.506 566.968C111.648 564.822 111.219 561.818 111.219 557.957L111.219 494.234L110.575 458.189C109.717 435.876 109.288 420.213 109.288 411.202L109.931 372.583C110.789 341.687 111.219 317.442 111.219 299.849C111.219 286.976 111.004 278.608 110.575 274.746C110.146 265.306 111.648 258.655 115.081 254.793C118.084 250.931 121.517 249 125.379 249Z" fill="white"/>
<path d="M116.367 808.239C116.367 798.798 115.938 783.78 115.08 763.183L113.792 728.425L114.436 658.266L115.08 626.083C115.509 619.647 115.723 610.85 115.723 599.693C115.723 594.973 116.367 591.969 117.654 590.682C118.942 588.966 121.087 588.107 124.091 588.107L135.033 588.751L210.341 588.107L242.524 588.107L247.674 588.107C251.106 588.107 253.467 588.751 254.754 590.038C255.612 590.897 256.041 593.471 256.041 597.762C256.041 604.628 255.398 614.283 254.11 626.727C253.681 633.163 253.252 639.6 252.823 646.037C252.394 652.473 252.179 658.052 252.179 662.772L252.179 731C252.179 738.724 252.608 747.735 253.467 758.033L254.754 771.55C257.328 771.979 261.19 772.194 266.34 772.194L287.58 772.194C292.73 772.194 298.737 772.623 305.603 773.481L313.97 774.769L313.97 760.608L313.327 734.862L313.327 688.518C313.327 677.79 312.898 665.132 312.04 650.542C311.181 639.385 310.752 632.091 310.752 628.658C310.752 623.509 311.396 620.076 312.683 618.359C313.97 616.643 315.901 615.785 318.476 615.785C324.054 615.785 330.277 616.857 337.142 619.003C340.146 619.432 342.077 620.29 342.935 621.578C343.793 622.865 344.222 625.011 344.222 628.014L343.579 653.761L342.291 713.621L342.291 747.735C342.291 758.463 342.506 766.83 342.935 772.838L405.37 772.838C436.266 772.838 461.368 773.481 480.678 774.769C491.835 775.627 502.777 776.056 513.505 776.056L551.481 775.412C556.201 775.412 558.99 776.485 559.848 778.63C560.706 780.776 561.136 784.638 561.136 790.216L561.136 834.629C560.707 838.491 559.419 840.851 557.274 841.709C555.128 842.567 552.124 842.996 548.262 842.996C544.4 842.996 541.182 842.996 538.608 842.996C531.742 843.855 521.658 844.284 508.356 844.284L454.288 843.64L386.704 842.353L345.51 841.065L326.844 841.709C316.974 842.996 304.316 843.64 288.868 843.64C278.998 843.64 267.627 843.211 254.754 842.353L232.226 841.709L174.296 841.709C170.005 841.709 162.281 841.28 151.125 840.422L127.953 839.134L125.378 839.134C121.087 839.134 118.298 838.491 117.011 837.203C115.723 835.487 115.08 833.127 115.08 830.123C115.08 827.119 115.294 823.901 115.723 820.468C116.153 816.606 116.367 812.53 116.367 808.239Z" fill="white"/>
<path d="M177.515 923.061C186.097 923.061 194.036 923.705 201.331 924.992C207.767 925.422 210.985 928.425 210.985 934.004C210.985 935.72 210.556 938.08 209.698 941.084C208.84 944.088 208.196 946.448 207.767 948.164C206.48 954.601 205.836 973.267 205.836 1004.16L205.193 1028.62C204.763 1034.2 204.549 1042.35 204.549 1053.08C204.549 1060.8 204.763 1066.6 205.193 1070.46C206.051 1083.33 206.48 1094.7 206.48 1104.57L205.836 1138.69C205.836 1142.12 206.694 1144.05 208.411 1144.48C209.698 1144.91 213.131 1145.12 218.709 1145.12C226.433 1145.12 233.084 1145.34 238.663 1145.77C255.827 1146.63 269.773 1147.05 280.501 1147.05L318.477 1147.05C327.488 1147.05 334.353 1146.84 339.074 1146.41C339.503 1142.98 339.717 1137.19 339.717 1129.03C340.146 1121.74 340.361 1106.72 340.361 1083.98C340.361 1074.54 339.932 1060.8 339.074 1042.78C338.215 1029.05 337.786 1020.04 337.786 1015.75C337.786 1009.74 338.215 1003.73 339.074 997.726C339.503 991.718 339.717 987.213 339.717 984.209C339.717 978.631 342.292 975.841 347.441 975.841C349.158 975.841 351.732 976.056 355.165 976.485C358.169 976.914 362.245 977.129 367.395 977.129L401.509 976.485C405.371 976.485 408.16 976.914 409.876 977.772C411.163 978.631 411.807 980.133 411.807 982.278C411.807 983.565 411.593 985.496 411.163 988.071C410.305 990.217 409.876 992.147 409.876 993.864C409.876 997.726 409.662 1005.02 409.232 1015.75C408.803 1026.05 408.589 1040.21 408.589 1058.23C408.589 1077.54 409.447 1094.27 411.163 1108.44C412.88 1122.6 413.738 1131.18 413.738 1134.18C413.738 1138.9 413.524 1141.69 413.094 1142.55C413.094 1144.69 412.88 1145.98 412.451 1146.41L476.817 1146.41C476.817 1143.41 476.602 1141.05 476.173 1139.33L475.529 1121.31L474.886 1045.36C474.886 1029.91 475.1 1017.68 475.529 1008.67L476.173 964.256L475.529 937.222C475.529 932.073 476.817 928.64 479.391 926.923C481.537 925.207 484.755 924.349 489.046 924.349L501.919 924.992L546.976 925.636C553.841 925.636 558.132 927.138 559.849 930.142C561.136 933.145 561.78 937.436 561.78 943.015C561.351 948.593 561.136 953.099 561.136 956.532C561.136 974.983 560.921 990.86 560.492 1004.16L559.849 1069.82C559.849 1074.96 560.492 1100.71 561.78 1147.05L562.423 1171.51L563.067 1175.38C563.067 1177.95 562.423 1179.45 561.136 1179.88C559.42 1180.31 556.416 1180.53 552.125 1180.53C547.405 1180.95 539.466 1181.17 528.309 1181.17C524.877 1181.17 521.229 1181.38 517.367 1181.81C513.076 1182.24 507.498 1182.46 500.632 1182.46L412.451 1182.46C403.869 1182.46 395.501 1182.24 387.348 1181.81C379.195 1180.95 373.188 1180.53 369.326 1180.53C349.587 1178.81 330.706 1177.95 312.684 1177.95C290.37 1177.95 272.777 1178.59 259.904 1179.88C245.314 1180.74 232.012 1181.17 219.997 1181.17C192.963 1181.17 161.424 1180.53 125.379 1179.24C119.8 1179.24 116.153 1178.17 114.437 1176.02C112.291 1173.87 111.218 1170.87 111.218 1167.01L111.862 1157.35C111.862 1153.49 112.291 1147.27 113.149 1138.69C113.578 1130.11 113.793 1119.59 113.793 1107.15C113.793 1092.99 112.72 1076.25 110.575 1056.94C108.858 1033.77 108 1018.32 108 1010.6C108 993.006 108.644 976.914 109.931 962.325L110.575 939.153C110.575 933.575 111.862 929.927 114.437 928.211C117.011 926.494 121.731 925.636 128.597 925.636C132.459 925.636 139.11 925.207 148.551 924.349C159.707 923.49 169.362 923.061 177.515 923.061Z" fill="white"/>
<path d="M178.159 1398.35C213.346 1400.06 239.736 1400.92 257.329 1400.92L354.522 1399.64C369.97 1399.21 385.846 1398.99 402.153 1398.99L472.311 1400.28L485.185 1400.92L503.207 1400.28L525.735 1398.99L528.953 1306.95L529.597 1230.35L529.597 1229.07C529.597 1226.49 530.026 1224.99 530.884 1224.56C531.743 1224.13 533.03 1224.13 534.746 1224.56C536.034 1224.56 537.106 1224.56 537.965 1224.56C539.681 1224.99 542.899 1224.99 547.619 1224.56C552.34 1223.7 556.631 1223.27 560.493 1223.27C563.496 1223.27 565.427 1224.35 566.286 1226.49C567.144 1228.64 567.358 1231.43 566.929 1234.86C566.929 1237.86 566.929 1240.22 566.929 1241.94L564.998 1276.05C562.424 1306.09 561.136 1327.33 561.136 1339.78C561.136 1353.51 562.424 1388.26 564.998 1444.05L566.929 1502.62C566.929 1512.06 562.638 1516.78 554.056 1516.78L503.851 1516.78L288.225 1514.21C271.919 1514.21 242.31 1515.28 199.4 1517.43L120.23 1520C112.935 1520 109.288 1517.21 109.288 1511.63C109.288 1509.49 109.931 1505.84 111.219 1500.69C112.506 1495.54 113.15 1491.46 113.15 1488.46C114.866 1476.45 115.724 1462.07 115.724 1445.34C115.724 1433.75 115.081 1422.81 113.793 1412.51C112.935 1406.07 113.364 1401.57 115.081 1398.99C116.797 1396.42 119.586 1395.13 123.448 1395.13C126.452 1395.13 129.67 1395.56 133.103 1396.42C136.107 1396.85 139.54 1397.06 143.402 1397.06L178.159 1398.35Z" fill="white"/>
</svg>
