<svg width="465" height="594" viewBox="0 0 465 594" fill="none" xmlns="http://www.w3.org/2000/svg">
<path fill-rule="evenodd" clip-rule="evenodd" d="M363.433 205.194C317.552 234.632 253.187 246.794 195.821 239.962C160.358 235.741 125.203 223.883 98.6317 202.344C88.9106 213.331 84.2029 228.757 80.2139 242.507C71.626 272.097 67.267 302.796 62.537 333.168C60.4664 346.527 48.8927 353.033 38.9751 352.772C29.1669 352.51 18.1161 345.57 16.4595 332.407C14.8247 319.548 12.9285 305.602 10.9886 291.481C6.12809 255.951 1.1369 219.29 0.0906806 196.27C-1.95817 151.036 31.1719 127.276 52.8808 118.269C57.7195 105.606 62.449 92.0951 69.1409 80.3025C81.4773 58.5015 102.031 39.3116 127.227 25.2348C177.794 -2.98443 249.81 -12.1224 321.823 21.9277C339.347 30.2173 357.721 42.2488 377.032 44.7731C384.966 45.7957 393.074 44.1639 412.407 30.3917C428.493 18.9472 452.687 31.7189 448.916 53.2371C445.08 75.0816 440.176 93.9668 434.378 110.373C472.325 172.338 465.917 234.977 461.928 269.114L461.885 269.463L451.314 337.432C450.006 345.83 444.055 353.097 435.402 354.686C424.112 356.753 414.347 348.354 412.778 337.541C411.274 327.249 410.903 316.741 410.053 306.384C408.92 292.851 407.35 276.881 404.822 260.999C402.25 245.007 398.807 229.777 394.142 217.527C390.938 209.129 386.688 199.077 378.427 194.421H378.383C373.588 198.294 368.599 201.886 363.433 205.194ZM106.064 156.588V156.609C107.895 159.133 109.878 161.57 111.971 163.898C190.83 188.418 245.061 162.919 280.543 131.327C298.917 114.966 312.365 96.82 321.258 82.6558C324.462 77.5863 327.426 72.3644 330.195 67.0557C322.849 63.618 314.741 59.7018 305.892 55.5027C296.955 51.2818 287.714 47.7137 278.254 44.8631C264.348 81.5675 235.512 108.527 203.909 126.518C172.566 144.358 136.906 154.367 106.045 156.608L106.064 156.588ZM94.1417 119.948C120.929 119.709 155.542 111.289 185.511 94.2528C210.075 80.263 230.128 61.3337 240.939 37.7464C204.539 34.7221 171.213 43.2293 145.384 57.6543C124.939 69.0553 109.9 83.7848 101.53 98.5801C97.3456 105.977 94.9262 113.139 94.1417 119.948ZM343.336 173.95C311.144 194.619 265.743 205.694 221.758 204.606C255.803 195.751 283.571 178.389 305.327 159.024C327.057 139.704 342.663 118.534 352.82 102.323L352.798 102.345C357.288 95.2304 361.408 87.8759 365.157 80.3482C378.779 83.4595 392.729 82.3282 405.719 77.0629C390.375 135.134 365.876 159.48 343.314 173.968L343.336 173.95ZM404.586 167.401C414.351 175.256 421.195 186.417 426.186 197.752C424.377 183.371 420.802 168.249 414.459 152.954C411.408 157.936 408.117 162.745 404.586 167.401ZM62.6492 154.564C49.7676 161.091 36.3191 174.102 37.2566 194.598C37.8015 206.869 39.5887 223.295 41.8991 241.68C48.0023 218.139 55.9139 192.596 73.482 174.909H73.4602C69.1882 168.512 65.5696 161.678 62.6492 154.564Z" fill="#20E72E"/>
<path d="M42.5 345.5C42.5 345.5 80 580 234.5 580C389 580 431.5 345.5 431.5 345.5" stroke="#20E72E" stroke-width="28" stroke-linecap="round"/>
<path d="M402.237 271.769C354.035 260.692 302.173 261.453 243.688 274.097C242.76 274.298 241.816 274.398 240.872 274.398H237.129C236.201 274.398 235.257 274.298 234.33 274.097C176.836 261.655 125.788 260.735 78.246 271.209C71.6232 272.674 67 277.975 67 284.096V299.023C67 300.805 68.6157 302.256 70.5994 302.256C74.2627 302.256 77.4463 304.598 78.1503 307.83L87.9085 352.051C92.2438 371.719 111.601 385.986 133.915 385.986H164.757C189.713 385.986 211.247 370.771 217.099 348.989L226.953 312.396C228.297 307.396 233.256 303.891 238.999 303.891C244.742 303.891 249.701 307.396 251.061 312.411L261.059 349.536C266.834 371 288.046 386 312.635 386H343.669C366.225 386 385.789 371.575 390.171 351.691L399.85 307.828C400.554 304.595 403.737 302.253 407.401 302.253C409.384 302.253 411 300.802 411 299.021V281.78C411 277.068 407.401 272.959 402.234 271.766L402.237 271.769ZM206.093 312.959L200.83 347.124C198.766 360.543 185.824 370.657 170.755 370.657L129.18 370.643C113.598 370.643 100.609 360.14 98.977 346.219L94.9777 311.896C93.266 297.198 104.928 283.808 120.973 282.041C140.01 279.958 159.878 280.001 179.986 282.156C187.953 283.018 195.056 286.653 200.015 292.414C205.07 298.319 207.229 305.603 206.093 312.959ZM383.005 311.896L379.006 346.219C377.374 360.14 364.4 370.643 348.803 370.643H307.244C292.175 370.643 279.249 360.528 277.169 347.109L271.906 312.944C270.77 305.588 272.93 298.304 277.985 292.414C282.928 286.653 290.047 283.003 298.014 282.155C318.138 280 337.974 279.943 357.027 282.041C373.072 283.808 384.733 297.198 383.005 311.896Z" fill="#20E72E"/>
</svg>
