<svg width="1360" height="1024" viewBox="0 0 1360 1024" fill="none" xmlns="http://www.w3.org/2000/svg">
<g clip-path="url(#clip0_284_139)">
<path d="M1360 0L1360 1024L-4.1008e-05 1024L-4.1008e-05 0L1360 0Z" fill="url(#paint0_linear_284_139)"/>
<path d="M-243.054 619.107C-259.596 582.707 -223.822 530.847 -163.15 503.275L1341.67 -180.581C1402.34 -208.153 1464.93 -200.996 1481.48 -164.595L1891.76 738.24C1908.31 774.641 1872.53 826.5 1811.86 854.072L307.041 1537.93C246.37 1565.5 183.776 1558.34 167.234 1521.94L-243.054 619.107Z" fill="url(#paint1_linear_284_139)"/>
<path d="M1328.74 -196.566C1387.25 -217.864 1446.37 -203.036 1460.78 -163.448L1818.16 818.458C1832.57 858.047 1796.82 907.405 1738.3 928.703L286.951 1456.95C228.435 1478.25 169.318 1463.42 154.909 1423.83L-202.475 441.927C-216.885 402.338 -181.129 352.98 -122.613 331.682L1328.74 -196.566Z" fill="url(#paint2_linear_284_139)"/>
<path d="M1968.64 903.563C1992.9 950.027 1966.43 1011.79 1909.51 1041.51L497.743 1778.75C440.823 1808.48 375.011 1794.91 350.747 1748.44L-251.065 596.01C-275.329 549.546 -248.857 487.784 -191.937 458.06L1219.83 -279.18C1276.75 -308.904 1342.56 -295.334 1366.83 -248.87L1968.64 903.563Z" fill="url(#paint3_linear_284_139)"/>
</g>
<defs>
<linearGradient id="paint0_linear_284_139" x1="680" y1="0" x2="680" y2="1024" gradientUnits="userSpaceOnUse">
<stop stop-color="#0091AD" stop-opacity="0.2"/>
<stop offset="0.122201" stop-color="#F20089" stop-opacity="0.37"/>
<stop offset="0.529394" stop-color="#FB5607" stop-opacity="0.22"/>
<stop offset="0.883287" stop-color="#E3027A" stop-opacity="0.26"/>
<stop offset="1" stop-color="#0091AD" stop-opacity="0.2"/>
</linearGradient>
<linearGradient id="paint1_linear_284_139" x1="-37.91" y1="1070.52" x2="1686.62" y2="286.823" gradientUnits="userSpaceOnUse">
<stop stop-color="#0091AD" stop-opacity="0.2"/>
<stop offset="0.184386" stop-color="#F20089"/>
<stop offset="0.494367" stop-color="#FB5607" stop-opacity="0.75"/>
<stop offset="0.839389" stop-color="#E3027A" stop-opacity="0.75"/>
<stop offset="1" stop-color="#0091AD" stop-opacity="0.2"/>
</linearGradient>
<linearGradient id="paint2_linear_284_139" x1="603.061" y1="67.5578" x2="1012.63" y2="1192.83" gradientUnits="userSpaceOnUse">
<stop stop-color="#0091AD" stop-opacity="0.2"/>
<stop offset="0.122201" stop-color="#F20089" stop-opacity="0.37"/>
<stop offset="0.529394" stop-color="#FB5607" stop-opacity="0.22"/>
<stop offset="0.883287" stop-color="#E3027A" stop-opacity="0.26"/>
<stop offset="1" stop-color="#0091AD" stop-opacity="0.2"/>
</linearGradient>
<linearGradient id="paint3_linear_284_139" x1="1667.73" y1="327.347" x2="49.8407" y2="1172.23" gradientUnits="userSpaceOnUse">
<stop stop-color="#0091AD" stop-opacity="0.2"/>
<stop offset="0.122201" stop-color="#F20089" stop-opacity="0.37"/>
<stop offset="0.529394" stop-color="#FB5607" stop-opacity="0.22"/>
<stop offset="0.883287" stop-color="#E3027A" stop-opacity="0.26"/>
<stop offset="1" stop-color="#0091AD" stop-opacity="0.2"/>
</linearGradient>
<clipPath id="clip0_284_139">
<rect width="1360" height="1024" fill="white"/>
</clipPath>
</defs>
</svg>
