<svg width="401" height="461" viewBox="0 0 401 461" fill="none" xmlns="http://www.w3.org/2000/svg">
<path fill-rule="evenodd" clip-rule="evenodd" d="M375.768 450.78C361.96 450.78 350.768 440.247 350.768 427.253L350.768 26.424C350.768 13.4304 361.96 2.89706 375.768 2.89706C389.575 2.89706 400.768 13.4304 400.768 26.424L400.768 427.253C400.768 440.247 389.575 450.78 375.768 450.78Z" fill="white"/>
<path fill-rule="evenodd" clip-rule="evenodd" d="M327.25 446.824C314.262 454.344 297.785 450.262 290.447 437.706C283.11 425.151 64.1022 50.4024 64.1022 50.4024C56.7648 37.8473 61.3459 21.5738 74.3343 14.0544C87.3227 6.53507 103.8 10.6174 111.137 23.1725L337.483 410.476C344.82 423.032 340.239 439.305 327.25 446.824Z" fill="white"/>
<path fill-rule="evenodd" clip-rule="evenodd" d="M25.7676 450.78C11.9605 450.78 0.767578 440.247 0.767577 427.253L0.76756 26.424C0.767559 13.4304 11.9604 2.89706 25.7676 2.89706C39.5747 2.89706 50.7676 13.4304 50.7676 26.424L50.7676 427.253C50.7676 440.247 39.5747 450.78 25.7676 450.78Z" fill="white"/>
</svg>
