<svg width="105" height="128" viewBox="0 0 105 128" fill="none" xmlns="http://www.w3.org/2000/svg">
<path fill-rule="evenodd" clip-rule="evenodd" d="M57.2339 99.9699C61.9447 98.0175 65.0131 93.4305 65.0131 88.3373C65.0131 81.3846 59.3724 75.7437 52.4197 75.7437C47.3268 75.7437 42.7397 78.8121 40.7872 83.5125C38.8449 88.2236 39.9192 93.6368 43.5144 97.232C47.12 100.838 52.5334 101.912 57.2339 99.9699ZM69 34.7604V33H68.8646C67.7881 25.1074 60.4242 19 51.5 19C42.5758 19 35.2119 25.1074 34.1354 33H34V35V51H34.0926H51.5H69V35V34.7604ZM93.8369 51.6018C100.19 52.8105 104.798 58.3583 104.808 64.8254L104.55 113.887C104.55 121.315 98.5171 127.348 91.0891 127.348H13.4611C6.02283 127.348 0 121.315 0 113.887V113.877L0.2686 64.981C0.217028 58.6997 4.5147 53.214 10.6306 51.7573V41.4987C10.6409 30.2801 15.228 19.5359 23.3274 11.7773C31.1169 4.20466 41.5615 -0.0205878 52.4194 7.5433e-05H53.4525C64.3316 0.495961 74.6108 5.17581 82.1319 13.0584C89.6529 20.9397 93.8472 31.4255 93.8369 42.3143V51.6018Z" fill="#20E72E"/>
</svg>
