<svg width="108" height="130" viewBox="0 0 108 130" fill="none" xmlns="http://www.w3.org/2000/svg">
<path fill-rule="evenodd" clip-rule="evenodd" d="M66.9004 0H102.479C105.26 0 107.515 2.7812 107.515 5.0364V124.203C107.515 126.984 105.26 129.239 102.479 129.239H66.9004C64.1192 129.239 61.864 126.458 61.864 124.203V5.0364C61.864 2.2552 64.1192 0 66.9004 0Z" fill="#0A0223"/>
<path fill-rule="evenodd" clip-rule="evenodd" d="M5.0364 0H40.6151C43.3963 0 45.6515 2.7812 45.6515 5.0364V124.203C45.6515 126.984 43.3963 129.239 40.6151 129.239H5.0364C2.2552 129.239 0 126.458 0 124.203V5.0364C0 2.2552 2.2552 0 5.0364 0Z" fill="#0A0223"/>
</svg>
