<svg width="246" height="262" viewBox="0 0 246 262" fill="none" xmlns="http://www.w3.org/2000/svg">
<path d="M207.591 33.7671C177.069 4.81772 133.724 -6.54565 92.7962 3.69734C51.8683 13.9403 19.1022 44.3323 6.03505 84.1928C-7.0339 124.053 1.43058 167.783 28.4406 199.99C31.3242 203.628 32.5798 208.281 31.9173 212.854L28.6266 239.032C27.6616 246.296 30.7195 253.501 36.6262 257.878C40.1841 260.534 44.521 261.988 48.9742 262C51.7647 261.988 54.5205 261.423 57.0901 260.337L95.226 244.078C98.4699 242.797 102.016 242.404 105.458 242.97C122.434 245.441 139.736 244.321 156.244 239.713C179.499 233.108 200.301 219.898 216.079 201.701C231.858 183.502 241.927 161.113 245.055 137.289C249.891 98.8242 235.985 60.3723 207.591 33.7671Z" fill="#8900F2"/>
<path d="M136.013 141.337C136.013 146.431 132.945 151.018 128.234 152.97C123.533 154.912 118.12 153.838 114.514 150.232C110.919 146.637 109.845 141.224 111.787 136.513C113.74 131.812 118.327 128.744 123.42 128.744C130.372 128.744 136.013 134.385 136.013 141.337ZM125.434 76.4384C124.711 76.3971 123.998 76.3971 123.285 76.4384C118.843 76.4281 114.545 78.081 111.25 81.0667C107.386 84.4657 105.144 89.3521 105.093 94.4969V104.415H141.376V95.0755C141.531 85.6949 134.629 77.6783 125.321 76.4384H125.434ZM175.808 117.825C175.798 111.358 171.19 105.81 164.837 104.602V95.3143C164.847 84.4255 160.653 73.9397 153.132 66.0584C145.611 58.1758 135.332 53.496 124.452 53.0001H123.419C112.561 52.9794 102.117 57.2047 94.3274 64.7773C86.228 72.5359 81.6409 83.2801 81.6306 94.4987V104.757C75.5147 106.214 71.217 111.7 71.2686 117.981L71 166.877V166.887C71 174.315 77.0228 180.348 84.4611 180.348H162.089C169.517 180.348 175.55 174.315 175.55 166.887L175.808 117.825Z" fill="white"/>
<path d="M106.228 91.5212C106.228 82.2097 113.777 74.6611 123.088 74.6611V74.6611C132.4 74.6611 139.949 82.2097 139.949 91.5212V104.414H106.228V91.5212Z" fill="#8900F2"/>
</svg>
