<svg width="809" height="1838" viewBox="0 0 809 1838" fill="none" xmlns="http://www.w3.org/2000/svg">
<g clip-path="url(#clip0_1037_1660)">
<path d="M179.407 1183.32C175.62 1278.14 -55.7289 1838.01 395.578 1843.96C630.646 1847.08 708.313 1644.83 695.118 1209.87C695.118 1209.87 757.49 829.612 767.158 701.659C796.243 315.221 597.348 0 387.919 0C178.542 0 33.3803 216.226 39.167 610.637C42.9544 868.541 184.726 1050.62 179.419 1183.32H179.407Z" fill="#F20088"/>
<path d="M183 177.794C183.402 172.972 184.607 170.16 186.616 169.356C188.625 168.151 191.438 167.749 195.054 168.151C198.269 168.151 200.68 168.151 202.287 168.151C207.511 167.749 211.127 168.753 213.136 171.164C215.145 173.575 216.15 177.392 216.15 182.616C216.15 185.83 216.351 192.059 216.752 201.3C217.154 210.14 217.154 220.989 216.752 233.847L216.752 236.258L325.845 237.464L431.924 238.066C447.997 238.066 468.489 237.263 493.402 235.655C517.912 233.646 533.382 232.441 539.811 232.039C571.956 229.628 590.038 228.423 594.056 228.423C602.092 228.021 607.316 229.829 609.727 233.847C612.138 237.865 613.343 244.897 613.343 254.943L612.741 281.462C612.741 283.471 612.138 316.42 610.932 380.309L610.33 417.677C610.33 421.695 606.312 423.705 598.275 423.705C595.463 423.705 590.038 423.303 582.002 422.499C571.555 421.695 563.518 421.294 557.893 421.294C547.446 422.097 529.163 422.499 503.045 422.499C468.087 422.499 430.719 422.097 390.939 421.294C351.159 420.088 321.224 418.682 301.133 417.075C290.686 416.271 276.623 415.869 258.943 415.869C239.254 415.869 224.387 416.472 214.342 417.677L213.739 428.526L214.944 478.552C214.944 481.767 211.73 483.374 205.301 483.374L192.041 482.771C188.826 482.771 186.817 482.369 186.014 481.566C184.808 480.36 184.205 478.552 184.205 476.141C184.205 474.534 184.406 472.525 184.808 470.114C185.21 467.703 185.411 464.891 185.411 461.676L184.808 333.296L183.603 228.423C183.201 211.948 183 195.072 183 177.794Z" fill="white"/>
<path d="M380.091 754.381L380.694 732.081C381.497 712.794 381.899 699.333 381.899 691.698C381.899 660.357 381.698 636.449 381.296 619.975C381.296 600.286 381.095 585.218 380.694 574.77L362.612 574.77L329.462 575.373C314.193 575.373 282.852 574.569 235.438 572.962L193.247 571.757C189.631 571.355 187.823 569.145 187.823 565.127L188.425 558.497C188.827 556.89 189.028 553.876 189.028 549.456C189.028 544.634 189.43 541.219 190.234 539.21C191.439 535.192 193.448 533.183 196.261 533.183L201.083 534.388C203.895 534.79 209.32 535.393 217.356 536.196C224.991 537 236.844 538.205 252.917 539.813C264.971 541.018 292.495 542.022 335.49 542.826C378.082 543.63 411.432 544.032 435.541 544.032C452.418 544.032 481.75 544.835 523.539 546.442L563.318 547.648L587.427 548.251C593.454 548.251 599.281 547.849 604.906 547.045L608.522 546.442C610.933 546.442 612.34 547.447 612.742 549.456C612.742 551.063 612.742 552.068 612.742 552.47C613.545 556.488 613.947 563.72 613.947 574.168C613.947 577.382 611.938 578.989 607.92 578.989L519.922 578.387C513.493 578.789 506.863 578.989 500.033 578.989C492.8 578.588 486.371 578.387 480.745 578.387L455.431 578.387L410.83 578.387L412.035 627.207C412.437 644.485 412.638 667.79 412.638 697.123L412.638 753.779C412.638 769.048 412.437 780.901 412.035 789.339C418.866 789.339 424.09 789.54 427.706 789.942C440.564 790.746 452.819 791.147 464.472 791.147L529.566 791.75C561.309 791.75 582.204 790.746 592.249 788.737C597.071 787.933 600.084 787.531 601.29 787.531C606.915 787.531 610.532 789.138 612.139 792.353C613.344 795.166 613.947 798.38 613.947 801.996C613.545 805.211 613.344 807.421 613.344 808.626C612.541 822.69 613.143 838.762 615.152 856.844C615.956 863.675 614.349 867.894 610.331 869.501C606.312 870.707 600.687 871.309 593.454 871.309C586.222 870.908 580.797 870.707 577.181 870.707L368.639 871.912L212.534 870.707C204.498 870.707 199.475 869.903 197.466 868.296C195.055 866.287 193.85 863.273 193.85 859.255L194.453 845.995C194.453 843.986 194.051 839.365 193.247 832.132C192.845 830.123 192.645 826.708 192.645 821.886L193.247 806.215C193.649 803.001 193.85 798.581 193.85 792.956C193.85 788.536 195.256 785.924 198.069 785.12C200.48 783.915 203.092 783.513 205.904 783.915C208.717 783.915 210.726 783.915 211.932 783.915C230.415 783.915 254.323 784.718 283.655 786.326L343.325 788.737L378.886 790.545L380.091 754.381Z" fill="white"/>
<path d="M189.63 1066.71C189.63 1039.39 194.251 1018.7 203.492 1004.63C212.734 990.168 221.373 980.123 229.409 974.497C237.044 968.872 241.665 965.256 243.272 963.648C246.888 960.434 250.706 958.827 254.724 958.827C259.546 958.827 263.765 960.635 267.381 964.251C270.997 967.867 275.015 972.488 279.435 978.114C283.855 983.337 287.673 988.159 290.887 992.579C292.093 994.588 292.695 996.396 292.695 998.003C292.695 1001.62 290.887 1005.24 287.271 1008.85C286.467 1009.66 279.837 1015.48 267.381 1026.33C254.523 1037.18 248.094 1053.45 248.094 1075.15C248.094 1091.63 256.934 1105.89 274.614 1117.94C291.892 1130 312.987 1139.24 337.899 1145.67C362.41 1151.7 385.314 1154.71 406.61 1154.71C428.709 1154.71 452.216 1151.5 477.128 1145.07C502.041 1138.64 523.337 1128.39 541.017 1114.33C558.696 1099.86 567.536 1081.78 567.536 1060.08C567.536 1031.15 556.286 1009.05 533.784 993.784C523.337 987.355 511.885 983.136 499.429 981.127L499.429 998.606L498.826 1025.73L498.223 1086.6C498.223 1093.43 495.009 1096.85 488.58 1096.85L465.074 1096.85C461.056 1096.85 458.645 1096.25 457.841 1095.04C456.636 1093.84 456.033 1092.23 456.033 1090.22L456.033 1062.49L453.019 938.937C453.019 935.32 454.827 932.709 458.444 931.101C462.06 929.092 466.882 928.289 472.909 928.69C486.973 928.69 505.255 931.302 527.757 936.526C549.856 941.749 571.554 954.607 592.851 975.1C613.745 995.592 624.192 1026.13 624.192 1066.71C624.192 1096.85 612.74 1122.77 589.837 1144.46C566.934 1165.76 537.601 1181.83 501.84 1192.68C465.676 1203.13 428.709 1208.35 390.939 1208.35C355.579 1208.35 322.43 1201.92 291.49 1189.07C260.55 1175.81 235.838 1158.33 217.355 1136.63C198.872 1114.53 189.63 1091.22 189.63 1066.71Z" fill="white"/>
<path d="M213.741 1254.35C222.581 1255.56 245.283 1256.56 281.849 1257.37C293.099 1257.37 321.628 1258.17 367.435 1259.78C411.635 1261.39 438.556 1262.19 448.2 1262.19C471.505 1262.19 501.038 1261.79 536.8 1260.98C572.159 1260.18 593.255 1259.38 600.086 1258.57C602.496 1258.17 605.309 1257.97 608.524 1257.97C611.336 1257.97 613.345 1258.57 614.551 1259.78C615.756 1260.58 616.962 1261.99 618.167 1264C619.775 1266.41 620.578 1272.64 620.578 1282.68C620.578 1284.29 620.578 1286.9 620.578 1290.52C620.578 1293.73 620.176 1295.74 619.373 1296.54C618.569 1297.35 616.962 1297.75 614.551 1297.75L595.264 1297.15L516.307 1295.94L389.736 1294.74C377.681 1294.74 350.358 1293.93 307.766 1292.33C297.72 1291.92 281.447 1291.32 258.945 1290.52C236.042 1289.71 222.581 1289.71 218.563 1290.52L205.906 1291.12C195.458 1291.12 190.235 1287.91 190.235 1281.48L190.838 1259.18C190.838 1255.16 193.65 1253.15 199.276 1253.15C201.285 1253.15 203.696 1253.35 206.508 1253.75C208.919 1254.15 211.33 1254.35 213.741 1254.35Z" fill="white"/>
<path d="M599.48 1346.49C608.32 1340.87 614.146 1338.06 616.959 1338.06C618.566 1338.06 619.571 1339.06 619.973 1341.07C620.375 1343.08 620.575 1344.89 620.575 1346.49C620.575 1347.7 620.575 1348.7 620.575 1349.51L622.384 1417.62C622.384 1420.83 620.977 1423.44 618.165 1425.45C615.352 1427.06 610.329 1429.47 603.097 1432.68C597.069 1434.69 589.033 1438.31 578.988 1443.53C564.522 1451.57 537.4 1465.43 497.62 1485.12L437.951 1515.86L469.895 1514.05L515.702 1511.04C569.545 1508.63 599.279 1506.62 604.905 1505.01C606.512 1504.61 608.521 1504.41 610.932 1504.41C618.165 1504.41 621.781 1508.22 621.781 1515.86C621.781 1518.27 621.58 1520.28 621.178 1521.89C620.375 1528.32 621.178 1543.99 623.589 1568.9C625.196 1585.78 626 1596.02 626 1599.64C626 1604.86 624.995 1608.48 622.986 1610.49C620.977 1612.09 617.562 1612.9 612.74 1612.9L598.878 1612.29L563.92 1613.5C522.131 1615.91 485.767 1617.12 454.827 1617.12C438.754 1617.12 427.705 1616.51 421.677 1615.31C411.632 1613.3 383.304 1612.29 336.694 1612.29C288.074 1612.29 251.308 1613.1 226.396 1614.71C223.181 1615.11 218.761 1615.31 213.136 1615.31C206.707 1615.31 202.086 1614.71 199.273 1613.5C196.46 1612.29 195.054 1611.09 195.054 1609.88C194.652 1608.28 194.451 1605.66 194.451 1602.05L193.246 1588.79C190.031 1561.06 188.424 1538.96 188.424 1522.49C188.424 1477.49 200.077 1443.73 223.382 1421.23C246.285 1398.33 276.221 1386.88 313.187 1386.88C342.52 1386.88 370.647 1396.32 397.568 1415.2C409.221 1423.24 419.668 1432.48 428.91 1442.93L505.456 1400.74C560.906 1369.8 592.248 1351.72 599.48 1346.49ZM357.789 1519.48C357.789 1513.45 356.583 1508.02 354.173 1503.2C348.949 1491.95 338.301 1486.33 322.228 1486.33C310.576 1486.33 301.937 1488.13 296.311 1491.75C290.686 1495.37 287.873 1499.99 287.873 1505.61C287.873 1510.03 289.48 1513.85 292.695 1517.06C293.097 1517.47 295.909 1517.47 301.133 1517.06C306.357 1516.66 311.58 1516.46 316.804 1516.46C321.224 1516.46 324.438 1516.66 326.447 1517.06C333.278 1518.67 340.31 1519.48 347.543 1519.48L352.967 1520.08L357.789 1519.48Z" fill="white"/>
</g>
<defs>
<clipPath id="clip0_1037_1660">
<rect width="809" height="1838" fill="white"/>
</clipPath>
</defs>
</svg>
