<svg width="241" height="291" viewBox="0 0 241 291" fill="none" xmlns="http://www.w3.org/2000/svg">
<path fill-rule="evenodd" clip-rule="evenodd" d="M128.155 10.175C127.514 3.43765 112.97 4.54743 117.114 14.3188C121.257 17.888 128.65 15.4818 128.155 10.175Z" fill="#DC5D2A"/>
<path fill-rule="evenodd" clip-rule="evenodd" d="M36.1353 44.2211C36.3492 39.7163 32.9004 36.3476 26.9384 37.7781C23.5164 38.5935 20.0676 40.7724 21.4176 46.0526C22.9816 52.2818 35.7876 51.6668 36.1353 44.2211Z" fill="#DC5D2A"/>
<path fill-rule="evenodd" clip-rule="evenodd" d="M62.8171 176.734C65.8783 180.357 73.2705 176.507 69.7146 172.136C66.2392 170.745 61.3333 171.641 62.8171 176.734Z" fill="#DC5D2A"/>
<path fill-rule="evenodd" clip-rule="evenodd" d="M198.55 172.121C186.934 174.969 206.277 184.099 203.149 173.966C202.681 172.455 200.515 171.64 198.55 172.121Z" fill="#DC5D2A"/>
<path fill-rule="evenodd" clip-rule="evenodd" d="M37.0558 181.785C33.7941 196.008 55.1688 197.519 56.8395 186.384C58.7377 173.712 39.1008 172.896 37.0558 181.785Z" fill="#DC5D2A"/>
<path fill-rule="evenodd" clip-rule="evenodd" d="M180.595 189.605C183.549 195.099 194.778 194.751 195.313 187.76C196.021 178.576 179.218 177.373 180.595 189.605Z" fill="#DC5D2A"/>
<path fill-rule="evenodd" clip-rule="evenodd" d="M92.2646 218.131C92.9196 220.484 97.4511 221.66 99.6299 219.053C101.234 210.913 90.7404 212.664 92.2646 218.131Z" fill="#DC5D2A"/>
<path fill-rule="evenodd" clip-rule="evenodd" d="M5.30936 133.476C-2.63088 135.468 -0.853109 146.776 5.30936 148.193C18.0754 151.134 21.1231 129.519 5.30936 133.476Z" fill="#DC5D2A"/>
<path fill-rule="evenodd" clip-rule="evenodd" d="M205.754 102.465C200.742 101.863 196.464 99.1632 198.081 93.4419C199.766 87.4666 210.513 90.9021 217.411 89.2981C225.15 87.4935 221.314 78.8047 215.659 77.2408C208.735 75.3159 199.244 87.4803 192.56 81.0239C189.807 78.3638 193.964 73.431 196.236 72.2815C204.845 67.9105 215.044 70.6239 223.867 67.1484C229.789 64.8225 237.595 58.2589 236.62 51.2009C235.109 40.2129 219.71 40.7875 212.411 43.7952C206.369 46.2682 201.463 50.666 196.624 54.9169C192.56 58.4728 187.427 64.2876 181.532 64.0066C177.562 63.8195 174.795 61.1994 173.712 58.9402C164.569 40.0387 202.92 39.0494 197.172 17.5263C191.17 6.81895 175.436 7.66112 168.646 16.1494C163.513 22.5792 164.917 32.2038 160.812 39.1951C158.339 43.4193 152.485 43.6732 148.555 41.7349C141.991 38.4866 144.919 34.8374 146.844 29.5037C147.632 27.3382 147.993 25.3329 147.405 23.0606C145.948 17.4063 139.599 15.0804 134.599 17.9809C128.035 21.804 133.957 32.6315 128.624 38.2194C123.972 43.0719 114.441 43.4059 108.826 40.5587C100.538 36.3612 101.782 26.9371 99.6294 19.3446C97.504 11.7787 92.6248 4.54683 85.2327 1.28525C77.0386 -2.32401 66.3446 1.80657 67.2001 11.9392C67.6813 17.6205 71.7049 22.9675 75.2608 27.178C79.1774 31.8167 85.8076 37.217 84.9254 44.2083C84.2704 49.4619 78.6829 52.4963 73.8838 52.0285C66.6652 51.32 66.1174 39.2224 58.2438 37.3108C50.7047 35.4661 45.05 39.0218 46.2799 48.3525C48.3653 56.1055 59.6072 54.6621 60.9976 62.1612C62.6017 70.7431 54.2068 79.9666 48.5792 81.4905C34.4098 85.3003 23.0071 64.1662 9.4649 73.2025C1.21701 78.71 7.63354 90.5935 14.9857 92.9862C24.1292 95.9672 40.3974 90.8876 48.5648 97.13C50.7036 100.365 52.4681 103.974 51.7864 110.016C48.4312 123.063 17.2166 107.891 22.3378 127.955C29.7702 138.436 38.2316 127.26 45.7978 124.734C50.1021 123.29 55.6363 123.09 56.385 127.501C57.3608 133.329 49.7147 136.19 46.2659 137.62C39.689 140.347 29.7038 146.028 33.3798 155.559C35.0507 159.903 41.8682 161.815 47.1885 159.235C54.1394 155.867 53.0434 142.633 61.9062 145.44C66.732 146.964 62.3339 158.941 67.8815 162.47C70.1406 163.901 71.2367 162.631 75.7016 164.302C81.4764 171.253 76.5972 187.427 83.0669 192.828C88.0529 196.999 97.1563 191.758 102.383 193.75C108.679 196.143 110.149 212.237 111.58 220.9C113.224 230.751 114.387 244.64 114.347 254.479C114.307 263.488 110.617 273.367 112.047 282.082C113.21 289.114 122.02 294.02 128.155 288.526C135.173 282.23 127.968 267.686 127.233 259.531C125.615 241.739 126.391 219.777 131.831 205.247C133.542 200.689 137.767 189.861 143.328 190.984C152.417 192.815 145.146 218.093 147.645 224.456C149.182 228.386 154.984 228.292 157.577 225.044C160.678 221.154 158.366 215.299 157.377 211.075C156.869 208.883 156.16 206.423 156.494 204.151C156.935 201.143 159.048 199.913 160.719 197.574C167.082 188.725 158.606 163.915 172.321 161.081C176.091 164.316 174.393 171.173 179.687 173.513C183.951 175.397 189.752 173.7 190.728 168.914C192.627 159.583 178.19 155.48 181.064 144.986C181.772 142.406 184.486 141.003 186.585 140.842C197.078 140.054 194.298 153.181 201.77 155.106C208.093 156.723 214.108 151.43 213.654 145.187C213.026 136.645 203.588 136.338 197.626 133.21C194.779 131.713 190.715 127.89 190.715 124.28C190.742 114.201 200.968 114.789 208.026 117.022C214.229 118.987 219.255 124.628 225.805 125.403C232.89 126.259 240.576 119.388 240.977 112.169C241.899 95.3798 215.045 103.601 205.754 102.465Z" fill="#DC5D2A"/>
</svg>
