<svg width="102" height="127" viewBox="0 0 102 127" fill="none" xmlns="http://www.w3.org/2000/svg">
<path d="M65.1319 0.00084699H10.573C4.65044 0.00084699 0 4.65128 0 10.5739V116.304C0 122.227 4.65044 126.877 10.573 126.877H90.928C96.8506 126.877 101.501 122.227 101.501 116.304V36.3699C101.501 34.2553 100.658 32.5619 99.3864 31.2983L70.2027 2.1146C68.9389 0.842543 67.2465 0.00084699 65.1319 0.00084699ZM12.6876 114.189V12.6885H50.7505V35.9491C50.7505 43.9863 57.5155 50.7513 65.5527 50.7513H88.8134V114.189H12.6876ZM65.5527 38.0637C64.2807 38.0637 63.4381 37.2212 63.4381 35.9491V13.1093L88.3926 38.0637H65.5527Z" fill="#20E72E"/>
<path d="M71.8968 59.2098H29.6047C27.0689 59.2098 25.3755 60.9032 25.3755 63.439C25.3755 65.9749 27.0688 67.6683 29.6047 67.6683H71.8968C74.4326 67.6683 76.126 65.9749 76.126 63.439C76.126 60.9032 74.4327 59.2098 71.8968 59.2098Z" fill="#20E72E"/>
<path d="M71.8968 76.1266H29.6047C27.0689 76.1266 25.3755 77.8199 25.3755 80.3558C25.3755 82.8917 27.0688 84.585 29.6047 84.585H71.8968C74.4326 84.585 76.126 82.8917 76.126 80.3558C76.126 77.8199 74.4327 76.1266 71.8968 76.1266Z" fill="#20E72E"/>
<path d="M71.8968 93.0436H29.6047C27.0689 93.0436 25.3755 94.7369 25.3755 97.2728C25.3755 99.8087 27.0688 101.502 29.6047 101.502H71.8968C74.4326 101.502 76.126 99.8087 76.126 97.2728C76.126 94.7369 74.4327 93.0436 71.8968 93.0436Z" fill="#20E72E"/>
</svg>
