<svg width="246" height="262" viewBox="0 0 246 262" fill="none" xmlns="http://www.w3.org/2000/svg">
<path d="M207.591 33.7671C177.069 4.81772 133.724 -6.54565 92.7962 3.69734C51.8683 13.9403 19.1022 44.3323 6.03505 84.1928C-7.0339 124.053 1.43058 167.783 28.4406 199.99C31.3242 203.628 32.5798 208.281 31.9173 212.854L28.6266 239.032C27.6616 246.296 30.7195 253.501 36.6262 257.878C40.1841 260.534 44.521 261.988 48.9742 262C51.7647 261.988 54.5205 261.423 57.0901 260.337L95.226 244.078C98.4699 242.797 102.016 242.404 105.458 242.97C122.434 245.441 139.736 244.321 156.244 239.713C179.499 233.108 200.301 219.898 216.079 201.701C231.858 183.502 241.927 161.113 245.055 137.289C249.891 98.8242 235.985 60.3723 207.591 33.7671Z" fill="#8900F2"/>
<path d="M137.132 54.0008H82.573C76.6504 54.0008 72 58.6513 72 64.5739V170.304C72 176.227 76.6504 180.877 82.573 180.877H162.928C168.851 180.877 173.501 176.227 173.501 170.304V90.3699C173.501 88.2553 172.658 86.5619 171.386 85.2983L142.203 56.1146C140.939 54.8425 139.247 54.0008 137.132 54.0008ZM84.6876 168.189V66.6885H122.751V89.9491C122.751 97.9863 129.516 104.751 137.553 104.751H160.813V168.189H84.6876ZM137.553 92.0637C136.281 92.0637 135.438 91.2212 135.438 89.9491V67.1093L160.393 92.0637H137.553Z" fill="white"/>
<path d="M143.897 113.21H101.605C99.0689 113.21 97.3755 114.903 97.3755 117.439C97.3755 119.975 99.0688 121.668 101.605 121.668H143.897C146.433 121.668 148.126 119.975 148.126 117.439C148.126 114.903 146.433 113.21 143.897 113.21Z" fill="white"/>
<path d="M143.897 130.127H101.605C99.0689 130.127 97.3755 131.82 97.3755 134.356C97.3755 136.892 99.0688 138.585 101.605 138.585H143.897C146.433 138.585 148.126 136.892 148.126 134.356C148.126 131.82 146.433 130.127 143.897 130.127Z" fill="white"/>
<path d="M143.897 147.044H101.605C99.0689 147.044 97.3755 148.737 97.3755 151.273C97.3755 153.809 99.0688 155.502 101.605 155.502H143.897C146.433 155.502 148.126 153.809 148.126 151.273C148.126 148.737 146.433 147.044 143.897 147.044Z" fill="white"/>
</svg>
