<?xml version="1.0" encoding="UTF-8"?>
<svg fill="#0A0223" width="100pt" height="100pt" version="1.1" viewBox="0 0 100 100" xmlns="http://www.w3.org/2000/svg">
 <path d="m50 6.25c7.8086 0 14.141 6.2734 14.141 14.012 0 2.1055-0.46875 4.0977-1.3047 5.8906l11.012-6.3594 0.33594-0.18359c1.3438-0.6875 2.6523-0.82812 3.8008-0.53906 1.2344 0.30859 2.2227 1.1055 2.8125 2.125 0.58594 1.0195 0.78125 2.2695 0.43359 3.4961-0.32422 1.1406-1.1016 2.1992-2.3672 3.0195l-0.32812 0.19922-16.035 9.2578-0.007812 24.453 3.2461 25.953c0.41016 3.2773-2.1484 6.1758-5.4531 6.1758-2.6055 0-4.8398-1.8281-5.375-4.3516l-0.054687-0.29688-2.9258-18.734c-0.14844-0.92969-0.94922-1.6172-1.8945-1.6172-0.89844 0-1.668 0.625-1.8672 1.4883l-0.03125 0.1875-2.3164 18.535c-0.33984 2.7305-2.6914 4.7891-5.4531 4.7891-3.1406 0-5.6406-2.6289-5.4922-5.7227l0.019531-0.28906 2.6055-26.02v-24.551l-16.035-9.2578c-1.4609-0.83984-2.3438-1.9844-2.6953-3.2188-0.34766-1.2266-0.15234-2.4766 0.43359-3.4961 0.58984-1.0195 1.5781-1.8164 2.8125-2.125 1.1484-0.28906 2.457-0.14844 3.8008 0.53906l0.33594 0.18359 11.012 6.3594c-0.83594-1.793-1.3047-3.7852-1.3047-5.8906 0-7.7383 6.332-14.012 14.141-14.012zm24.918 14.742-0.28906 0.15234-13.547 7.8242c-2.5898 3.2344-6.5938 5.3086-11.082 5.3086s-8.4922-2.0742-11.082-5.3086l-13.547-7.8242c-1.1602-0.66797-2.1758-0.76172-2.9727-0.55859-0.80859 0.19922-1.4531 0.71875-1.8398 1.3906-0.38672 0.67188-0.51562 1.4883-0.28516 2.2891 0.20312 0.72266 0.71875 1.4844 1.6953 2.1211l0.27734 0.17188 16.426 9.4844c0.0625 0.035156 0.11719 0.078125 0.16797 0.12891 0.10938 0.11328 0.1875 0.25781 0.21094 0.42188l0.011719 0.125-0.003906 25.078-2.6094 26.094c-0.23047 2.293 1.5977 4.2969 3.918 4.2969 1.8906 0 3.5117-1.3477 3.8633-3.1719l0.039062-0.25 2.3164-18.531c0.21875-1.7422 1.6953-3.0469 3.4492-3.0469 1.6289 0 3.0273 1.125 3.3867 2.6914l0.050781 0.25 2.9258 18.734c0.30078 1.9141 1.9492 3.3242 3.8867 3.3242 2.2812 0 4.0625-1.9297 3.9258-4.1719l-0.023438-0.25-3.25-26.047v-25c0-0.21484 0.085938-0.40625 0.22266-0.54688l0.050782-0.046875 0.11719-0.082031 16.426-9.4844 0.27734-0.17188c0.97656-0.63672 1.4922-1.3984 1.6953-2.1211 0.23047-0.80078 0.10156-1.6172-0.28516-2.2891-0.38672-0.67187-1.0312-1.1914-1.8398-1.3906-0.73047-0.1875-1.6445-0.12109-2.6836 0.40625zm-24.918-13.18c-6.9492 0-12.578 5.5781-12.578 12.449 0 6.875 5.6289 12.453 12.578 12.453s12.578-5.5781 12.578-12.453c0-6.8711-5.6289-12.449-12.578-12.449z"/>
</svg>
