<?xml version="1.0" encoding="UTF-8"?>
<svg fill="#0A0223" width="100pt" height="100pt" version="1.1" viewBox="0 0 100 100" xmlns="http://www.w3.org/2000/svg">
 <path d="m50 6.25c7.8086 0 14.141 6.2734 14.141 14.012 0 2.7578-0.80469 5.3281-2.1914 7.4961l15.867-4.25 0.37109-0.089843c1.4766-0.31641 2.7773-0.11328 3.8125 0.46094 1.1094 0.62109 1.8594 1.6445 2.1641 2.7812 0.30469 1.1367 0.16797 2.3984-0.48437 3.4922-0.60938 1.0156-1.6367 1.8398-3.0703 2.3047l-0.36719 0.10547-17.742 4.7539-0.007812 24.305 3.2461 25.953c0.41016 3.2773-2.1484 6.1758-5.4531 6.1758-2.6055 0-4.8398-1.8281-5.375-4.3516l-0.054687-0.29688-2.9258-18.734c-0.14844-0.92969-0.94922-1.6172-1.8945-1.6172-0.89844 0-1.668 0.625-1.8672 1.4883l-0.03125 0.1875-2.3164 18.535c-0.33984 2.7305-2.6914 4.7891-5.4531 4.7891-3.1406 0-5.6406-2.6289-5.4922-5.7227l0.019531-0.28906 2.6055-26.02v-23.117l-15.621-15.617c-2.2617-2.2617-2.3086-5.2109-0.44531-7.0742 1.7969-1.7969 4.6055-1.8164 6.8281 0.21094l0.24609 0.23438 7.9492 7.9492c-0.38672-1.2773-0.59766-2.6367-0.59766-4.043 0-7.7383 6.332-14.012 14.141-14.012zm-27.461 10.766c-1.1914 1.1914-1.2148 3.0352 0.23828 4.6445l0.20703 0.21875 15.848 15.852 0.058594 0.0625 0.066406 0.097656 0.046875 0.09375 0.03125 0.097656 0.011719 0.035157c0.007813 0.050781 0.015625 0.10937 0.015625 0.16406l-0.007812-0.11719 0.003906 0.050782v23.582l-2.6094 26.094c-0.23047 2.293 1.5977 4.2969 3.918 4.2969 1.8906 0 3.5117-1.3477 3.8633-3.1719l0.039062-0.25 2.3164-18.531c0.21875-1.7422 1.6953-3.0469 3.4492-3.0469 1.6289 0 3.0273 1.125 3.3867 2.6914l0.050781 0.25 2.9258 18.734c0.30078 1.9141 1.9492 3.3242 3.8867 3.3242 2.2812 0 4.0625-1.9297 3.9258-4.1719l-0.023438-0.25-3.25-26.047 0.007812-25.098 0.019532-0.10938 0.035156-0.097657 0.070312-0.12891 0.078126-0.10156 0.066406-0.058594 0.10938-0.082031 0.082031-0.039063 0.10938-0.039062 18.32-4.9102 0.3125-0.09375c1.1094-0.35938 1.8008-0.96484 2.1875-1.6094 0.42969-0.71484 0.51953-1.5391 0.31641-2.2852-0.19922-0.75-0.6875-1.418-1.4141-1.8203-0.66016-0.36719-1.5625-0.54297-2.7031-0.30469l-0.31641 0.078125-17.867 4.7852c-2.5781 2.75-6.2617 4.4727-10.352 4.4727-4.4844 0-8.4805-2.0703-11.07-5.2969l-0.035157-0.03125-11.492-11.492c-1.6562-1.6562-3.6172-1.6875-4.8633-0.44141zm27.461-9.2031c-6.9492 0-12.578 5.5781-12.578 12.449 0 6.875 5.6289 12.453 12.578 12.453s12.578-5.5781 12.578-12.453c0-6.8711-5.6289-12.449-12.578-12.449z"/>
</svg>
