<?xml version="1.0" encoding="UTF-8"?>
<svg fill="#0A0223" width="100pt" height="100pt" version="1.1" viewBox="0 0 100 100" xmlns="http://www.w3.org/2000/svg">
 <path d="m50 6.25c7.8086 0 14.141 6.2734 14.141 14.012 0 4.6016-2.2383 8.6836-5.6914 11.238 6.3086 1.4766 9.4062 9.1914 5.2656 14.68l-0.22656 0.28516-0.98828 1.2148-0.007812 13.941 3.2461 25.953c0.41016 3.2773-2.1484 6.1758-5.4531 6.1758-2.6055 0-4.8398-1.8281-5.375-4.3516l-0.054687-0.29688-2.9258-18.734c-0.14844-0.92969-0.94922-1.6172-1.8945-1.6172-0.89844 0-1.668 0.625-1.8672 1.4883l-0.03125 0.1875-2.3164 18.535c-0.33984 2.7305-2.6914 4.7891-5.4531 4.7891-3.1406 0-5.6406-2.6289-5.4922-5.7227l0.019531-0.28906 2.6055-26.02v-23.117l-15.621-15.617c-2.2617-2.2617-2.3086-5.2109-0.44531-7.0742 1.7969-1.7969 4.6055-1.8164 6.8281 0.21094l0.24609 0.23438 7.9492 7.9492c-0.38672-1.2773-0.59766-2.6367-0.59766-4.043 0-7.7383 6.332-14.012 14.141-14.012zm-27.461 10.766c-1.1914 1.1914-1.2148 3.0352 0.23828 4.6445l0.20703 0.21875 15.906 15.914 0.066406 0.097656 0.046875 0.09375 0.03125 0.097656 0.019532 0.089844 0.007812 0.10938-0.003906 23.516-2.6094 26.094c-0.23047 2.293 1.5977 4.2969 3.918 4.2969 1.8906 0 3.5117-1.3477 3.8633-3.1719l0.039062-0.25 2.3164-18.531c0.21875-1.7422 1.6953-3.0469 3.4492-3.0469 1.6289 0 3.0273 1.125 3.3867 2.6914l0.050781 0.25 2.9258 18.734c0.30078 1.9141 1.9492 3.3242 3.8867 3.3242 2.2812 0 4.0625-1.9297 3.9258-4.1719l-0.023438-0.25-3.25-26.047v-12.496l-8.8008 8.8008c-1.8281 1.832-4.7969 1.832-6.6289 0-1.7578-1.7578-1.8281-4.5625-0.21094-6.4023l0.21094-0.22656 11.715-11.711c0.30469-0.30859 0.79688-0.30859 1.1016 0 0.27344 0.26953 0.30469 0.69141 0.09375 0.99609l-0.09375 0.10547-11.711 11.715c-1.2188 1.2188-1.2188 3.1992 0 4.418 1.1562 1.1562 2.9922 1.2188 4.2227 0.18359l0.19922-0.18359 10.094-10.094c0.042969-0.042969 0.089844-0.082031 0.14453-0.11328l1.0039-1.2305c4.0586-4.9922 0.63281-12.414-5.7031-12.66l-0.28125-0.003906c-1.8945 0.93359-4.0312 1.4609-6.293 1.4609-4.4844 0-8.4805-2.0703-11.07-5.2969l-0.035157-0.03125-11.492-11.492c-1.6562-1.6562-3.6172-1.6875-4.8633-0.44141zm27.461-9.2031c-6.9492 0-12.578 5.5781-12.578 12.449 0 6.875 5.6289 12.453 12.578 12.453s12.578-5.5781 12.578-12.453c0-6.8711-5.6289-12.449-12.578-12.449z"/>
</svg>
