<?xml version="1.0" encoding="UTF-8"?>
<svg fill="#0A0223" width="100pt" height="100pt" version="1.1" viewBox="0 0 100 100" xmlns="http://www.w3.org/2000/svg">
 <path d="m50 6.25c7.8086 0 14.141 6.2734 14.141 14.012 0 2.7578-0.80469 5.3281-2.1914 7.4961l15.867-4.25 0.37109-0.089843c1.4766-0.31641 2.7773-0.11328 3.8125 0.46094 1.1094 0.62109 1.8594 1.6445 2.1641 2.7812 0.30469 1.1367 0.16797 2.3984-0.48437 3.4922-0.60938 1.0156-1.6367 1.8398-3.0703 2.3047l-0.36719 0.10547-17.742 4.7539-0.007812 24.305 3.2461 25.953c0.41016 3.2773-2.1484 6.1758-5.4531 6.1758-2.6055 0-4.8398-1.8281-5.375-4.3516l-0.054687-0.29688-2.9258-18.734c-0.14844-0.92969-0.94922-1.6172-1.8945-1.6172-0.89844 0-1.668 0.625-1.8672 1.4883l-0.03125 0.1875-2.3164 18.535c-0.33984 2.7305-2.6914 4.7891-5.4531 4.7891-3.1406 0-5.6406-2.6289-5.4922-5.7227l0.019531-0.28906 1.8906-18.871c-0.71094 0.42578-1.5391 0.66406-2.4102 0.66406-2.4961 0-4.5352-1.9492-4.6797-4.4102l-0.007812-0.27734v-19.531c0-6.9883 5.0977-12.785 11.777-13.879-3.4062-2.5586-5.6055-6.6094-5.6055-11.172 0-7.7383 6.332-14.012 14.141-14.012zm28.535 18.691-0.31641 0.078125-17.867 4.7852c-2.5781 2.75-6.2617 4.4727-10.352 4.4727-2.2617 0-4.3984-0.52734-6.2969-1.4648-6.75 0.023438-12.242 5.4023-12.445 12.113l-0.007812 0.38672v19.531c0 1.7266 1.3984 3.125 3.125 3.125 1.0273 0 1.9688-0.5 2.5508-1.3164l0.09375-0.14844 0.48047-4.7852v-18.75c0-0.42969 0.35156-0.78125 0.78125-0.78125 0.38281 0 0.70312 0.27734 0.76953 0.64062l0.011719 0.14062-0.003906 18.828-2.6094 26.094c-0.23047 2.293 1.5977 4.2969 3.918 4.2969 1.8906 0 3.5117-1.3477 3.8633-3.1719l0.039062-0.25 2.3164-18.531c0.21875-1.7422 1.6953-3.0469 3.4492-3.0469 1.6289 0 3.0273 1.125 3.3867 2.6914l0.050781 0.25 2.9258 18.734c0.30078 1.9141 1.9492 3.3242 3.8867 3.3242 2.2812 0 4.0625-1.9297 3.9258-4.1719l-0.023438-0.25-3.25-26.047v-25.043l0.011719-0.097656 0.039062-0.13281 0.054688-0.12109 0.046875-0.066407 0.058594-0.074218 0.066406-0.058594 0.10938-0.082031 0.082031-0.039063 0.10938-0.039062 18.32-4.9102 0.3125-0.09375c1.1094-0.35938 1.8008-0.96484 2.1875-1.6094 0.42969-0.71484 0.51953-1.5391 0.31641-2.2852-0.19922-0.75-0.6875-1.418-1.4141-1.8203-0.66016-0.36719-1.5625-0.54297-2.7031-0.30469zm-28.535-17.129c-6.9492 0-12.578 5.5781-12.578 12.449 0 6.875 5.6289 12.453 12.578 12.453s12.578-5.5781 12.578-12.453c0-6.8711-5.6289-12.449-12.578-12.449z"/>
</svg>
