<?xml version="1.0" encoding="UTF-8"?>
<svg fill="#0A0223" width="100pt" height="100pt" version="1.1" viewBox="0 0 100 100" xmlns="http://www.w3.org/2000/svg">
 <path d="m49.277 6.25c7.8125 0 14.141 6.2734 14.141 14.012 0 2.7578-0.80469 5.3281-2.1914 7.4961l15.867-4.25 0.375-0.089843c1.4727-0.31641 2.7734-0.11328 3.8086 0.46094 1.1133 0.62109 1.8594 1.6445 2.1641 2.7812 0.30469 1.1367 0.17188 2.3984-0.48438 3.4922-0.60547 1.0156-1.6328 1.8398-3.0703 2.3047l-0.36719 0.10547-17.742 4.7578v50.961c0 3.0195-2.4453 5.4688-5.4688 5.4688-2.918 0-5.3047-2.2891-5.457-5.168l-0.011718-0.30078v-17.969c0-0.86328-0.69922-1.5625-1.5625-1.5625-0.80078 0-1.4609 0.60547-1.5508 1.3789l-0.011718 0.18359v17.969c0 3.0195-2.4453 5.4688-5.4688 5.4688-2.918 0-5.3047-2.2891-5.457-5.168l-0.011718-0.30078v-47.656h-15.059c-1.6875 0-3.0234-0.54688-3.9453-1.4414-0.91406-0.88672-1.3711-2.0664-1.3711-3.2461s0.45703-2.3594 1.3711-3.2461c0.92187-0.89453 2.2578-1.4414 3.9453-1.4414h18.785c-3.2695-2.5664-5.3633-6.5352-5.3633-10.988 0-7.7383 6.3281-14.012 14.137-14.012zm10.938 82.031 0.003906-51.633 0.027344-0.13672 0.03125-0.097657 0.042968-0.085937 0.054688-0.082031 0.050781-0.058594 0.066407-0.0625 0.10937-0.078125 0.097657-0.050781 0.097656-0.03125 18.32-4.9102 0.3125-0.09375c1.1055-0.35938 1.8008-0.96484 2.1875-1.6094 0.42578-0.71484 0.51562-1.5391 0.31641-2.2852-0.20312-0.75-0.69141-1.418-1.418-1.8203-0.65625-0.36719-1.5586-0.54297-2.6992-0.30469l-0.31641 0.078125-17.867 4.7852c-2.582 2.75-6.2656 4.4727-10.355 4.4727-2.2617 0-4.3984-0.52734-6.2969-1.4648h-21.262c-1.3359 0-2.2656 0.42969-2.8594 1-0.59375 0.57812-0.89453 1.3516-0.89453 2.125s0.30078 1.5469 0.89453 2.125c0.54297 0.52344 1.3711 0.92578 2.5312 0.99219l0.32812 0.007812h15.84c0.38672 0 0.70312 0.27734 0.76953 0.64062l0.011719 0.14062v48.438c0 2.1562 1.75 3.9062 3.9062 3.9062 2.0742 0 3.7656-1.6133 3.8984-3.6484l0.007813-0.25781v-17.969c0-1.7266 1.4023-3.125 3.125-3.125 1.6484 0 3 1.2734 3.1172 2.8906l0.007813 0.23438v17.969c0 2.1562 1.75 3.9062 3.9062 3.9062 2.0742 0 3.7656-1.6133 3.8984-3.6484zm-10.938-80.469c-6.9492 0-12.574 5.5781-12.574 12.449 0 6.875 5.625 12.453 12.574 12.453 6.9531 0 12.578-5.5781 12.578-12.453 0-6.8711-5.6289-12.449-12.578-12.449z"/>
</svg>
