<?xml version="1.0" encoding="UTF-8"?>
<svg fill="#0A0223" width="100pt" height="100pt" version="1.1" viewBox="0 0 100 100" xmlns="http://www.w3.org/2000/svg">
 <path d="m50 6.25c7.8086 0 14.141 6.2734 14.141 14.012 0 4.6016-2.2383 8.6836-5.6914 11.238 6.3086 1.4766 9.4062 9.1992 5.2578 14.688l-0.21875 0.27734-0.98828 1.2148-0.007812 13.941 3.2461 25.953c0.41016 3.2773-2.1484 6.1758-5.4531 6.1758-2.6055 0-4.8398-1.8281-5.375-4.3516l-0.054687-0.29688-2.9258-18.734c-0.14844-0.92969-0.94922-1.6172-1.8945-1.6172-0.89844 0-1.668 0.625-1.8672 1.4883l-0.03125 0.1875-2.3164 18.535c-0.33984 2.7305-2.6914 4.7891-5.4531 4.7891-3.1406 0-5.6406-2.6289-5.4922-5.7227l0.019531-0.28906 2.6055-26.02v-24.402l-17.742-4.7539c-1.6289-0.43359-2.7773-1.3125-3.4375-2.4102-0.65234-1.0938-0.78906-2.3555-0.48437-3.4922 0.30469-1.1367 1.0547-2.1602 2.1641-2.7812 1.0352-0.57422 2.3359-0.77734 3.8125-0.46094l0.37109 0.089843 15.867 4.25c-1.3867-2.168-2.1914-4.7383-2.1914-7.4961 0-7.7383 6.332-14.012 14.141-14.012zm-31.238 18.996c-0.72656 0.40234-1.2148 1.0703-1.4141 1.8203-0.20312 0.74609-0.11328 1.5703 0.31641 2.2852 0.38672 0.64453 1.0781 1.25 2.1875 1.6094l0.3125 0.09375 18.387 4.9297 0.125 0.058594 0.078125 0.054687 0.0625 0.054688 0.089844 0.097656 0.054688 0.082031 0.03125 0.066407 0.054687 0.16016 0.015625 0.125-0.003906 25.113-2.6094 26.094c-0.23047 2.293 1.5977 4.2969 3.918 4.2969 1.8906 0 3.5117-1.3477 3.8633-3.1719l0.039062-0.25 2.3164-18.531c0.21875-1.7422 1.6953-3.0469 3.4492-3.0469 1.6289 0 3.0273 1.125 3.3867 2.6914l0.050781 0.25 2.9258 18.734c0.30078 1.9141 1.9492 3.3242 3.8867 3.3242 2.2812 0 4.0625-1.9297 3.9258-4.1719l-0.023438-0.25-3.25-26.047v-12.496l-8.8008 8.8008c-1.8281 1.832-4.7969 1.832-6.6289 0-1.7578-1.7578-1.8281-4.5625-0.21094-6.4023l0.21094-0.22656 11.715-11.711c0.30469-0.30859 0.79688-0.30859 1.1016 0 0.27344 0.26953 0.30469 0.69141 0.09375 0.99609l-0.09375 0.10547-11.711 11.715c-1.2188 1.2188-1.2188 3.1992 0 4.418 1.1562 1.1562 2.9922 1.2188 4.2227 0.18359l0.19922-0.18359 10.094-10.094c0.042969-0.042969 0.089844-0.082031 0.14453-0.11328l1.0039-1.2305c4.1172-5.0664 0.53125-12.633-5.9844-12.668-1.8945 0.9375-4.0312 1.4648-6.293 1.4648-4.0898 0-7.7734-1.7227-10.352-4.4727l-17.867-4.7852c-1.293-0.34766-2.3008-0.17578-3.0195 0.22656zm31.238-17.434c-6.9492 0-12.578 5.5781-12.578 12.449 0 6.875 5.6289 12.453 12.578 12.453s12.578-5.5781 12.578-12.453c0-6.8711-5.6289-12.449-12.578-12.449z"/>
</svg>
