<?xml version="1.0" encoding="UTF-8"?>
<svg fill="#0A0223" width="100pt" height="100pt" version="1.1" viewBox="0 0 100 100" xmlns="http://www.w3.org/2000/svg">
 <path d="m50 7.8125c-6.9492 0-12.578 5.5781-12.578 12.449 0 6.875 5.6289 12.453 12.578 12.453s12.578-5.5781 12.578-12.453c0-6.8711-5.6289-12.449-12.578-12.449zm-28.031 18.574 0.27734 0.17188 16.426 9.4844c0.0625 0.035156 0.11719 0.078125 0.16797 0.12891 0.10547 0.10938 0.17969 0.25 0.21094 0.40625l0.011719 0.14062v51.562c0 2.1562 1.75 3.9062 3.9062 3.9062 2.0703 0 3.7656-1.6133 3.8984-3.6484l0.007812-0.25781v-17.969c0-1.7266 1.3984-3.125 3.125-3.125 1.6484 0 2.9961 1.2734 3.1172 2.8906l0.007812 0.23438v17.969c0 2.1562 1.75 3.9062 3.9062 3.9062 2.0703 0 3.7656-1.6133 3.8984-3.6484l0.007812-0.25781v-43.75c0-0.050781 0.003906-0.097656 0.015625-0.14844-0.046875-0.23828 0.027344-0.49609 0.21484-0.68359 0.26953-0.26953 0.69141-0.30078 0.99609-0.089844l0.10547 0.089844 11.66 11.656c1.2188 1.2227 3.1953 1.2227 4.418 0 1.1562-1.1562 1.2148-2.9922 0.18359-4.2188l-0.18359-0.19922-13.25-13.254-1.1836-1.0859c-2.0391-1.8672-4.5469-3.1445-7.25-3.6953l-0.39844-0.074219-0.47656 0.22266c-1.7656 0.78906-3.7266 1.2266-5.7891 1.2266-4.4883 0-8.4883-2.0742-11.078-5.3047l-13.551-7.8281c-1.1562-0.66797-2.1758-0.76172-2.9766-0.55859-0.80469 0.19922-1.4492 0.71875-1.8359 1.3906-0.38672 0.67188-0.51562 1.4883-0.28516 2.2891 0.20312 0.72266 0.71875 1.4844 1.6953 2.1211zm-3.1992-1.6953c-0.34766-1.2266-0.15234-2.4766 0.43359-3.4961 0.58984-1.0195 1.5781-1.8164 2.8125-2.125 1.1484-0.28906 2.457-0.14844 3.8008 0.53906l0.33594 0.18359 11.012 6.3594c-0.83594-1.793-1.3047-3.7852-1.3047-5.8906 0-7.7383 6.332-14.012 14.141-14.012s14.141 6.2734 14.141 14.012c0 4.707-2.3398 8.8711-5.9297 11.41 2.3125 0.66016 4.4648 1.8086 6.3047 3.375l0.45312 0.40234 1.207 1.1094 13.277 13.273c1.8281 1.8281 1.8281 4.7969 0 6.6289-1.7578 1.7578-4.5625 1.8281-6.4062 0.21094l-0.22266-0.21094-10.324-10.324v42.145c0 3.0195-2.4492 5.4688-5.4688 5.4688-2.918 0-5.3047-2.2891-5.4609-5.168l-0.007812-0.30078v-17.969c0-0.86328-0.69922-1.5625-1.5625-1.5625-0.80078 0-1.4609 0.60547-1.5508 1.3789l-0.011719 0.18359v17.969c0 3.0195-2.4492 5.4688-5.4688 5.4688-2.918 0-5.3047-2.2891-5.4609-5.168l-0.007812-0.30078v-51.113l-16.035-9.2578c-1.4609-0.83984-2.3438-1.9844-2.6953-3.2188z"/>
</svg>
