<?xml version="1.0" encoding="UTF-8"?>
<svg fill="#0A0223" width="100pt" height="100pt" version="1.1" viewBox="0 0 100 100" xmlns="http://www.w3.org/2000/svg">
 <path d="m50 6.25c7.8086 0 14.141 6.2734 14.141 14.012 0 4.5625-2.1992 8.6133-5.6055 11.172 6.543 1.0703 11.57 6.6562 11.77 13.453l0.007812 0.42578v19.531c0 2.5898-2.0977 4.6875-4.6875 4.6875-1.1992 0-2.2969-0.45312-3.125-1.1914v19.941c0 3.0195-2.4492 5.4688-5.4688 5.4688-2.918 0-5.3047-2.2891-5.4609-5.168l-0.007812-0.30078v-17.969c0-0.86328-0.69922-1.5625-1.5625-1.5625-0.80078 0-1.4609 0.60547-1.5508 1.3789l-0.011719 0.18359v17.969c0 3.0195-2.4492 5.4688-5.4688 5.4688-2.918 0-5.3047-2.2891-5.4609-5.168l-0.007812-0.30078v-19.945c-0.82812 0.74219-1.9219 1.1953-3.125 1.1953-2.4961 0-4.5352-1.9492-4.6797-4.4102l-0.007812-0.27734v-19.531c0-6.9883 5.0977-12.785 11.773-13.879-3.4023-2.5586-5.6016-6.6094-5.6016-11.172 0-7.7383 6.332-14.012 14.141-14.012zm6.6406 26.57-0.34375-0.007812c-1.8984 0.9375-4.0352 1.4648-6.2969 1.4648s-4.3984-0.52734-6.2969-1.4648c-6.75 0.023438-12.242 5.4023-12.445 12.113l-0.007812 0.38672v19.531c0 1.7266 1.3984 3.125 3.125 3.125 1.6484 0 2.9961-1.2734 3.1172-2.8906l0.007812-0.23438v-21.875c0-0.42969 0.35156-0.78125 0.78125-0.78125 0.38281 0 0.70312 0.27734 0.76953 0.64062l0.011719 0.14062v45.312c0 2.1562 1.75 3.9062 3.9062 3.9062 2.0703 0 3.7656-1.6133 3.8984-3.6484l0.007812-0.25781v-17.969c0-1.7266 1.3984-3.125 3.125-3.125 1.6484 0 2.9961 1.2734 3.1172 2.8906l0.007812 0.23438v17.969c0 2.1562 1.75 3.9062 3.9062 3.9062 2.0703 0 3.7656-1.6133 3.8984-3.6484l0.007812-0.25781v-45.312c0-0.42969 0.35156-0.78125 0.78125-0.78125 0.38281 0 0.70312 0.27734 0.76953 0.64062l0.011719 0.14062v21.875c0 1.7266 1.3984 3.125 3.125 3.125 1.6484 0 2.9961-1.2734 3.1172-2.8906l0.007812-0.23438v-19.531c0-6.7734-5.3867-12.289-12.109-12.492zm-6.6406-25.008c-6.9492 0-12.578 5.5781-12.578 12.449 0 6.875 5.6289 12.453 12.578 12.453s12.578-5.5781 12.578-12.453c0-6.8711-5.6289-12.449-12.578-12.449z"/>
</svg>
