<?xml version="1.0" encoding="UTF-8"?>
<svg fill="#0A0223" width="100pt" height="100pt" version="1.1" viewBox="0 0 100 100" xmlns="http://www.w3.org/2000/svg">
 <path d="m51.027 6.25c7.8086 0 14.137 6.2734 14.137 14.012 0 4.707-2.3398 8.8711-5.9258 11.41 2.3125 0.65625 4.4648 1.8086 6.3047 3.375l0.45312 0.40234 1.207 1.1094 13.273 13.273c1.832 1.8281 1.832 4.7969 0 6.6289-1.7578 1.7578-4.5625 1.8281-6.4023 0.21094l-0.22656-0.21094-10.324-10.324 0.003906 42.145c0 3.0195-2.4492 5.4688-5.4688 5.4688-2.9219 0-5.3047-2.2891-5.4609-5.168l-0.007812-0.30078v-17.969c0-0.86328-0.70312-1.5625-1.5625-1.5625-0.80078 0-1.4648 0.60547-1.5547 1.3789l-0.007812 0.18359v17.969c0 3.0195-2.4492 5.4688-5.4688 5.4688-2.9219 0-5.3047-2.2891-5.4609-5.168l-0.007812-0.30078-0.003906-47.656h-15.059c-1.6875 0-3.0234-0.54688-3.9453-1.4414-0.91406-0.88672-1.3711-2.0664-1.3711-3.2461s0.45703-2.3594 1.3711-3.2461c0.92188-0.89453 2.2578-1.4414 3.9453-1.4414h18.785c-3.2695-2.5664-5.3633-6.5352-5.3633-10.988 0-7.7383 6.3281-14.012 14.141-14.012zm-6.2969 26.562h-21.266c-1.3359 0-2.2656 0.42969-2.8555 1-0.59766 0.57812-0.89844 1.3516-0.89844 2.125s0.30078 1.5469 0.89844 2.125c0.53906 0.52344 1.3672 0.92578 2.5312 0.99219l0.32422 0.007812h15.844c0.38281 0 0.69922 0.27734 0.76562 0.64062l0.015625 0.14062v48.438c0 2.1562 1.7461 3.9062 3.9062 3.9062 2.0703 0 3.7656-1.6133 3.8945-3.6484l0.011719-0.25781v-17.969c0-1.7266 1.3984-3.125 3.125-3.125 1.6445 0 2.9961 1.2773 3.1133 2.8906l0.011719 0.23438v17.969c0 2.1562 1.7461 3.9062 3.9062 3.9062 2.0703 0 3.7656-1.6133 3.8945-3.6484l0.011719-0.25781v-43.75c0-0.050781 0.003906-0.10156 0.011718-0.14844-0.042968-0.23828 0.027344-0.49609 0.21484-0.68359 0.27344-0.26953 0.69141-0.30078 0.99609-0.089844l0.10938 0.089844 11.656 11.656c1.2188 1.2227 3.1992 1.2227 4.4219 0 1.1523-1.1562 1.2148-2.9922 0.17969-4.2188l-0.17969-0.19922-13.254-13.254-1.1836-1.0859c-2.0391-1.8672-4.543-3.1445-7.2461-3.6953l-0.40234-0.074219-0.47656 0.22266c-1.7656 0.78906-3.7227 1.2266-5.7852 1.2266-2.2656 0-4.4023-0.52734-6.2969-1.4648zm6.2969-25c-6.9492 0-12.578 5.5781-12.578 12.449 0 6.875 5.625 12.453 12.578 12.453 6.9492 0 12.574-5.5781 12.574-12.453 0-6.8711-5.625-12.449-12.574-12.449z"/>
</svg>
