<?xml version="1.0" encoding="UTF-8"?>
<svg fill="#0A0223" width="100pt" height="100pt" version="1.1" viewBox="0 0 100 100" xmlns="http://www.w3.org/2000/svg">
 <path d="m50 6.25c7.8086 0 14.141 6.2812 14.141 14.016 0 4.5977-2.2383 8.6797-5.6914 11.238 6.3086 1.4766 9.4062 9.1992 5.2578 14.676l-0.21875 0.28125-0.98828 1.2227-0.007812 13.938 3.2461 25.953c0.41016 3.2812-2.1484 6.1758-5.4531 6.1758-2.6094 0-4.8398-1.8242-5.375-4.3516l-0.054687-0.29297-2.9258-18.734c-0.14844-0.93359-0.94922-1.6211-1.8945-1.6211-0.89844 0-1.668 0.62891-1.8672 1.4883l-0.03125 0.1875-2.3164 18.531c-0.34375 2.7305-2.6914 4.793-5.4531 4.793-3.1406 0-5.6406-2.6289-5.4961-5.7227l0.023437-0.29297 2.6055-26.016v-21.094h-15.062c-1.6836 0-3.0234-0.54688-3.9414-1.4375-0.91797-0.89062-1.3711-2.0781-1.3711-3.25s0.45312-2.3594 1.3711-3.25c0.91797-0.89062 2.2578-1.4375 3.9414-1.4375h18.781c-3.2617-2.5664-5.3594-6.5352-5.3594-10.984 0-7.7344 6.332-14.016 14.141-14.016zm-27.562 26.562c-1.3359 0-2.2656 0.42188-2.8555 1-0.59766 0.57812-0.89453 1.3438-0.89453 2.125s0.29688 1.5469 0.89453 2.125c0.54297 0.53125 1.3672 0.92969 2.5312 0.99219l0.32422 0.007812h15.844c0.33594 0 0.62109 0.20703 0.73047 0.50781l0.039062 0.13281 0.011719 0.14062-0.003906 21.953-2.6094 26.094c-0.23047 2.2969 1.5977 4.2969 3.918 4.2969 1.8906 0 3.5117-1.3516 3.8633-3.1719l0.039062-0.25391 2.3164-18.531c0.21875-1.7344 1.6992-3.043 3.4492-3.043 1.6289 0 3.0273 1.1289 3.3867 2.6914l0.050781 0.25 2.9258 18.734c0.30078 1.9141 1.9453 3.3242 3.8867 3.3242 2.2812 0 4.0625-1.9258 3.9258-4.168l-0.023438-0.25-3.25-26.051v-12.496l-8.7969 8.7969c-1.832 1.8398-4.8008 1.8398-6.6328 0-1.7578-1.7617-1.8281-4.5664-0.21094-6.3945l0.21094-0.22266 11.715-11.719c0.30469-0.30859 0.79688-0.30859 1.1016 0 0.27344 0.26953 0.30469 0.69141 0.09375 0.99609l-0.09375 0.10547-11.711 11.723c-1.2188 1.2109-1.2188 3.1836 0 4.4102 1.1562 1.1602 2.9922 1.2227 4.2227 0.18359l0.19922-0.18359 10.094-10.094c0.042969-0.046875 0.097656-0.089844 0.15234-0.12109l0.99609-1.2266c4.1133-5.0547 0.53125-12.625-5.9766-12.664-1.8984 0.94141-4.0352 1.4688-6.3008 1.4688s-4.4062-0.52734-6.3008-1.4688zm27.562-25c-6.9492 0-12.578 5.582-12.578 12.453s5.6289 12.453 12.578 12.453 12.578-5.582 12.578-12.453-5.6289-12.453-12.578-12.453z"/>
</svg>
