<?xml version="1.0" encoding="UTF-8"?>
<svg fill="#0A0223" width="100pt" height="100pt" version="1.1" viewBox="0 0 100 100" xmlns="http://www.w3.org/2000/svg">
 <path d="m50 6.25c7.8086 0 14.141 6.2734 14.141 14.012 0 1.4062-0.21094 2.7656-0.59766 4.043l7.9492-7.9492c2.2617-2.2617 5.2109-2.3086 7.0742-0.44531 1.7969 1.7969 1.8164 4.6055-0.21094 6.8281l-0.23438 0.24609-15.621 15.621-0.007812 23.016 3.2461 25.953c0.41016 3.2773-2.1484 6.1758-5.4531 6.1758-2.6055 0-4.8398-1.8281-5.375-4.3516l-0.054687-0.29688-2.9258-18.734c-0.14844-0.92969-0.94922-1.6172-1.8945-1.6172-0.89844 0-1.668 0.625-1.8672 1.4883l-0.03125 0.1875-2.3164 18.535c-0.33984 2.7305-2.6914 4.7891-5.4531 4.7891-3.1406 0-5.6406-2.6289-5.4922-5.7227l0.019531-0.28906 1.8906-18.871c-0.71094 0.42578-1.5391 0.66406-2.4102 0.66406-2.4961 0-4.5352-1.9492-4.6797-4.4102l-0.007812-0.27734v-19.531c0-6.9883 5.0977-12.785 11.777-13.879-3.4062-2.5586-5.6055-6.6094-5.6055-11.172 0-7.7383 6.332-14.012 14.141-14.012zm22.816 11-0.21875 0.20703-11.523 11.523c-2.5938 3.2266-6.5898 5.2969-11.074 5.2969-2.2617 0-4.3984-0.52734-6.2969-1.4648-6.75 0.023438-12.242 5.4023-12.445 12.113l-0.007812 0.38672v19.531c0 1.7266 1.3984 3.125 3.125 3.125 1.0273 0 1.9688-0.5 2.5508-1.3164l0.09375-0.14844 0.48047-4.7852v-18.75c0-0.42969 0.35156-0.78125 0.78125-0.78125 0.38281 0 0.70312 0.27734 0.76953 0.64062l0.011719 0.14062-0.003906 18.828-2.6094 26.094c-0.23047 2.293 1.5977 4.2969 3.918 4.2969 1.8906 0 3.5117-1.3477 3.8633-3.1719l0.039062-0.25 2.3164-18.531c0.21875-1.7422 1.6953-3.0469 3.4492-3.0469 1.6289 0 3.0273 1.125 3.3867 2.6914l0.050781 0.25 2.9258 18.734c0.30078 1.9141 1.9492 3.3242 3.8867 3.3242 2.2812 0 4.0625-1.9297 3.9258-4.1719l-0.023438-0.25-3.25-26.047v-23.469l0.011719-0.10938 0.023437-0.09375 0.039063-0.097656 0.0625-0.11328 0.074219-0.089844 15.867-15.867c1.6602-1.6562 1.6914-3.6211 0.44531-4.8633-1.1914-1.1914-3.0352-1.2148-4.6445 0.23438zm-22.816-9.4375c-6.9492 0-12.578 5.5781-12.578 12.449 0 6.875 5.6289 12.453 12.578 12.453s12.578-5.5781 12.578-12.453c0-6.8711-5.6289-12.449-12.578-12.449z"/>
</svg>
