<?xml version="1.0" encoding="UTF-8"?>
<svg fill="#0A0223" width="100pt" height="100pt" version="1.1" viewBox="0 0 100 100" xmlns="http://www.w3.org/2000/svg">
 <path d="m50 6.25c7.8086 0 14.141 6.2773 14.141 14.016 0 4.5977-2.2383 8.6797-5.6914 11.238 6.3086 1.4766 9.4062 9.1914 5.2656 14.672l-0.22656 0.28516-0.98828 1.2227-0.007812 13.938 3.2461 25.953c0.41016 3.2812-2.1484 6.1758-5.4531 6.1758-2.6094 0-4.8398-1.8242-5.375-4.3516l-0.054687-0.29297-2.9258-18.734c-0.14844-0.93359-0.94922-1.6211-1.8945-1.6211-0.89844 0-1.668 0.62891-1.8672 1.4883l-0.03125 0.1875-2.3164 18.531c-0.34375 2.7305-2.6914 4.793-5.4531 4.793-3.1406 0-5.6406-2.6289-5.4961-5.7227l0.023437-0.29297 2.6055-26.016v-24.406l-17.742-4.75c-1.6289-0.4375-2.7773-1.3125-3.4375-2.4062-0.65234-1.0938-0.78906-2.3594-0.48437-3.5 0.30469-1.1406 1.0508-2.1562 2.1641-2.7812 1.0352-0.57812 2.3359-0.76953 3.8125-0.44922l0.37109 0.089844 15.867 4.2461c-1.3867-2.168-2.1914-4.7422-2.1914-7.4961 0-7.7383 6.332-14.016 14.141-14.016zm-31.238 19c-0.72656 0.40625-1.2148 1.0625-1.4141 1.8125-0.20312 0.75-0.11328 1.5781 0.3125 2.2812 0.38672 0.65234 1.0703 1.2422 2.1641 1.6133l0.33984 0.10547 18.254 4.8867c0.15625 0.027343 0.29688 0.10156 0.40625 0.20703l0.058593 0.0625 0.070313 0.10156 0.050781 0.097657 0.042969 0.13672 0.015625 0.13281-0.003906 25.109-2.6094 26.094c-0.23047 2.2969 1.5977 4.2969 3.918 4.2969 1.8906 0 3.5117-1.3516 3.8633-3.1719l0.039062-0.25391 2.3164-18.531c0.21875-1.7344 1.6992-3.043 3.4492-3.043 1.6289 0 3.0273 1.1289 3.3867 2.6914l0.050781 0.25 2.9258 18.734c0.30078 1.9141 1.9492 3.3242 3.8867 3.3242 2.2812 0 4.0625-1.9258 3.9258-4.168l-0.023438-0.25-3.25-26.051v-12.496l-8.7969 8.7969c-1.832 1.8398-4.8008 1.8398-6.6328 0-1.7578-1.7617-1.8281-4.5664-0.21094-6.3945l0.21094-0.22266 11.715-11.719c0.30469-0.30859 0.79688-0.30859 1.1016 0 0.27344 0.26953 0.30469 0.69141 0.09375 0.99609l-0.09375 0.10547-11.711 11.723c-1.2188 1.2109-1.2188 3.1836 0 4.4102 1.1562 1.1602 2.9922 1.2227 4.2227 0.18359l0.19922-0.18359 10.094-10.094c0.046875-0.046875 0.097656-0.089844 0.15234-0.12109l0.99609-1.2266c4.0586-4.9844 0.63281-12.41-5.7031-12.656l-0.27344-0.003906c-1.8984 0.9375-4.0352 1.4648-6.3008 1.4648-4.0859 0-7.7656-1.7188-10.348-4.4688l-17.871-4.7969c-1.293-0.34375-2.3008-0.17188-3.0195 0.23438zm31.238-17.438c-6.9492 0-12.578 5.582-12.578 12.453s5.6289 12.453 12.578 12.453 12.578-5.582 12.578-12.453-5.6289-12.453-12.578-12.453z"/>
</svg>
