<svg width="269" height="201" viewBox="0 0 269 201" fill="none" xmlns="http://www.w3.org/2000/svg">
<path d="M267.006 0.0445689L204.794 20.1919C203.687 20.4133 204.13 21.9631 205.237 22.1844L225.605 26.3911L167.819 115.835L120.884 92.8091L113.8 96.7941L62.6562 124.469L69.2983 137.088L118.892 113.62L165.827 147.052L176.232 153.694L184.867 142.846L257.043 51.407L265.457 66.905C266.121 68.012 267.449 67.7906 267.671 66.905L268.999 1.59222C268.778 0.485239 267.892 -0.176815 267.006 0.0445689Z" fill="#C703D0"/>
<path d="M240.44 178.271C240.661 177.385 240.661 176.278 240.661 175.393V100.34L223.17 122.48V178.049H155.865C155.644 183.806 150.994 188.234 145.238 188.234H121.549C115.792 188.234 111.143 183.585 110.921 178.049H43.6164V67.3518H178.669L189.738 50.3042H44.5012C34.3167 50.3042 26.1251 59.1601 26.1251 70.0086V175.172C26.1251 176.279 26.1251 177.164 26.3465 178.05H0V181.149C0 192.219 8.19166 200.854 18.3761 200.854H247.967C258.152 200.854 266.343 191.998 266.343 181.149V178.05H240.44L240.44 178.271Z" fill="#C703D0"/>
</svg>
