<svg width="428" height="428" viewBox="0 0 428 428" fill="none" xmlns="http://www.w3.org/2000/svg">
<path d="M30.916 408.475C34.1092 408.475 37.2024 407.338 39.6433 405.265L45.6956 400.115H45.6788C52.9514 404.295 62.063 403.543 68.533 398.209L103.542 425.21C109.41 429.708 117.803 428.638 122.367 422.819L126.496 417.503C128.687 414.694 129.656 411.133 129.222 407.605C128.77 404.078 126.931 400.868 124.122 398.694L94.6642 375.974L103.692 368.266L220.758 331.669V331.685C225.673 336.617 233.565 336.919 238.848 332.371L249.096 323.627V323.644C251.805 321.336 253.476 318.043 253.761 314.499C254.045 310.954 252.891 307.443 250.584 304.735L136.848 172.372L136.831 172.388C132 166.788 123.557 166.136 117.922 170.934L107.674 179.678L107.691 179.661C102.358 184.175 101.421 192.033 105.551 197.651L51.2636 307.193L16.4555 336.885C9.9521 342.419 7.66146 351.447 10.7379 359.405L4.71941 364.555C2.011 366.862 0.322593 370.139 0.0384033 373.7C-0.229095 377.244 0.907794 380.755 3.23165 383.447L20.7359 403.81C23.2771 406.786 27.0037 408.492 30.916 408.475ZM115.946 409.277L115.929 409.294L111.7 414.627L78.948 389.382L84.2479 384.868L115.946 409.277ZM64.6036 310.401L114.979 208.768L211.128 320.668L102.593 354.607L84.1853 333.191L64.6036 310.401ZM126.697 181.098L240.433 313.461L240.417 313.478L230.084 322.222L227.928 319.714L116.366 189.841L126.697 181.098ZM25.1337 347.063L55.9127 320.798L79.4192 348.15L90.9383 361.558L60.1927 387.79H60.2094C57.3505 390.231 53.0704 389.913 50.6128 387.071L24.3646 356.526C23.2111 355.188 22.6259 353.433 22.7764 351.677C22.9101 349.889 23.7628 348.217 25.1337 347.063ZM18.5802 370.302L36.0845 390.682L30.8852 395.079L13.3976 374.699L18.5802 370.302Z" fill="#C703D0"/>
<path d="M232.174 212.463C233.762 212.463 235.3 211.895 236.504 210.858L246.752 202.131C249.561 199.724 249.895 195.51 247.488 192.702C245.097 189.893 240.884 189.559 238.059 191.949L227.81 200.693H227.827C225.687 202.516 224.918 205.458 225.888 208.1C226.857 210.725 229.365 212.463 232.174 212.463Z" fill="#C703D0"/>
<path d="M253.556 279.535L266.981 280.555C267.149 280.572 267.332 280.572 267.5 280.572C271.094 280.572 274.053 277.729 274.187 274.135C274.321 270.54 271.596 267.481 268.001 267.213L254.576 266.194C252.804 266.06 251.049 266.628 249.711 267.782C248.357 268.935 247.521 270.591 247.387 272.363C247.254 274.135 247.822 275.874 248.992 277.228C250.146 278.565 251.784 279.401 253.556 279.535Z" fill="#C703D0"/>
<path d="M163.395 159.982L162.342 173.357C162.041 177.035 164.799 180.262 168.478 180.546C168.661 180.563 168.829 180.563 169.013 180.563C172.507 180.563 175.399 177.888 175.667 174.41L176.72 161.035L176.737 161.019C177.021 157.34 174.262 154.13 170.584 153.846C166.906 153.545 163.696 156.304 163.395 159.982Z" fill="#C703D0"/>
<path d="M230.719 50.1573C230.719 22.5047 202.214 0 167.187 0C132.161 0 103.655 22.5034 103.655 50.1573C103.655 68.2805 115.994 84.8655 135.571 93.7106L127.546 123.035C126.794 125.727 127.814 128.603 130.104 130.241C132.378 131.863 135.437 131.896 137.745 130.325L184.674 98.4089C211.859 92.3065 230.719 72.6256 230.719 50.1573ZM178.238 86.6041L145.236 109.057L150.051 91.4859C150.97 88.0919 149.114 84.5642 145.804 83.3941C128.333 77.3084 117.031 64.2509 117.031 50.1573C117.031 29.8774 139.534 13.3759 167.188 13.3759C194.842 13.3759 217.345 29.8774 217.345 50.1573C217.345 66.575 202.248 81.1372 180.648 85.5842C179.778 85.7681 178.957 86.1192 178.238 86.6041Z" fill="#C703D0"/>
<path d="M147.127 50.1573C147.127 59.0683 133.752 59.0683 133.752 50.1573C133.752 41.2464 147.127 41.2464 147.127 50.1573Z" fill="#C703D0"/>
<path d="M173.877 50.1573C173.877 59.0683 160.502 59.0683 160.502 50.1573C160.502 41.2464 173.877 41.2464 173.877 50.1573Z" fill="#C703D0"/>
<path d="M200.627 50.1573C200.627 59.0683 187.252 59.0683 187.252 50.1573C187.252 41.2464 200.627 41.2464 200.627 50.1573Z" fill="#C703D0"/>
<path d="M374.501 137.093C381.89 137.093 387.876 131.107 387.876 123.718V73.0253C387.876 70.2166 386.973 67.4913 385.301 65.2177C384.565 63.3954 383.027 62.0245 381.138 61.4895C379.132 60.3024 376.841 59.6671 374.5 59.6504H300.936C298.746 59.6671 296.606 60.2356 294.684 61.2721C291.791 61.7068 289.535 63.9806 289.133 66.8729C288.113 68.7622 287.578 70.8854 287.562 73.0254V123.718C287.562 131.108 293.547 137.093 300.936 137.093L374.501 137.093ZM340.328 114.221L374.501 81.5695V110.744L369.853 104.508L360.106 113.82L367.496 123.718H309.716L318.912 113.653L308.663 105.026L300.939 113.486V81.0015L340.328 114.221ZM312.24 73.0262H364.084L339.758 96.2486L312.24 73.0262Z" fill="#C703D0"/>
<path d="M428 257.468V203.968C428 196.578 422.015 190.593 414.625 190.593H334.376C326.986 190.593 321.001 196.578 321.001 203.968V257.468C321.001 264.858 326.986 270.843 334.376 270.843H414.625C422.015 270.843 428 264.858 428 257.468ZM334.376 203.968H414.625L414.642 257.468H334.375L334.376 203.968Z" fill="#C703D0"/>
<path d="M384.413 227.709L367.51 217.878C366.474 217.377 365.253 217.444 364.283 218.062C363.297 218.664 362.712 219.734 362.712 220.888V240.549C362.712 241.703 363.297 242.773 364.283 243.375C365.253 243.993 366.474 244.06 367.51 243.559L384.413 233.728C385.566 233.159 386.285 232.006 386.285 230.718C386.285 229.431 385.566 228.277 384.413 227.709Z" fill="#C703D0"/>
<path d="M300.936 428C321.216 428 339.506 415.778 347.28 397.037C355.037 378.295 350.74 356.728 336.396 342.381C322.051 328.036 300.484 323.74 281.74 331.497C262.999 339.271 250.777 357.561 250.777 377.841C250.811 405.527 273.249 427.966 300.936 428ZM300.936 341.065C315.816 341.065 329.224 350.026 334.925 363.769C340.609 377.511 337.466 393.327 326.95 403.86C316.418 414.376 300.602 417.519 286.859 411.835C273.116 406.134 264.155 392.726 264.155 377.846C264.172 357.549 280.64 341.082 300.936 341.065Z" fill="#C703D0"/>
<path d="M290.154 403.005C291.776 403.707 293.632 403.74 295.27 403.072C296.925 402.419 298.229 401.132 298.932 399.494L315.232 361.459C316.687 358.065 315.115 354.136 311.721 352.681C308.328 351.226 304.399 352.798 302.944 356.192L286.643 394.227C285.941 395.849 285.924 397.688 286.576 399.343C287.228 400.981 288.516 402.302 290.154 403.005Z" fill="#C703D0"/>
<path d="M294.251 364.467C294.251 373.378 280.876 373.378 280.876 364.467C280.876 355.556 294.251 355.556 294.251 364.467Z" fill="#C703D0"/>
<path d="M321.202 391.419C321.202 400.347 307.827 400.347 307.827 391.419C307.827 382.508 321.202 382.508 321.202 391.419Z" fill="#C703D0"/>
</svg>
