<svg width="800" height="800" viewBox="0 0 800 800" fill="none" xmlns="http://www.w3.org/2000/svg">
<g clip-path="url(#clip0_818_7285)">
<mask id="mask0_818_7285" style="mask-type:alpha" maskUnits="userSpaceOnUse" x="0" y="0" width="799" height="799">
<circle cx="399.5" cy="399.5" r="399.5" fill="url(#paint0_linear_818_7285)"/>
</mask>
<g mask="url(#mask0_818_7285)">
<circle cx="400" cy="400" r="400" fill="white"/>
<path d="M-379.423 658.577C-403.49 616.892 -371.861 553.575 -308.778 517.154L1255.85 -386.186C1318.93 -422.607 1389.58 -418.339 1413.65 -376.654L2010.57 657.248C2034.64 698.933 2003.01 762.25 1939.93 798.671L375.299 1702.01C312.216 1738.43 241.567 1734.16 217.5 1692.48L-379.423 658.577Z" fill="url(#paint1_linear_818_7285)"/>
<path d="M1393.12 -279.5C1457.08 -302.779 1521.7 -286.572 1537.45 -243.301L1928.08 829.945C1943.83 873.217 1904.75 927.166 1840.79 950.446L254.429 1527.83C190.47 1551.11 125.854 1534.91 110.104 1491.63L-280.526 418.388C-296.275 375.116 -257.194 321.167 -193.234 297.887L1393.12 -279.5Z" fill="url(#paint2_linear_818_7285)"/>
<path d="M2117.65 713.08C2148.06 761.641 2124.48 831.201 2064.99 868.447L589.497 1792.24C530.008 1829.49 457.135 1820.32 426.732 1771.76L-327.369 567.302C-357.773 518.741 -334.195 449.18 -274.706 411.934L1200.79 -511.863C1260.28 -549.108 1333.15 -539.935 1363.55 -491.374L2117.65 713.08Z" fill="url(#paint3_linear_818_7285)"/>
<path d="M1787.72 521.764L1321.44 1488.54L-404.054 656.316L62.2321 -310.46L1787.72 521.764Z" fill="url(#paint4_linear_818_7285)"/>
</g>
<path fill-rule="evenodd" clip-rule="evenodd" d="M576.116 620.853C562.309 620.853 551.116 610.32 551.116 597.326L551.116 196.497C551.116 183.503 562.309 172.97 576.116 172.97C589.923 172.97 601.116 183.503 601.116 196.497L601.116 597.326C601.116 610.32 589.923 620.853 576.116 620.853Z" fill="white"/>
<path fill-rule="evenodd" clip-rule="evenodd" d="M527.599 616.897C514.611 624.416 498.133 620.334 490.796 607.779C483.459 595.224 264.451 220.475 264.451 220.475C257.113 207.92 261.695 191.646 274.683 184.127C287.671 176.607 304.149 180.69 311.486 193.245L537.831 580.549C545.169 593.104 540.588 609.377 527.599 616.897Z" fill="white"/>
<path fill-rule="evenodd" clip-rule="evenodd" d="M226.116 620.853C212.309 620.853 201.116 610.32 201.116 597.326L201.116 196.497C201.116 183.503 212.309 172.97 226.116 172.97C239.923 172.97 251.116 183.503 251.116 196.497L251.116 597.326C251.116 610.32 239.923 620.853 226.116 620.853Z" fill="white"/>
<mask id="mask1_818_7285" style="mask-type:alpha" maskUnits="userSpaceOnUse" x="0" y="0" width="799" height="799">
<circle cx="399.5" cy="399.5" r="399.5" fill="url(#paint5_linear_818_7285)"/>
</mask>
<g mask="url(#mask1_818_7285)">
<ellipse cx="399" cy="398" rx="401" ry="402" fill="white"/>
<path d="M-379.423 658.577C-403.49 616.892 -371.861 553.575 -308.778 517.154L1255.85 -386.186C1318.93 -422.607 1389.58 -418.339 1413.65 -376.654L2010.57 657.248C2034.64 698.933 2003.01 762.25 1939.93 798.671L375.299 1702.01C312.216 1738.43 241.567 1734.16 217.5 1692.48L-379.423 658.577Z" fill="url(#paint6_linear_818_7285)"/>
<path d="M1393.12 -279.5C1457.08 -302.779 1521.7 -286.572 1537.45 -243.301L1928.08 829.945C1943.83 873.217 1904.75 927.166 1840.79 950.446L254.429 1527.83C190.47 1551.11 125.854 1534.91 110.104 1491.63L-280.526 418.388C-296.275 375.116 -257.194 321.167 -193.234 297.887L1393.12 -279.5Z" fill="url(#paint7_linear_818_7285)"/>
<path d="M2117.65 713.08C2148.06 761.641 2124.48 831.201 2064.99 868.447L589.497 1792.24C530.008 1829.49 457.135 1820.32 426.732 1771.76L-327.369 567.302C-357.773 518.741 -334.195 449.18 -274.706 411.934L1200.79 -511.863C1260.28 -549.108 1333.15 -539.935 1363.55 -491.374L2117.65 713.08Z" fill="url(#paint8_linear_818_7285)"/>
<path d="M1787.72 521.764L1321.44 1488.54L-404.054 656.316L62.2321 -310.46L1787.72 521.764Z" fill="url(#paint9_linear_818_7285)"/>
</g>
<path fill-rule="evenodd" clip-rule="evenodd" d="M576.116 620.853C562.309 620.853 551.116 610.32 551.116 597.326L551.116 196.497C551.116 183.503 562.309 172.97 576.116 172.97C589.923 172.97 601.116 183.503 601.116 196.497L601.116 597.326C601.116 610.32 589.923 620.853 576.116 620.853Z" fill="white"/>
<path fill-rule="evenodd" clip-rule="evenodd" d="M527.599 616.897C514.611 624.416 498.133 620.334 490.796 607.779C483.459 595.224 264.451 220.475 264.451 220.475C257.113 207.92 261.695 191.646 274.683 184.127C287.671 176.607 304.149 180.69 311.486 193.245L537.831 580.549C545.169 593.104 540.588 609.377 527.599 616.897Z" fill="white"/>
<path fill-rule="evenodd" clip-rule="evenodd" d="M226.116 620.853C212.309 620.853 201.116 610.32 201.116 597.326L201.116 196.497C201.116 183.503 212.309 172.97 226.116 172.97C239.923 172.97 251.116 183.503 251.116 196.497L251.116 597.326C251.116 610.32 239.923 620.853 226.116 620.853Z" fill="white"/>
</g>
<defs>
<linearGradient id="paint0_linear_818_7285" x1="399.5" y1="0" x2="399.5" y2="799" gradientUnits="userSpaceOnUse">
<stop stop-color="#8900F2"/>
<stop offset="1" stop-color="#F20089"/>
</linearGradient>
<linearGradient id="paint1_linear_818_7285" x1="-80.9614" y1="1175.53" x2="1712.11" y2="140.297" gradientUnits="userSpaceOnUse">
<stop stop-color="#0091AD" stop-opacity="0.2"/>
<stop offset="0.184386" stop-color="#F20089"/>
<stop offset="0.494367" stop-color="#8900F2"/>
<stop offset="0.839389" stop-color="#E3027A" stop-opacity="0.75"/>
<stop offset="1" stop-color="#0091AD" stop-opacity="0.2"/>
</linearGradient>
<linearGradient id="paint2_linear_818_7285" x1="599.945" y1="9.1938" x2="1047.61" y2="1239.14" gradientUnits="userSpaceOnUse">
<stop stop-color="#0091AD" stop-opacity="0.2"/>
<stop offset="0.122201" stop-color="#F20089" stop-opacity="0.37"/>
<stop offset="0.529394" stop-color="#D207FB" stop-opacity="0.22"/>
<stop offset="0.883287" stop-color="#E3027A" stop-opacity="0.26"/>
<stop offset="1" stop-color="#0091AD" stop-opacity="0.2"/>
</linearGradient>
<linearGradient id="paint3_linear_818_7285" x1="1740.6" y1="110.853" x2="49.681" y2="1169.53" gradientUnits="userSpaceOnUse">
<stop stop-color="#0091AD" stop-opacity="0.2"/>
<stop offset="0.122201" stop-color="#F20089" stop-opacity="0.37"/>
<stop offset="0.529394" stop-color="#D207FB" stop-opacity="0.22"/>
<stop offset="0.883287" stop-color="#E3027A" stop-opacity="0.26"/>
<stop offset="1" stop-color="#0091AD" stop-opacity="0.2"/>
</linearGradient>
<linearGradient id="paint4_linear_818_7285" x1="924.978" y1="105.652" x2="458.692" y2="1072.43" gradientUnits="userSpaceOnUse">
<stop stop-color="#0091AD" stop-opacity="0.2"/>
<stop offset="0.122201" stop-color="#F20089" stop-opacity="0.37"/>
<stop offset="0.529394" stop-color="#D207FB" stop-opacity="0.22"/>
<stop offset="0.883287" stop-color="#E3027A" stop-opacity="0.26"/>
<stop offset="1" stop-color="#0091AD" stop-opacity="0.2"/>
</linearGradient>
<linearGradient id="paint5_linear_818_7285" x1="399.5" y1="0" x2="399.5" y2="799" gradientUnits="userSpaceOnUse">
<stop stop-color="#8900F2"/>
<stop offset="1" stop-color="#F20089"/>
</linearGradient>
<linearGradient id="paint6_linear_818_7285" x1="-80.9614" y1="1175.53" x2="1712.11" y2="140.297" gradientUnits="userSpaceOnUse">
<stop stop-color="#0091AD" stop-opacity="0.2"/>
<stop offset="0.184386" stop-color="#F20089"/>
<stop offset="0.494367" stop-color="#8900F2"/>
<stop offset="0.839389" stop-color="#E3027A" stop-opacity="0.75"/>
<stop offset="1" stop-color="#0091AD" stop-opacity="0.2"/>
</linearGradient>
<linearGradient id="paint7_linear_818_7285" x1="599.945" y1="9.1938" x2="1047.61" y2="1239.14" gradientUnits="userSpaceOnUse">
<stop stop-color="#0091AD" stop-opacity="0.2"/>
<stop offset="0.122201" stop-color="#F20089" stop-opacity="0.37"/>
<stop offset="0.529394" stop-color="#D207FB" stop-opacity="0.22"/>
<stop offset="0.883287" stop-color="#E3027A" stop-opacity="0.26"/>
<stop offset="1" stop-color="#0091AD" stop-opacity="0.2"/>
</linearGradient>
<linearGradient id="paint8_linear_818_7285" x1="1740.6" y1="110.853" x2="49.681" y2="1169.53" gradientUnits="userSpaceOnUse">
<stop stop-color="#0091AD" stop-opacity="0.2"/>
<stop offset="0.122201" stop-color="#F20089" stop-opacity="0.37"/>
<stop offset="0.529394" stop-color="#D207FB" stop-opacity="0.22"/>
<stop offset="0.883287" stop-color="#E3027A" stop-opacity="0.26"/>
<stop offset="1" stop-color="#0091AD" stop-opacity="0.2"/>
</linearGradient>
<linearGradient id="paint9_linear_818_7285" x1="924.978" y1="105.652" x2="458.692" y2="1072.43" gradientUnits="userSpaceOnUse">
<stop stop-color="#0091AD" stop-opacity="0.2"/>
<stop offset="0.122201" stop-color="#F20089" stop-opacity="0.37"/>
<stop offset="0.529394" stop-color="#D207FB" stop-opacity="0.22"/>
<stop offset="0.883287" stop-color="#E3027A" stop-opacity="0.26"/>
<stop offset="1" stop-color="#0091AD" stop-opacity="0.2"/>
</linearGradient>
<clipPath id="clip0_818_7285">
<rect width="800" height="800" fill="white"/>
</clipPath>
</defs>
</svg>
