<svg width="602" height="525" viewBox="0 0 602 525" fill="none" xmlns="http://www.w3.org/2000/svg">
<path d="M207.953 152.567C207.953 156.911 211.475 160.463 215.849 160.463H233.195C240.855 189.608 263.484 210.946 290.458 210.946C305.632 210.946 320.132 204.254 331.197 192.074C334.132 188.845 333.897 183.885 330.669 180.95C327.44 178.015 322.48 178.249 319.545 181.478C311.503 190.283 301.201 195.155 290.458 195.155C271.908 195.155 255.971 180.715 249.279 160.375H296.152C300.496 160.375 304.047 156.853 304.047 152.479C304.047 148.135 300.525 144.584 296.152 144.584H246.344C246.197 142.793 245.904 140.974 245.904 139.095C245.904 137.217 246.197 135.426 246.344 133.548H296.152C300.496 133.548 304.047 130.026 304.047 125.652C304.047 121.309 300.525 117.757 296.152 117.757H249.279C255.971 97.3878 271.908 82.9764 290.458 82.9764C301.142 82.9764 311.503 87.8487 319.545 96.6537C322.48 99.8823 327.44 100.117 330.669 97.182C333.897 94.247 334.132 89.2866 331.197 86.0579C320.161 73.8773 305.662 67.1855 290.458 67.1855C263.485 67.1855 240.855 88.5232 233.195 117.669H215.849C211.505 117.669 207.953 121.191 207.953 125.565C207.953 129.908 211.475 133.46 215.849 133.46H230.642C230.495 135.339 230.201 137.129 230.201 139.007C230.201 140.886 230.583 142.676 230.642 144.496H215.849C211.475 144.672 207.953 148.223 207.953 152.567Z" fill="#C703D0"/>
<path d="M287.434 278.19C364.157 278.19 426.529 215.82 426.529 139.095C426.529 62.3719 364.159 0 287.434 0C210.801 0 148.339 62.3704 148.339 139.095C148.339 215.848 210.797 278.19 287.434 278.19ZM287.434 15.9142C355.44 15.9142 410.735 71.2111 410.735 139.215C410.735 207.219 355.438 262.516 287.434 262.516C219.43 262.516 164.133 207.219 164.133 139.215C164.133 71.2111 219.43 15.9142 287.434 15.9142Z" fill="#C703D0"/>
<path d="M575.895 371.616C468.208 464.246 381.063 489.282 380.154 489.493C323.654 505.107 264.509 511.594 205.368 508.659L70.1202 483.329V483.476C69.6799 483.388 69.2103 483.182 68.6819 483.182H7.98489C3.64103 483.182 0.0894207 486.704 0.0894207 491.078C0.0894207 495.422 3.6115 498.973 7.98489 498.973H67.9486L203.58 524.215C213.5 524.743 223.333 524.978 233.107 524.978C284.793 524.978 335.512 518.139 384.352 504.609V504.521C399.467 500.852 485.788 469.799 586.164 383.482C592.915 377.611 601.866 368.454 601.104 356.068C600.517 346.089 594.118 336.902 583.611 330.885C563.858 319.614 543.107 322.99 539.115 323.812C532.893 325.103 526.788 327.187 521.094 330.21C515.605 324.34 506.889 317.443 494.414 314.126C475.63 309.166 459.839 315.417 451.356 320.202C428.844 303.09 398.261 300.918 373.604 315.183L327.934 340.043H267.061C260.662 339.955 254.293 339.28 248.13 337.871C239.031 335.846 230.314 332.47 221.744 327.51C171.407 303.002 112.644 308.344 66.802 341.334H7.89548C3.55162 341.334 0 344.856 0 349.229C0 353.573 3.52209 357.125 7.89548 357.125H68.9742C70.7646 357.125 72.3496 356.45 73.641 355.393L73.729 355.481C114.614 324.516 168.711 319.262 214.319 341.422C223.858 346.911 234.072 350.961 244.668 353.28C251.947 354.923 259.461 355.745 266.975 355.833H330.255C363.245 355.98 393.066 373.179 404.571 398.891C405.921 401.973 405.628 405.436 403.661 408.195C401.695 411.042 398.613 412.627 395.091 412.392C348.512 409.751 308.833 410.22 277.132 413.596C272.788 414.036 269.707 417.939 270.147 422.224C270.587 426.275 273.992 429.298 277.954 429.298C278.248 429.298 278.483 429.298 278.776 429.21C309.595 425.893 348.425 425.541 394.18 428.095C403.132 428.623 411.527 424.484 416.634 417.118C418.131 415.004 419.099 412.686 419.862 410.279L517.158 350.932L517.305 351.167L523.615 347.028C529.398 343.272 535.65 340.63 542.166 339.28C543.956 338.899 560.51 335.964 575.743 344.622C581.613 347.997 585.047 352.37 585.37 357.008C585.722 363.113 578.296 369.512 575.89 371.624L575.895 371.616ZM390.605 358.761C380.303 351.482 368.358 346.052 355.297 343.059L381.213 328.941C398.706 318.874 419.897 319.402 436.657 329.528L390.605 358.761ZM419.016 392.427C415.172 383.856 409.771 376.195 403.226 369.445L449.893 339.83L450.186 340.065L455.381 336.308C458.17 334.342 472.669 324.656 490.397 329.381C497.764 331.348 503.106 335.017 507.009 338.627L419.016 392.427Z" fill="#C703D0"/>
</svg>
