<svg width="458" height="427" viewBox="0 0 458 427" fill="none" xmlns="http://www.w3.org/2000/svg">
<path d="M260.877 143.736L260.896 143.717L269.81 158.481L269.79 158.5L260.877 143.736Z" fill="#C703D0"/>
<path d="M264.759 168.802C264.332 168.452 263.944 168.045 263.633 167.56C263.944 168.064 264.332 168.452 264.759 168.821V168.802Z" fill="#C703D0"/>
<path d="M265.093 169.035C264.976 168.957 264.86 168.88 264.763 168.783C264.879 168.88 264.976 168.938 265.093 169.035Z" fill="#C703D0"/>
<path d="M445.334 57.8315C445.295 57.8121 445.276 57.8121 445.237 57.7927L443.684 57.2689C441.276 56.4153 439.392 54.6499 438.402 52.2637C437.411 49.8969 437.47 47.3167 438.538 45.047L439.314 43.4562C442.751 36.1421 441.276 27.7419 435.566 22.0578C429.838 16.3543 421.39 14.9185 413.934 18.4299L412.536 19.1283C410.166 20.2535 407.564 20.3311 405.195 19.3611C402.845 18.3911 401.078 16.5287 400.185 14.0262L399.622 12.5129C396.923 4.90833 389.971 0 381.893 0H381.834C373.717 0.0194039 366.766 4.98581 364.105 12.5711L363.503 14.2201C362.629 16.6063 360.784 18.5269 358.435 19.4969C356.085 20.4669 353.541 20.3893 351.25 19.3029L349.658 18.5657C342.317 15.1125 333.889 16.6063 328.18 22.3681C322.491 28.1103 321.054 36.511 324.569 43.8052L325.306 45.3378C326.413 47.6271 326.491 50.1879 325.501 52.5739C324.53 54.9407 322.627 56.7838 320.219 57.6372L318.607 58.2192C313.169 60.1399 309.189 64.2723 307.325 69.3356L256.022 43.2231C254.604 42.5053 252.934 42.5053 251.517 43.2231L158.247 90.6566C158.072 90.7342 157.936 90.87 157.781 90.967C157.645 91.064 157.489 91.1416 157.353 91.2579C156.926 91.6072 156.538 92.0145 156.246 92.4996L142.129 115.741C141.411 116.924 141.217 118.36 141.605 119.699C141.993 121.037 142.925 122.143 144.168 122.764L155.528 128.448V178.619L114.535 157.764C113.118 157.046 111.448 157.046 110.03 157.764L16.7799 205.197C16.644 205.275 16.5275 205.372 16.411 205.45C16.2168 205.566 16.0226 205.682 15.8478 205.838C15.4789 206.148 15.1293 206.517 14.8769 206.924C14.8575 206.963 14.8186 206.982 14.7798 207.021L0.720702 230.262C0.00221157 231.446 -0.191964 232.881 0.196388 234.22C0.584739 235.559 1.49745 236.665 2.74026 237.285L14.0612 242.95V302.781C14.0612 304.663 15.1292 306.389 16.8187 307.223L110.128 353.803C110.187 353.823 110.226 353.823 110.284 353.842C110.944 354.152 111.643 354.346 112.342 354.346C112.4 354.346 112.439 354.308 112.498 354.308C113.1 354.288 113.702 354.133 114.265 353.881C114.362 353.842 114.478 353.861 114.575 353.803L155.549 333.355V375.434C155.549 377.316 156.617 379.043 158.307 379.877L251.616 426.476C251.694 426.515 251.772 426.496 251.849 426.534C252.49 426.825 253.15 427 253.85 427C254.529 427 255.209 426.806 255.85 426.534C255.927 426.496 256.005 426.515 256.083 426.476L349.353 379.877C351.042 379.023 352.11 377.316 352.11 375.434V315.604L363.431 309.939C364.674 309.318 365.606 308.212 365.975 306.874C366.363 305.555 366.169 304.119 365.451 302.916L351.392 279.675C351.1 279.209 350.712 278.802 350.285 278.453C350.149 278.336 350.013 278.259 349.857 278.162C349.702 278.065 349.566 277.929 349.391 277.832L264.901 234.88L337.351 198.679L332.71 228.032C331.409 237.421 335.992 242.524 340.711 244.173C342.031 244.638 343.371 244.852 344.75 244.852C349.896 244.852 355.139 241.689 358.479 236.257L379.703 209.446C379.839 209.272 379.975 209.078 380.092 208.884C381.432 206.614 382.616 206.381 384.112 208.884C384.228 209.078 384.364 209.272 384.5 209.446L405.744 236.277C409.997 243.144 417.298 246.364 423.531 244.172C428.231 242.523 432.794 237.402 431.493 227.934L416.657 133.806C423.415 136.075 430.775 134.407 435.921 129.227C441.63 123.504 443.067 115.084 439.552 107.751L438.834 106.257C437.727 103.949 437.668 101.272 438.659 98.9239C439.63 96.5765 441.475 94.8305 443.902 93.9963L445.514 93.4142C453.106 90.6788 458.019 83.7143 458 75.6438C457.98 67.5346 453.048 60.5503 445.397 57.8347L445.334 57.8315ZM253.828 53.2337L306.627 80.1225C306.802 80.9373 307.054 81.7521 307.326 82.5281C307.384 82.7027 307.462 82.8579 307.54 83.0325C307.792 83.6533 308.064 84.2741 308.375 84.8562C308.511 85.1278 308.666 85.3605 308.821 85.6127C309.113 86.0977 309.404 86.5634 309.715 87.0096C309.909 87.2812 310.103 87.5334 310.317 87.7856C310.647 88.193 310.996 88.6003 311.365 88.969C311.598 89.2212 311.831 89.454 312.084 89.6673C312.472 90.0359 312.899 90.3851 313.327 90.715C313.579 90.909 313.832 91.1224 314.103 91.3163C314.589 91.6462 315.094 91.9566 315.618 92.267C315.871 92.4028 316.104 92.5774 316.356 92.6938C317.152 93.1012 317.968 93.4698 318.842 93.7802L320.279 94.2458C321.327 94.6532 322.201 95.1382 323.017 95.759C323.716 96.3216 324.24 96.9036 324.687 97.5438C325.192 98.2811 325.561 99.0571 325.832 99.8524C325.852 99.93 325.871 100.008 325.891 100.085L253.808 136.092L171.589 95.022L253.808 53.1951L253.828 53.2337ZM326.726 127.383C326.959 127.674 327.192 127.945 327.425 128.236C327.697 128.566 327.949 128.935 328.26 129.245L269.769 158.481H269.749L260.836 143.717L260.875 143.698L323.288 112.522C323.055 113.647 322.958 114.772 322.939 115.917C322.939 116.227 322.958 116.518 322.978 116.829C323.016 117.779 323.113 118.711 323.288 119.642C323.346 119.972 323.405 120.321 323.502 120.651C323.793 121.834 324.182 123.017 324.725 124.162C325.269 125.307 325.969 126.374 326.726 127.383ZM153.469 303.498L162.382 288.773L246.759 330.91L237.807 345.674L153.45 303.517L153.469 303.498ZM119.369 258.237L171.701 232.105L203.723 216.119L212.617 230.824L128.28 273L119.369 258.237ZM221.881 237.284C223.124 236.664 224.056 235.558 224.425 234.219C224.813 232.9 224.619 231.464 223.9 230.262L219.706 223.355L242.737 234.86L210.54 251.233V242.949L221.861 237.285L221.881 237.284ZM162.42 101.562L246.777 143.699L237.863 158.463L162.773 120.923H162.754L153.491 116.287L162.443 101.562L162.42 101.562ZM237.51 169.383C238.171 169.713 238.87 169.849 239.549 169.868C239.608 169.868 239.666 169.907 239.724 169.907C240.171 169.907 240.617 169.83 241.064 169.713C241.142 169.694 241.219 169.655 241.297 169.616C241.744 169.48 242.151 169.267 242.52 168.995C242.637 168.918 242.753 168.84 242.87 168.743C243.297 168.394 243.686 168.006 243.996 167.502L248.832 159.489V226.789L208.77 206.788L208.673 206.73L165.525 185.176V133.416L237.508 169.404L237.51 169.383ZM112.315 167.734L155.852 189.889C155.891 189.986 155.949 190.044 155.988 190.122C156.163 190.529 156.376 190.917 156.668 191.267C156.765 191.402 156.862 191.519 156.978 191.635C157.367 192.043 157.813 192.411 158.338 192.683L193.35 210.182L178.126 217.786L112.356 250.611L30.0778 209.541L112.337 167.734L112.315 167.734ZM20.8696 216.08L105.266 258.217L96.3138 272.961L72.2541 260.933L11.9582 230.785L20.8522 216.08L20.8696 216.08ZM23.9572 247.896L95.9603 283.883C96.6205 284.213 97.3002 284.349 97.9993 284.368C98.0576 284.368 98.1158 284.407 98.1935 284.407C98.6595 284.407 99.1062 284.329 99.5334 284.213C99.5916 284.193 99.6499 284.155 99.6887 284.155C100.155 283.999 100.582 283.786 100.99 283.495C101.106 283.417 101.203 283.34 101.32 283.262C101.747 282.913 102.136 282.506 102.446 282.021L107.34 273.95V341.305L23.9724 299.672V247.892L23.9572 247.896ZM117.267 341.309V274.009L122.102 282.022C122.394 282.526 122.801 282.914 123.229 283.263C123.345 283.36 123.462 283.438 123.578 283.515C123.966 283.787 124.374 284 124.84 284.136C124.918 284.156 124.976 284.194 125.054 284.214C125.481 284.33 125.928 284.408 126.394 284.408C126.452 284.408 126.51 284.369 126.569 284.369C127.268 284.35 127.947 284.214 128.608 283.884L200.591 247.897V256.239L158.219 277.812C158.064 277.89 157.928 278.025 157.773 278.122C157.617 278.219 157.481 278.316 157.326 278.433C157.171 278.549 157.035 278.685 156.899 278.821C156.646 279.092 156.394 279.345 156.219 279.655L142.16 302.896C141.441 304.08 141.247 305.515 141.636 306.854C142.024 308.193 142.937 309.299 144.179 309.919L155.5 315.603V322.238L117.284 341.308L117.267 341.309ZM165.426 325.304V320.57L237.429 356.558C238.089 356.888 238.769 357.023 239.448 357.043C239.507 357.043 239.565 357.082 239.643 357.082C240.109 357.082 240.555 357.004 240.982 356.888C241.041 356.868 241.08 356.849 241.138 356.829C241.604 356.674 242.05 356.461 242.458 356.17C242.575 356.092 242.672 356.015 242.769 355.937C243.196 355.588 243.584 355.18 243.895 354.695L248.789 346.625V413.965L165.421 372.332V325.287L165.426 325.304ZM342.058 320.59V372.35L258.73 413.983V346.683L263.566 354.695C263.857 355.199 264.265 355.587 264.692 355.936C264.809 356.033 264.925 356.111 265.042 356.189C265.43 356.46 265.838 356.674 266.304 356.81C266.381 356.829 266.44 356.868 266.517 356.887C266.945 357.004 267.391 357.081 267.857 357.081C267.916 357.081 267.974 357.042 268.032 357.042C268.731 357.023 269.411 356.887 270.071 356.557L342.054 320.57L342.058 320.59ZM269.722 345.636L260.808 330.872L345.165 288.735L354.078 303.459L269.742 345.616L269.722 345.636ZM253.76 323.287L171.481 282.217L253.7 240.409L335.979 282.236L253.76 323.306V323.287ZM339.125 186.63L258.731 226.788V159.488L263.566 167.5C263.877 168.005 264.265 168.393 264.693 168.742C264.809 168.839 264.926 168.917 265.023 168.994C265.411 169.266 265.838 169.479 266.285 169.634C266.363 169.654 266.421 169.693 266.498 169.712C266.537 169.731 266.557 169.731 266.576 169.751C266.537 169.731 266.518 169.731 266.498 169.712C266.984 169.848 267.489 169.887 268.013 169.867C268.635 169.848 269.256 169.693 269.839 169.44C269.819 169.46 269.8 169.46 269.78 169.479C269.877 169.44 269.974 169.44 270.052 169.402L339.142 134.869C339.259 134.889 339.375 134.869 339.472 134.889C340.657 135.044 341.861 135.102 343.065 135.005C343.337 134.986 343.609 134.928 343.88 134.889C344.871 134.772 345.842 134.559 346.813 134.287C347.007 134.229 347.201 134.229 347.395 134.171L344.405 153.067L339.103 186.648L339.125 186.63ZM420.102 234.801C418.781 235.266 416.043 234.335 413.965 230.882C413.849 230.688 413.732 230.513 413.596 230.358L392.372 203.528C389.886 199.512 386.119 197.223 381.963 197.223C377.846 197.223 374.098 199.512 371.613 203.528L350.388 230.358C350.252 230.533 350.116 230.707 350.019 230.901C347.864 234.548 345.106 235.208 343.902 234.801C342.64 234.354 342.077 232.24 342.465 229.485L357.301 135.53L357.864 131.96C358.602 132.174 359.34 132.426 359.981 132.833C360.098 132.911 360.195 133.008 360.311 133.085C360.952 133.512 361.515 134.036 362.039 134.637C362.195 134.812 362.35 134.987 362.486 135.181C363.049 135.918 363.535 136.733 363.865 137.683L364.428 139.061C367.147 146.685 374.098 151.593 382.196 151.593H382.235C390.313 151.574 397.265 146.646 399.925 139.08L400.527 137.431C401.071 135.898 402.003 134.56 403.285 133.493C403.79 133.066 404.353 132.717 404.974 132.406C405.149 132.309 405.343 132.251 405.537 132.174C405.732 132.096 405.984 132.038 406.198 131.98L421.558 229.406C421.946 232.239 421.402 234.373 420.14 234.819L420.102 234.801ZM441.986 84.0442L440.394 84.6262C435.404 86.3917 431.364 90.1941 429.325 95.0831C427.267 100.03 427.403 105.637 429.714 110.545L430.452 112.058C432.471 116.249 430.879 120.051 428.743 122.224C426.587 124.378 422.801 125.988 418.548 123.97L417.014 123.272C415.149 122.379 413.013 121.778 410.877 121.565C408.877 121.351 406.993 121.448 405.498 121.817C402.158 122.438 399.207 123.834 396.818 125.91C394.255 128.044 392.293 130.857 391.148 134.039L390.526 135.727C388.992 140.072 385.206 141.644 382.176 141.644H382.157C379.108 141.644 375.302 140.092 373.671 135.513L373.108 134.136C372.758 133.127 372.312 132.176 371.807 131.284C371.651 130.993 371.438 130.721 371.263 130.43C370.894 129.848 370.525 129.266 370.117 128.742C369.865 128.432 369.593 128.16 369.341 127.869C368.933 127.404 368.525 126.958 368.059 126.55C367.748 126.259 367.418 126.007 367.088 125.755C366.641 125.406 366.195 125.056 365.709 124.746C365.34 124.494 364.933 124.28 364.544 124.048C364.078 123.795 363.612 123.543 363.107 123.33C362.661 123.136 362.214 122.961 361.748 122.787C361.282 122.612 360.796 122.476 360.311 122.34C359.806 122.205 359.321 122.088 358.796 121.991C358.311 121.894 357.825 121.836 357.32 121.797C356.796 121.739 356.272 121.681 355.747 121.681C355.592 121.681 355.437 121.642 355.262 121.642C354.602 121.642 353.942 121.7 353.262 121.758C353.184 121.778 353.106 121.758 353.009 121.778C352.99 121.778 352.99 121.778 352.971 121.797H352.893C351.106 122.049 349.242 122.573 347.009 123.543L345.533 124.28C345.358 124.339 345.184 124.397 345.009 124.474C344.116 124.862 343.222 125.076 342.329 125.153H342.271C341.397 125.212 340.504 125.134 339.591 124.882C336.989 124.242 334.736 122.399 333.571 119.935C332.775 118.266 332.134 115.609 333.63 112.446L334.406 110.856C335.61 108.314 336.212 105.656 336.212 102.96C336.212 102.262 336.154 101.621 336.076 100.593C335.669 97.4697 334.542 94.5599 332.795 92.018C331.843 90.6018 330.62 89.2632 329.027 87.9828C327.377 86.7218 325.629 85.7518 323.532 84.937L321.998 84.4132C318.463 83.1522 316.25 80.2227 316.036 76.5369C315.822 73.4523 317.221 69.2422 321.92 67.5933L323.551 67.0113C328.581 65.2071 332.62 61.3272 334.659 56.3608C336.678 51.4138 336.523 45.8458 334.193 41.0348L333.455 39.5022C331.455 35.3312 333.028 31.548 335.164 29.3752C337.319 27.2024 341.125 25.5728 345.359 27.571L346.932 28.3082C351.67 30.5586 357.224 30.7138 362.137 28.6962C367.088 26.6592 370.972 22.6237 372.778 17.6185L373.399 15.9113C374.933 11.5075 378.739 9.93621 381.788 9.93621H381.808C384.837 9.93621 388.624 11.4882 390.197 15.9113L390.76 17.4246C392.546 22.4491 396.411 26.4843 401.304 28.5216C406.237 30.5586 411.849 30.4034 416.801 28.0366L418.179 27.3382C422.432 25.3206 426.277 26.9114 428.432 29.0842C430.588 31.2182 432.18 35.0012 430.219 39.172L429.442 40.7628C427.17 45.5741 427.034 51.1616 429.093 56.0888C431.151 61.0164 435.21 64.8575 440.336 66.6618L441.928 67.1856C446.298 68.7571 447.87 72.5787 447.87 75.6246C447.87 78.6705 446.317 82.4728 441.948 84.0442L441.986 84.0442Z" fill="#C703D0"/>
<path d="M394.285 46.2695C386.401 42.9909 377.721 42.9715 369.817 46.2113C361.894 49.49 355.7 55.659 352.418 63.5938C345.66 79.9096 353.467 98.6887 369.837 105.44C373.798 107.07 377.895 107.846 381.954 107.846C394.557 107.846 406.558 100.357 411.684 87.9993V87.9799C414.927 80.0644 414.908 71.3732 411.626 63.4969C408.344 55.6012 402.169 49.4707 394.285 46.2499L394.285 46.2695ZM361.623 67.3963C363.895 61.9059 368.147 57.6576 373.624 55.4068C376.323 54.3009 379.158 53.7383 381.993 53.7383C384.867 53.7383 387.741 54.3009 390.499 55.4456C395.955 57.6766 400.188 61.9059 402.46 67.3377C404.169 71.4117 404.596 75.796 403.761 80.0448C403.722 80.2 403.664 80.3552 403.625 80.5104C403.354 81.7715 403.004 83.0131 402.499 84.2159C397.819 95.4872 384.867 100.881 373.643 96.2634C362.36 91.6074 356.962 78.6482 361.623 67.3963Z" fill="#C703D0"/>
<path d="M266.276 169.636C266.004 169.539 265.732 169.461 265.499 169.326C265.751 169.461 266.023 169.539 266.276 169.636Z" fill="#C703D0"/>
<path d="M268.16 169.909C268.14 169.909 268.101 169.89 268.082 169.89C268.024 169.89 267.965 169.928 267.907 169.928C267.985 169.928 268.082 169.89 268.16 169.89V169.909Z" fill="#C703D0"/>
</svg>
